<svg width="115" height="115" viewBox="0 0 115 115" fill="none" xmlns="http://www.w3.org/2000/svg">
<g id="Frame" opacity="0.2" clip-path="url(#clip0_7924_21666)">
<path id="Vector" d="M42.3728 0H36.3145V6.04252H42.3728H48.4191V0H42.3728Z" fill="#253858"/>
<path id="Vector_2" d="M78.6853 0H72.627V6.04252H78.6853V0Z" fill="#253858"/>
<path id="Vector_3" d="M66.5823 6.04252H60.524V0H54.4777V6.04252H48.4194V12.097V18.1516H42.373V24.1941H48.4194V30.2486H54.4777H60.524V24.1941H54.4777V18.1516V12.097H60.524H66.5823H72.6286V6.04252H66.5823Z" fill="#253858"/>
<path id="Vector_4" d="M78.6853 18.1522V12.0977H72.627V18.1522V24.1947H78.6853V18.1522Z" fill="#253858"/>
<path id="Vector_5" d="M36.3145 30.2489V36.2914H42.3728V30.2489V24.1943H36.3145V30.2489Z" fill="#253858"/>
<path id="Vector_6" d="M72.6283 24.1943H66.582V30.2369H72.6283V24.1943Z" fill="#253858"/>
<path id="Vector_7" d="M48.4194 66.54H42.373V72.5946H48.4194V66.54Z" fill="#253858"/>
<path id="Vector_8" d="M6.05832 36.291H0V42.3455H6.05832V36.291Z" fill="#253858"/>
<path id="Vector_9" d="M66.5809 42.3451H72.6272V48.3876H78.6856V42.3451H84.7319V36.2906H78.6856V30.248H72.6272V36.2906H66.5809H60.5226H54.4763H48.418V42.3451H54.4763H60.5226V48.3876H66.5809V42.3451Z" fill="#253858"/>
<path id="Vector_10" d="M108.941 42.3455V36.291H102.895V42.3455V48.3881H108.941V42.3455Z" fill="#253858"/>
<path id="Vector_11" d="M6.05832 48.3887H0V54.4312H6.05832V48.3887Z" fill="#253858"/>
<path id="Vector_12" d="M30.2673 54.4426H36.3136V48.3881H42.3719V42.3455H36.3136H30.2673V36.291H24.209V42.3455V48.3881H30.2673V54.4426Z" fill="#253858"/>
<path id="Vector_13" d="M60.5349 48.3887H54.4766V54.4312H60.5349V48.3887Z" fill="#253858"/>
<path id="Vector_14" d="M96.8365 48.3881V42.3455V36.291H90.7902V42.3455V48.3881H84.7319H78.6855V54.4426H84.7319H90.7902V60.4851H96.8365V54.4426H102.895V48.3881H96.8365Z" fill="#253858"/>
<path id="Vector_15" d="M30.2679 54.4426H24.2095V48.3881H18.1632V42.3455V36.291H12.1049V42.3455H6.05859V48.3881H12.1049V54.4426H18.1632V60.4851H24.2095V66.5396H30.2679V60.4851V54.4426Z" fill="#253858"/>
<path id="Vector_16" d="M42.373 60.4857H48.4194V66.5403H54.4777V60.4857V54.4432H48.4194V48.3887H42.373V54.4432V60.4857Z" fill="#253858"/>
<path id="Vector_17" d="M108.943 54.4424H102.896V60.4849V66.5394H96.8379V72.5819H102.896V78.6365H108.943V84.679V90.7335H115.001V84.679V78.6365V72.5819H108.943V66.5394H115.001V60.4849H108.943V54.4424Z" fill="#253858"/>
<path id="Vector_18" d="M6.05833 60.4854H0V66.5399V72.5824H6.05833V78.6369H12.1046V72.5824V66.5399H6.05833V60.4854Z" fill="#253858"/>
<path id="Vector_19" d="M18.1638 60.4854H12.1055V66.5279H18.1638V60.4854Z" fill="#253858"/>
<path id="Vector_20" d="M78.6864 60.4849V54.4424H72.6281H66.5818H60.5234V60.4849V66.5394H66.5818V60.4849H72.6281V66.5394H78.6864V72.5819H84.7327V66.5394H90.791V60.4849H84.7327H78.6864Z" fill="#253858"/>
<path id="Vector_21" d="M24.2084 66.54H18.1621V72.5946H24.2084V66.54Z" fill="#253858"/>
<path id="Vector_22" d="M36.3139 66.54H30.2676V72.5826V78.6371H36.3139V84.6796V90.7341H42.3722V84.6796V78.6371V72.5826H36.3139V66.54Z" fill="#253858"/>
<path id="Vector_23" d="M60.5349 66.54H54.4766V72.5946H60.5349V66.54Z" fill="#253858"/>
<path id="Vector_24" d="M54.4763 72.582H48.418V78.6366H54.4763V72.582Z" fill="#253858"/>
<path id="Vector_25" d="M72.6281 84.6791V78.6366V72.582H66.5818V78.6366H60.5234V84.6791H66.5818H72.6281Z" fill="#253858"/>
<path id="Vector_26" d="M54.4763 84.6797H48.418V90.7342H54.4763V84.6797Z" fill="#253858"/>
<path id="Vector_27" d="M66.5818 90.7344H60.5234V96.7769H66.5818V90.7344Z" fill="#253858"/>
<path id="Vector_28" d="M96.9564 90.7336V72.582H72.627V96.8963H78.6853V102.831H84.7316V96.8963H90.7899V102.831H96.8482V96.8963H96.9564V96.7881H102.895V102.843H114.999V96.7881H108.941V90.7456H96.9444L96.9564 90.7336ZM77.2909 77.2431H92.4247V92.3674H77.2909V77.2431Z" fill="#253858"/>
<path id="Vector_29" d="M42.373 102.831V108.874H48.4194V102.831V96.7769V90.7344H42.373V96.7769V102.831Z" fill="#253858"/>
<path id="Vector_30" d="M66.582 102.831V108.874H72.6283H78.6867V102.831H72.6283H66.582Z" fill="#253858"/>
<path id="Vector_31" d="M42.3728 108.873H36.3145V114.928H42.3728V108.873Z" fill="#253858"/>
<path id="Vector_32" d="M54.4763 114.928H60.5226V108.873H54.4763H48.418V114.928H54.4763Z" fill="#253858"/>
<path id="Vector_33" d="M102.895 108.873V114.928H108.941H114.999V108.873H108.941H102.895Z" fill="#253858"/>
<path id="Vector_34" d="M87.8825 81.7725H81.8242V87.815H87.8825V81.7725Z" fill="#253858"/>
<path id="Vector_35" d="M30.2676 0H0V30.2486H30.2676V0ZM25.7238 25.7077H4.54374V4.5409H25.7238V25.7077Z" fill="#253858"/>
<path id="Vector_36" d="M21.1808 9.07031H9.07617V21.1674H21.1808V9.07031Z" fill="#253858"/>
<path id="Vector_37" d="M84.7324 0V30.2486H115V0H84.7324ZM110.456 25.7077H89.2762V4.5409H110.456V25.7077Z" fill="#253858"/>
<path id="Vector_38" d="M105.913 9.07031H93.8086V21.1674H105.913V9.07031Z" fill="#253858"/>
<path id="Vector_39" d="M0 115H30.2676V84.751H0V115ZM4.54374 89.2919H25.7238V110.459H4.54374V89.2919Z" fill="#253858"/>
<path id="Vector_40" d="M21.1808 93.833H9.07617V105.93H21.1808V93.833Z" fill="#253858"/>
</g>
<defs>
<clipPath id="clip0_7924_21666">
<rect width="115" height="115" fill="white"/>
</clipPath>
</defs>
</svg>
