<svg width="14" height="16" viewBox="0 0 14 16" fill="none" xmlns="http://www.w3.org/2000/svg">
<path d="M11.4348 0H4.71285C3.73644 0 2.94203 0.79441 2.94203 1.77082V1.98816H1.77082C0.794411 1.98816 0 2.78257 0 3.75898V14.2292C0 15.2056 0.794411 16 1.77082 16H8.49277C9.46919 16 10.2635 15.2056 10.2635 14.2292V14.0118H11.4347C12.4111 14.0118 13.2056 13.2174 13.2056 12.241V1.77082C13.2056 0.79441 12.4112 0 11.4348 0ZM9.12133 14.2292C9.12133 14.5757 8.83934 14.8577 8.49285 14.8577H1.77082C1.42426 14.8577 1.14227 14.5757 1.14227 14.2292V3.7589C1.14227 3.41234 1.42426 3.13035 1.77082 3.13035H8.49277C8.83934 3.13035 9.12125 3.41234 9.12125 3.7589V14.2292H9.12133ZM12.0634 12.241C12.0634 12.5876 11.7814 12.8696 11.4348 12.8696H10.2636V3.7589C10.2636 2.78249 9.46919 1.98808 8.49285 1.98808H4.0843V1.77075C4.0843 1.42418 4.36629 1.14219 4.71285 1.14219H11.4348C11.7814 1.14219 12.0634 1.42418 12.0634 1.77075V12.241Z" fill="#5E6C84"/>
</svg>
