<svg width="24" height="24" viewBox="0 0 24 24" fill="none" xmlns="http://www.w3.org/2000/svg">
<mask id="mask0_7846_3575" style="mask-type:alpha" maskUnits="userSpaceOnUse" x="0" y="0" width="24" height="24">
<rect width="24" height="24" fill="#D9D9D9"/>
</mask>
<g mask="url(#mask0_7846_3575)">
<mask id="mask1_7846_3575" style="mask-type:alpha" maskUnits="userSpaceOnUse" x="0" y="0" width="24" height="24">
<rect width="24" height="24" fill="#D9D9D9"/>
</mask>
<g mask="url(#mask1_7846_3575)">
<path d="M5.75995 19.9643V18.8973C5.76754 18.807 5.75534 18.7161 5.72421 18.631C5.69307 18.5459 5.64374 18.4686 5.57967 18.4046C5.51559 18.3405 5.43831 18.2912 5.35321 18.26C5.26811 18.2289 5.17725 18.2167 5.08695 18.2243C4.96982 18.2201 4.8535 18.2453 4.74867 18.2977C4.64384 18.3501 4.55385 18.428 4.48695 18.5243C4.42894 18.4274 4.34554 18.3483 4.24578 18.2954C4.14601 18.2425 4.03368 18.2179 3.92095 18.2243C3.82337 18.2195 3.72618 18.2397 3.63865 18.2832C3.55112 18.3266 3.47617 18.3917 3.42095 18.4723V18.2603H3.04895V19.9603H3.42095V19.0223C3.42095 18.7223 3.57995 18.5803 3.82795 18.5803C4.07595 18.5803 4.19995 18.7393 4.19995 19.0223V19.9603H4.57195V19.0223C4.56458 18.9655 4.56975 18.9078 4.58709 18.8532C4.60443 18.7986 4.63353 18.7485 4.67233 18.7063C4.71112 18.6642 4.75868 18.6311 4.81166 18.6093C4.86463 18.5875 4.92174 18.5776 4.97895 18.5803C5.22695 18.5803 5.35095 18.7393 5.35095 19.0223V19.9603L5.75995 19.9643ZM11.2599 18.2643H10.6599V17.7513H10.2879V18.2643H9.95195V18.6003H10.2879V19.3793C10.2879 19.7683 10.4469 19.9983 10.8719 19.9983C11.0331 19.995 11.191 19.9524 11.332 19.8743L11.2259 19.5553C11.1305 19.6152 11.0197 19.6461 10.9069 19.6443C10.7299 19.6443 10.6589 19.5383 10.6589 19.3613V18.5973H11.259V18.2613L11.2599 18.2643ZM14.4099 18.2293C14.3209 18.2275 14.2329 18.2495 14.1552 18.2931C14.0775 18.3367 14.0128 18.4003 13.9679 18.4773V18.2653H13.5999V19.9653H13.9719V19.0093C13.9719 18.7263 14.096 18.5663 14.3259 18.5663C14.4037 18.5693 14.4808 18.581 14.5559 18.6013L14.662 18.2473C14.5802 18.2325 14.497 18.2265 14.4139 18.2293H14.4099ZM9.64895 18.4063C9.4418 18.2797 9.20147 18.218 8.95895 18.2293C8.53395 18.2293 8.25095 18.4413 8.25095 18.7783C8.25095 19.0613 8.46295 19.2203 8.83495 19.2783L9.01195 19.2963C9.20695 19.3313 9.31195 19.3843 9.31195 19.4733C9.31195 19.5973 9.16995 19.6853 8.92295 19.6853C8.7205 19.6864 8.52272 19.6245 8.35695 19.5083L8.17995 19.7913C8.39431 19.9351 8.64788 20.0091 8.90595 20.0033C9.40595 20.0033 9.68495 19.7733 9.68495 19.4543C9.68495 19.1543 9.45495 18.9943 9.10095 18.9413L8.92395 18.9233C8.76495 18.9053 8.64095 18.8703 8.64095 18.7643C8.64095 18.6403 8.76495 18.5643 8.95995 18.5643C9.14516 18.5725 9.32637 18.6209 9.49095 18.7063L9.64895 18.4063ZM19.5249 18.2293C19.4359 18.2275 19.3479 18.2495 19.2702 18.2931C19.1925 18.3367 19.1278 18.4003 19.083 18.4773V18.2653H18.7109V19.9653H19.083V19.0093C19.083 18.7263 19.207 18.5663 19.437 18.5663C19.5147 18.5693 19.5918 18.581 19.667 18.6013L19.7729 18.2473C19.6912 18.2325 19.608 18.2265 19.5249 18.2293ZM14.7819 19.1143C14.7768 19.2332 14.7967 19.3518 14.8404 19.4625C14.884 19.5732 14.9504 19.6734 15.0352 19.7569C15.12 19.8403 15.2214 19.905 15.3328 19.9467C15.4443 19.9885 15.5632 20.0064 15.682 19.9993C15.8992 20.0106 16.1129 19.9411 16.2819 19.8043L16.1049 19.5043C15.9797 19.6056 15.824 19.6616 15.6629 19.6633C15.5919 19.6655 15.5211 19.6525 15.4555 19.6252C15.3898 19.5979 15.3307 19.5569 15.2822 19.5049C15.2336 19.4529 15.1967 19.3912 15.1739 19.3239C15.1511 19.2565 15.1429 19.1851 15.1499 19.1143C15.1463 19.0443 15.1568 18.9742 15.1809 18.9083C15.2049 18.8424 15.242 18.7821 15.2898 18.7308C15.3377 18.6796 15.3954 18.6385 15.4595 18.6101C15.5237 18.5816 15.5928 18.5664 15.6629 18.5653C15.824 18.567 15.9797 18.623 16.1049 18.7243L16.2819 18.4243C16.1136 18.2857 15.8998 18.2144 15.682 18.2243C15.5632 18.2172 15.4443 18.2351 15.3328 18.2768C15.2214 18.3186 15.12 18.3833 15.0352 18.4667C14.9504 18.5501 14.884 18.6504 14.8404 18.7611C14.7967 18.8718 14.7768 18.9904 14.7819 19.1093V19.1143ZM18.2159 19.1143V18.2643H17.8439V18.4763C17.7816 18.3956 17.7009 18.331 17.6086 18.2878C17.5162 18.2447 17.4148 18.2243 17.3129 18.2283C17.0855 18.2391 16.871 18.3371 16.7138 18.5018C16.5567 18.6666 16.469 18.8856 16.469 19.1133C16.469 19.341 16.5567 19.5599 16.7138 19.7247C16.871 19.8895 17.0855 19.9875 17.3129 19.9983C17.4153 20.0058 17.5178 19.9869 17.6108 19.9435C17.7038 19.9001 17.784 19.8336 17.8439 19.7503V19.9623H18.2159V19.1143ZM16.853 19.1143C16.8579 19.0019 16.8996 18.8942 16.9717 18.8078C17.0437 18.7214 17.1421 18.661 17.2518 18.6359C17.3614 18.6108 17.4763 18.6224 17.5787 18.6689C17.6812 18.7153 17.7656 18.7941 17.8189 18.8932C17.8723 18.9922 17.8917 19.106 17.8742 19.2171C17.8566 19.3283 17.8031 19.4306 17.7218 19.5083C17.6405 19.5861 17.536 19.6351 17.4242 19.6477C17.3124 19.6603 17.1995 19.636 17.103 19.5783C17.0233 19.5307 16.958 19.4625 16.9139 19.3808C16.8699 19.2991 16.8489 19.207 16.853 19.1143ZM12.411 18.2293C12.2947 18.2305 12.1799 18.2545 12.073 18.3001C11.966 18.3457 11.8691 18.4118 11.7878 18.4949C11.7065 18.5779 11.6423 18.6761 11.5989 18.7839C11.5555 18.8917 11.5338 19.0071 11.5349 19.1233C11.5361 19.2395 11.5602 19.3544 11.6058 19.4613C11.6513 19.5682 11.7175 19.6651 11.8005 19.7464C11.8835 19.8278 11.9818 19.892 12.0896 19.9354C12.1974 19.9787 12.3127 20.0005 12.429 19.9993C12.6786 20.0045 12.9224 19.9233 13.1189 19.7693L12.9419 19.5043C12.7986 19.6154 12.6233 19.6774 12.4419 19.6813C12.3207 19.6915 12.2001 19.655 12.1048 19.5794C12.0095 19.5038 11.9466 19.3947 11.929 19.2743H13.186V19.1323C13.203 19.0204 13.1956 18.9062 13.1642 18.7974C13.1329 18.6887 13.0782 18.5881 13.0042 18.5025C12.9301 18.4169 12.8384 18.3484 12.7352 18.3018C12.6321 18.2551 12.5201 18.2314 12.4069 18.2323L12.411 18.2293ZM12.411 18.5483C12.4657 18.5468 12.5201 18.5562 12.5711 18.5759C12.6222 18.5956 12.6688 18.6253 12.7083 18.6631C12.7479 18.701 12.7795 18.7463 12.8014 18.7964C12.8233 18.8466 12.835 18.9006 12.8359 18.9553H11.9509C11.9613 18.8416 12.0147 18.7362 12.1002 18.6606C12.1857 18.5849 12.2969 18.5447 12.411 18.5483ZM21.632 19.1143V17.5923H21.2599V18.4773C21.1976 18.3966 21.1169 18.332 21.0246 18.2888C20.9322 18.2457 20.8308 18.2253 20.729 18.2293C20.5015 18.2401 20.287 18.3381 20.1298 18.5029C19.9727 18.6676 19.885 18.8866 19.885 19.1143C19.885 19.342 19.9727 19.5609 20.1298 19.7257C20.287 19.8905 20.5015 19.9885 20.729 19.9993C20.8313 20.0068 20.9338 19.9879 21.0268 19.9445C21.1198 19.9011 21.2 19.8346 21.2599 19.7513V19.9633H21.632V19.1143ZM20.269 19.1143C20.2739 19.0019 20.3156 18.8942 20.3877 18.8078C20.4597 18.7214 20.5581 18.661 20.6678 18.6359C20.7774 18.6108 20.8923 18.6224 20.9947 18.6689C21.0972 18.7153 21.1816 18.7941 21.2349 18.8932C21.2883 18.9922 21.3077 19.106 21.2902 19.2171C21.2726 19.3283 21.2191 19.4306 21.1378 19.5083C21.0565 19.5861 20.952 19.6351 20.8402 19.6477C20.7284 19.6603 20.6155 19.636 20.519 19.5783C20.4393 19.5307 20.374 19.4625 20.3299 19.3808C20.2859 19.2991 20.2649 19.207 20.269 19.1143ZM7.84395 19.1143V18.2643H7.47195V18.4763C7.40964 18.3956 7.32893 18.331 7.23656 18.2878C7.14418 18.2447 7.04282 18.2243 6.94095 18.2283C6.71351 18.2391 6.49897 18.3371 6.34183 18.5018C6.1847 18.6666 6.09703 18.8856 6.09703 19.1133C6.09703 19.341 6.1847 19.5599 6.34183 19.7247C6.49897 19.8895 6.71351 19.9875 6.94095 19.9983C7.04328 20.0058 7.14582 19.9869 7.23879 19.9435C7.33175 19.9001 7.41203 19.8336 7.47195 19.7503V19.9623H7.84395V19.1143ZM6.46295 19.1143C6.46791 19.0019 6.50961 18.8942 6.58165 18.8078C6.65369 18.7214 6.75209 18.661 6.86176 18.6359C6.97142 18.6108 7.08629 18.6224 7.18875 18.6689C7.2912 18.7153 7.37559 18.7941 7.42895 18.8932C7.48231 18.9922 7.50171 19.106 7.48416 19.2171C7.46661 19.3283 7.41309 19.4306 7.33181 19.5083C7.25052 19.5861 7.14597 19.6351 7.03418 19.6477C6.92239 19.6603 6.80954 19.636 6.71295 19.5783C6.63328 19.5307 6.56797 19.4625 6.52395 19.3808C6.47993 19.2991 6.45886 19.207 6.46295 19.1143Z" fill="black"/>
<path d="M15.1049 5.3623H9.52994V15.3803H15.1049V5.3623Z" fill="#FF5F00"/>
<path d="M9.88395 10.371C9.88407 9.40733 10.1022 8.45617 10.522 7.58873C10.9417 6.7213 11.5523 5.96006 12.3079 5.362C11.3681 4.6233 10.2394 4.16392 9.05076 4.03637C7.86216 3.90882 6.66166 4.11826 5.58646 4.64074C4.51126 5.16321 3.60475 5.97765 2.97054 6.99096C2.33633 8.00428 2 9.17558 2 10.371C2 11.5664 2.33633 12.7377 2.97054 13.751C3.60475 14.7644 4.51126 15.5788 5.58646 16.1013C6.66166 16.6237 7.86216 16.8332 9.05076 16.7056C10.2394 16.5781 11.3681 16.1187 12.3079 15.38C11.5508 14.7833 10.9392 14.0223 10.5193 13.1546C10.0993 12.2868 9.88209 11.335 9.88395 10.371Z" fill="#EB001B"/>
<path d="M22.6279 10.3711C22.6291 11.5661 22.2938 12.7373 21.6605 13.7507C21.0271 14.764 20.1213 15.5786 19.0466 16.1012C17.9719 16.6239 16.7719 16.8334 15.5837 16.7059C14.3955 16.5783 13.2672 16.1189 12.3279 15.3801C13.0839 14.7823 13.6947 14.0211 14.1147 13.1536C14.5346 12.2862 14.7528 11.3349 14.7528 10.3711C14.7528 9.40733 14.5346 8.45605 14.1147 7.58858C13.6947 6.7211 13.0839 5.95993 12.3279 5.36211C13.2672 4.62333 14.3955 4.16388 15.5837 4.03635C16.7719 3.90882 17.9719 4.11836 19.0466 4.64098C20.1213 5.1636 21.0271 5.97819 21.6605 6.99155C22.2938 8.00491 22.6291 9.1761 22.6279 10.3711Z" fill="#F79E1B"/>
</g>
</g>
</svg>
