<svg width="80" height="40" viewBox="0 0 80 40" fill="none" xmlns="http://www.w3.org/2000/svg">
<mask id="mask0_7924_24212" style="mask-type:alpha" maskUnits="userSpaceOnUse" x="0" y="0" width="80" height="40">
<rect width="80" height="40" fill="#D9D9D9"/>
</mask>
<g mask="url(#mask0_7924_24212)">
<path d="M4.78209 25.2222C4.382 26.3463 3.48654 26.9559 2.30531 27.0512C1.50512 27.1084 0.685878 27.0512 0 27.0512C0.190522 26.2891 3.75327 14.572 4.07716 13.5432C4.4201 12.4954 5.08693 12.0191 6.1729 12C6.68731 12 7.22077 12 7.73518 12C8.66873 12 9.33556 12.4763 9.64039 13.3718C10.2501 15.296 10.8597 17.2012 11.4694 19.1255C11.5266 19.3351 11.6218 19.5256 11.8695 19.7542C12.06 19.1827 12.2696 18.6301 12.4411 18.0586C12.9174 16.5725 13.3746 15.0674 13.8319 13.5813C14.1558 12.5335 14.8416 12.0191 15.9276 12C16.5182 12 17.1279 12 17.7185 12C18.4996 12 19.1093 12.4191 19.3379 13.1241C20.824 17.6966 23.7961 27.1274 23.7961 27.1274C23.7961 27.1274 21.4527 27.2036 20.3286 27.1084C19.4713 27.0322 18.9569 26.3844 18.6902 25.5461C18.1186 23.698 16.5182 19.3351 16.5182 19.3351C16.5182 19.3351 14.3844 25.5651 14.0986 26.1367C13.9081 26.4796 13.4699 26.8988 13.1079 26.9178C12.0791 27.0322 11.0312 27.0512 10.0024 26.9178C9.2784 26.8226 9.06882 26.0224 8.85925 25.4127C8.26863 23.6599 6.83972 19.3351 6.83972 19.3351C6.83972 19.3351 5.22029 23.8885 4.76304 25.2031L4.78209 25.2222Z" fill="#196E29"/>
<path d="M9.41179 12.8573C9.06885 12.2858 8.47823 12 7.75425 12C7.23984 12 6.70638 12 6.19197 12C5.08695 12 4.42012 12.5144 4.09623 13.5432C3.77235 14.553 0.190543 26.2701 0.0190735 27.0512C0.704951 27.0512 1.52419 27.0893 2.32438 27.0512C3.52467 26.975 4.40107 26.3653 4.80116 25.2222C5.25842 23.9266 6.87785 19.3541 6.87785 19.3541C7.65899 16.8011 8.34486 14.553 8.47823 14.1338C8.66875 13.5242 8.99264 13.105 9.43084 12.8573H9.41179Z" fill="#35AE06"/>
<path d="M19.2237 12.8002C18.9379 12.3048 18.4044 12.0191 17.7567 12C17.166 12 16.5564 12 15.9658 12C14.8798 12 14.1939 12.5335 13.87 13.5813C13.3937 15.0674 12.9365 16.5725 12.4792 18.0586C12.384 18.3825 12.2696 18.7064 12.1553 19.0302C11.2408 22.0595 10.3263 25.0317 10.1739 25.508C10.0215 26.0033 9.77381 26.3653 9.44992 26.6321C9.60234 26.7845 9.77381 26.8988 10.0215 26.9369C11.0312 27.0703 12.0982 27.0512 13.127 26.9369C13.489 26.8988 13.9272 26.4987 14.1177 26.1558C14.4225 25.5842 16.5373 19.3541 16.5373 19.3541C16.5373 19.3541 16.5373 19.3541 16.5373 19.3922C17.3185 16.8202 18.0043 14.553 18.1568 14.1338C18.3663 13.467 18.7093 13.0288 19.2237 12.8002Z" fill="#35AE06"/>
<path d="M52.965 22.5928V19.5635C52.965 19.5635 52.8507 19.5254 52.7935 19.5254C52.4506 20.3447 52.0886 21.183 51.7647 22.0213C51.6123 22.3833 51.517 22.669 51.0026 22.669C50.4882 22.669 50.412 22.3452 50.2596 22.0022C49.9357 21.183 49.5928 20.3637 49.2498 19.5445C49.1736 19.5445 49.1165 19.5445 49.0403 19.5635C49.0403 20.2875 49.0021 21.0306 49.0403 21.7545C49.0974 22.4785 48.8307 22.7643 48.1067 22.65C47.9162 22.6119 47.7066 22.65 47.5161 22.65V16.5724C48.1448 16.5724 48.6592 16.5342 49.1736 16.5914C49.3451 16.6105 49.5356 16.8772 49.6309 17.0868C50.0881 18.0775 50.4882 19.0682 50.9836 20.2304C51.4218 19.2016 51.86 18.3442 52.1648 17.4297C52.4125 16.7057 52.7935 16.439 53.5175 16.5533C53.7652 16.5914 54.0129 16.5533 54.3368 16.5533C54.432 18.5919 54.5082 20.5543 54.6035 22.5928H52.9269H52.965Z" fill="#211D1F"/>
<path d="M67.8447 22.555C66.9112 22.8218 66.2634 22.5741 65.749 21.7549C65.2536 20.9356 64.6059 20.2116 63.8819 19.4877V22.5932H62.2815V16.6298C63.196 16.3822 63.8628 16.5536 64.3772 17.411C64.8916 18.2493 65.5394 19.0114 66.2825 19.7544V16.5917H67.8447V22.555Z" fill="#211D1F"/>
<path d="M34.5987 19.564C34.5987 21.6026 33.5318 22.6886 31.5504 22.6886C29.588 22.6886 28.4449 21.5645 28.4449 19.5831C28.4449 17.5635 29.588 16.4395 31.5885 16.4395C33.5127 16.4395 34.5796 17.5635 34.5987 19.545V19.564ZM32.9793 19.564C32.9793 18.459 32.4458 17.8684 31.5123 17.8874C30.5977 17.9065 30.0833 18.5352 30.1024 19.6212C30.1214 20.669 30.6359 21.2596 31.5313 21.2596C32.4458 21.2596 32.9793 20.6309 32.9793 19.545V19.564Z" fill="#211D1F"/>
<path d="M61.4813 19.5831C61.4813 21.6026 60.3953 22.6885 58.4139 22.6885C56.4324 22.6885 55.3465 21.5835 55.3465 19.5831C55.3465 17.5635 56.4324 16.4585 58.4139 16.4585C60.3953 16.4585 61.4813 17.5635 61.4813 19.564V19.5831ZM59.8428 19.5831C59.8428 18.4971 59.3284 17.8874 58.3948 17.8874C57.4803 17.8874 56.9659 18.4971 56.9659 19.6021C56.9659 20.65 57.4803 21.2406 58.3758 21.2596C59.2903 21.2596 59.8428 20.65 59.8428 19.564V19.5831Z" fill="#211D1F"/>
<path d="M73.5793 22.5932H69.1402V16.5918H73.5031V17.9636H70.7596V18.9162H73.084V20.307H70.7596V21.1643H73.5793V22.5932Z" fill="#211D1F"/>
<path d="M43.4008 19.9448C43.0769 20.4782 42.753 21.0117 42.4482 21.5451C41.9909 22.3326 41.2098 22.6756 40.1048 22.5739C41.2288 20.5544 42.2958 18.6111 43.4389 16.5535C44.582 18.592 45.6489 20.5544 46.754 22.5168C45.306 22.8216 45.1726 22.7645 44.4868 21.6213C44.1819 21.1069 43.8771 20.5925 43.5723 20.0781C43.5532 20.04 43.4961 20.021 43.4008 19.9448Z" fill="#211D1F"/>
<path d="M74.0367 16.5918H75.5799L77.0278 19.1638L78.5139 16.5918H80C80 16.5918 77.3517 20.1355 77.8471 22.5742H76.1895C76.6468 20.1736 74.0367 16.5918 74.0367 16.5918Z" fill="#211D1F"/>
<path d="M39.9715 21.1262C39.6031 22.1296 38.9553 22.6313 38.0281 22.6313C37.1708 22.6313 36.2944 22.6313 35.3799 22.6313V16.5918H36.9422V21.1262H39.9715Z" fill="#211D1F"/>
</g>
</svg>
