<svg width="477" height="244" viewBox="0 0 477 244" fill="none" xmlns="http://www.w3.org/2000/svg">
<mask id="path-1-inside-1_188_533" fill="white">
<path fill-rule="evenodd" clip-rule="evenodd" d="M417 8C417 12.4183 413.418 16 409 16C404.582 16 401 12.4183 401 8C401 7.66134 401.021 7.32759 401.062 7H8C3.58172 7 0 10.5817 0 15V228C0 232.418 3.58173 236 8 236H401C401 231.582 404.582 228 409 228C413.418 228 417 231.582 417 236H469C473.418 236 477 232.418 477 228V15C477 10.5817 473.418 7 469 7H416.938C416.979 7.32759 417 7.66134 417 8Z"/>
</mask>
<path fill-rule="evenodd" clip-rule="evenodd" d="M417 8C417 12.4183 413.418 16 409 16C404.582 16 401 12.4183 401 8C401 7.66134 401.021 7.32759 401.062 7H8C3.58172 7 0 10.5817 0 15V228C0 232.418 3.58173 236 8 236H401C401 231.582 404.582 228 409 228C413.418 228 417 231.582 417 236H469C473.418 236 477 232.418 477 228V15C477 10.5817 473.418 7 469 7H416.938C416.979 7.32759 417 7.66134 417 8Z" fill="#F2F7FF"/>
<path d="M401.062 7L402.054 7.12378L402.194 6H401.062V7ZM401 236V237H402V236H401ZM417 236H416V237H417V236ZM416.938 7V6H415.806L415.946 7.12378L416.938 7ZM409 17C413.971 17 418 12.9706 418 8H416C416 11.866 412.866 15 409 15V17ZM400 8C400 12.9706 404.029 17 409 17V15C405.134 15 402 11.866 402 8H400ZM400.07 6.87622C400.024 7.24482 400 7.61991 400 8H402C402 7.70277 402.018 7.41036 402.054 7.12378L400.07 6.87622ZM8 8H401.062V6H8V8ZM1 15C1 11.134 4.13401 8 8 8V6C3.02944 6 -1 10.0294 -1 15H1ZM1 228V15H-1V228H1ZM8 235C4.13401 235 1 231.866 1 228H-1C-1 232.971 3.02944 237 8 237V235ZM401 235H8V237H401V235ZM402 236C402 232.134 405.134 229 409 229V227C404.029 227 400 231.029 400 236H402ZM409 229C412.866 229 416 232.134 416 236H418C418 231.029 413.971 227 409 227V229ZM469 235H417V237H469V235ZM476 228C476 231.866 472.866 235 469 235V237C473.971 237 478 232.971 478 228H476ZM476 15V228H478V15H476ZM469 8C472.866 8 476 11.134 476 15H478C478 10.0294 473.971 6 469 6V8ZM416.938 8H469V6H416.938V8ZM418 8C418 7.61991 417.976 7.24482 417.93 6.87622L415.946 7.12378C415.982 7.41036 416 7.70277 416 8H418Z" fill="white" mask="url(#path-1-inside-1_188_533)"/>
<path d="M409 15V228" stroke="white" stroke-width="2" stroke-dasharray="6 6"/>
<path d="M68 15V228" stroke="white" stroke-width="2" stroke-dasharray="6 6"/>
<circle cx="68" cy="8" r="8" fill="white"/>
<circle cx="68" cy="236" r="8" fill="white"/>
<g opacity="0.2" clip-path="url(#clip0_188_533)">
<path d="M216.795 39H208.103V47.6697H216.795H225.47V39H216.795Z" fill="#253858"/>
<path d="M268.897 39H260.205V47.6697H268.897V39Z" fill="#253858"/>
<path d="M251.53 47.6697H242.838V39H234.162V47.6697H225.47V56.3566V65.0436H216.795V73.7133H225.47V82.4002H234.162H242.838V73.7133H234.162V65.0436V56.3566H242.838H251.53H260.205V47.6697H251.53Z" fill="#253858"/>
<path d="M268.897 65.0436V56.3567H260.205V65.0436V73.7133H268.897V65.0436Z" fill="#253858"/>
<path d="M208.103 82.4003V91.07H216.795V82.4003V73.7134H208.103V82.4003Z" fill="#253858"/>
<path d="M260.205 73.7134H251.53V82.3831H260.205V73.7134Z" fill="#253858"/>
<path d="M225.47 134.47H216.795V143.157H225.47V134.47Z" fill="#253858"/>
<path d="M164.692 91.0698H156V99.7568H164.692V91.0698Z" fill="#253858"/>
<path d="M251.53 99.7568H260.205V108.426H268.898V99.7568H277.573V91.0698H268.898V82.4001H260.205V91.0698H251.53H242.838H234.162H225.47V99.7568H234.162H242.838V108.426H251.53V99.7568Z" fill="#253858"/>
<path d="M312.308 99.7568V91.0698H303.632V99.7568V108.426H312.308V99.7568Z" fill="#253858"/>
<path d="M164.692 108.427H156V117.096H164.692V108.427Z" fill="#253858"/>
<path d="M199.427 117.113H208.103V108.426H216.795V99.7568H208.103H199.427V91.0698H190.735V99.7568V108.426H199.427V117.113Z" fill="#253858"/>
<path d="M242.855 108.427H234.162V117.096H242.855V108.427Z" fill="#253858"/>
<path d="M294.94 108.426V99.7568V91.0698H286.265V99.7568V108.426H277.573H268.897V117.113H277.573H286.265V125.783H294.94V117.113H303.632V108.426H294.94Z" fill="#253858"/>
<path d="M199.427 117.113H190.735V108.426H182.06V99.7568V91.0698H173.368V99.7568H164.692V108.426H173.368V117.113H182.06V125.783H190.735V134.47H199.427V125.783V117.113Z" fill="#253858"/>
<path d="M216.795 125.783H225.47V134.47H234.162V125.783V117.113H225.47V108.427H216.795V117.113V125.783Z" fill="#253858"/>
<path d="M312.308 117.114H303.632V125.783V134.47H294.94V143.14H303.632V151.827H312.308V160.496V169.183H321V160.496V151.827V143.14H312.308V134.47H321V125.783H312.308V117.114Z" fill="#253858"/>
<path d="M164.692 125.783H156V134.47V143.14H164.692V151.827H173.368V143.14V134.47H164.692V125.783Z" fill="#253858"/>
<path d="M182.06 125.783H173.368V134.453H182.06V125.783Z" fill="#253858"/>
<path d="M268.897 125.783V117.114H260.205H251.53H242.838V125.783V134.47H251.53V125.783H260.205V134.47H268.897V143.14H277.573V134.47H286.265V125.783H277.573H268.897Z" fill="#253858"/>
<path d="M190.735 134.47H182.06V143.157H190.735V134.47Z" fill="#253858"/>
<path d="M208.102 134.47H199.427V143.14V151.827H208.102V160.496V169.183H216.795V160.496V151.827V143.14H208.102V134.47Z" fill="#253858"/>
<path d="M242.855 134.47H234.162V143.157H242.855V134.47Z" fill="#253858"/>
<path d="M234.162 143.14H225.47V151.827H234.162V143.14Z" fill="#253858"/>
<path d="M260.205 160.496V151.827V143.14H251.53V151.827H242.838V160.496H251.53H260.205Z" fill="#253858"/>
<path d="M234.162 160.496H225.47V169.183H234.162V160.496Z" fill="#253858"/>
<path d="M251.53 169.183H242.838V177.853H251.53V169.183Z" fill="#253858"/>
<path d="M295.113 169.183V143.14H260.205V178.025H268.897V186.54H277.573V178.025H286.265V186.54H294.957V178.025H295.113V177.87H303.632V186.557H321V177.87H312.308V169.2H295.095L295.113 169.183ZM266.897 149.827H288.611V171.527H266.897V149.827Z" fill="#253858"/>
<path d="M216.795 186.54V195.21H225.47V186.54V177.853V169.183H216.795V177.853V186.54Z" fill="#253858"/>
<path d="M251.53 186.54V195.21H260.205H268.897V186.54H260.205H251.53Z" fill="#253858"/>
<path d="M216.795 195.209H208.103V203.896H216.795V195.209Z" fill="#253858"/>
<path d="M234.162 203.896H242.838V195.209H234.162H225.47V203.896H234.162Z" fill="#253858"/>
<path d="M303.632 195.209V203.896H312.308H321V195.209H312.308H303.632Z" fill="#253858"/>
<path d="M282.091 156.325H273.399V164.995H282.091V156.325Z" fill="#253858"/>
<path d="M199.427 39H156V82.4002H199.427V39ZM192.908 75.885H162.519V45.5152H192.908V75.885Z" fill="#253858"/>
<path d="M186.389 52.0132H169.021V69.3698H186.389V52.0132Z" fill="#253858"/>
<path d="M277.573 39V82.4002H321V39H277.573ZM314.481 75.885H284.092V45.5152H314.481V75.885Z" fill="#253858"/>
<path d="M307.962 52.0132H290.594V69.3698H307.962V52.0132Z" fill="#253858"/>
<path d="M156 204H199.427V160.6H156V204ZM162.519 167.115H192.908V197.485H162.519V167.115Z" fill="#253858"/>
<path d="M186.389 173.63H169.021V190.987H186.389V173.63Z" fill="#253858"/>
</g>
<rect x="167" y="105" width="142.632" height="32.7353" rx="16.3676" fill="#0065FF"/>
<path d="M189.07 121.282V125.083C188.929 125.269 188.707 125.474 188.407 125.698C188.11 125.917 187.716 126.106 187.224 126.265C186.732 126.425 186.119 126.504 185.385 126.504C184.761 126.504 184.189 126.4 183.669 126.19C183.15 125.976 182.701 125.664 182.323 125.253C181.949 124.843 181.66 124.344 181.455 123.756C181.249 123.164 181.147 122.489 181.147 121.733V121.042C181.147 120.291 181.24 119.621 181.427 119.033C181.619 118.44 181.892 117.939 182.248 117.529C182.603 117.119 183.031 116.809 183.533 116.599C184.039 116.385 184.61 116.278 185.249 116.278C186.064 116.278 186.739 116.415 187.272 116.688C187.81 116.957 188.224 117.331 188.516 117.809C188.808 118.288 188.992 118.834 189.07 119.45H187.388C187.333 119.103 187.226 118.793 187.067 118.52C186.912 118.247 186.689 118.032 186.397 117.877C186.11 117.718 185.736 117.638 185.276 117.638C184.879 117.638 184.531 117.713 184.23 117.864C183.929 118.014 183.679 118.235 183.478 118.527C183.282 118.819 183.134 119.174 183.034 119.593C182.933 120.013 182.883 120.491 182.883 121.029V121.733C182.883 122.28 182.94 122.765 183.054 123.189C183.173 123.613 183.341 123.971 183.56 124.262C183.783 124.554 184.054 124.775 184.374 124.925C184.693 125.071 185.053 125.144 185.454 125.144C185.846 125.144 186.167 125.112 186.417 125.048C186.668 124.98 186.866 124.9 187.012 124.809C187.163 124.713 187.279 124.622 187.361 124.536V122.56H185.29V121.282H189.07ZM194.263 126.504C193.716 126.504 193.222 126.416 192.779 126.238C192.342 126.056 191.968 125.803 191.658 125.479C191.353 125.155 191.118 124.775 190.954 124.337C190.79 123.9 190.708 123.428 190.708 122.922V122.649C190.708 122.07 190.792 121.546 190.961 121.077C191.13 120.607 191.364 120.206 191.665 119.874C191.966 119.536 192.321 119.279 192.732 119.101C193.142 118.923 193.586 118.834 194.065 118.834C194.593 118.834 195.056 118.923 195.452 119.101C195.849 119.279 196.177 119.529 196.437 119.853C196.701 120.172 196.897 120.553 197.025 120.995C197.157 121.437 197.223 121.924 197.223 122.458V123.162H191.508V121.979H195.596V121.849C195.587 121.553 195.528 121.275 195.418 121.015C195.313 120.755 195.152 120.546 194.933 120.386C194.714 120.227 194.422 120.147 194.058 120.147C193.784 120.147 193.541 120.206 193.326 120.325C193.117 120.439 192.941 120.605 192.8 120.824C192.659 121.042 192.549 121.307 192.472 121.617C192.399 121.922 192.362 122.266 192.362 122.649V122.922C192.362 123.246 192.406 123.547 192.492 123.825C192.584 124.098 192.716 124.337 192.889 124.542C193.062 124.748 193.272 124.909 193.518 125.028C193.764 125.142 194.044 125.199 194.359 125.199C194.755 125.199 195.108 125.119 195.418 124.959C195.728 124.8 195.997 124.574 196.225 124.283L197.093 125.124C196.933 125.356 196.726 125.579 196.471 125.793C196.216 126.003 195.903 126.174 195.534 126.306C195.17 126.438 194.746 126.504 194.263 126.504ZM200.338 120.55V126.368H198.69V118.971H200.242L200.338 120.55ZM200.044 122.396L199.511 122.389C199.515 121.865 199.588 121.384 199.729 120.947C199.875 120.509 200.076 120.133 200.331 119.819C200.591 119.504 200.901 119.263 201.261 119.094C201.621 118.921 202.022 118.834 202.464 118.834C202.819 118.834 203.141 118.885 203.428 118.985C203.719 119.081 203.968 119.238 204.173 119.457C204.382 119.675 204.542 119.96 204.651 120.311C204.761 120.657 204.815 121.083 204.815 121.589V126.368H203.161V121.583C203.161 121.227 203.109 120.947 203.004 120.742C202.904 120.532 202.755 120.384 202.559 120.297C202.368 120.206 202.129 120.161 201.842 120.161C201.559 120.161 201.306 120.22 201.083 120.338C200.86 120.457 200.67 120.619 200.516 120.824C200.365 121.029 200.249 121.266 200.167 121.535C200.085 121.804 200.044 122.091 200.044 122.396ZM209.954 126.504C209.407 126.504 208.912 126.416 208.47 126.238C208.033 126.056 207.659 125.803 207.349 125.479C207.044 125.155 206.809 124.775 206.645 124.337C206.481 123.9 206.399 123.428 206.399 122.922V122.649C206.399 122.07 206.483 121.546 206.652 121.077C206.821 120.607 207.055 120.206 207.356 119.874C207.657 119.536 208.012 119.279 208.422 119.101C208.833 118.923 209.277 118.834 209.755 118.834C210.284 118.834 210.747 118.923 211.143 119.101C211.54 119.279 211.868 119.529 212.128 119.853C212.392 120.172 212.588 120.553 212.715 120.995C212.848 121.437 212.914 121.924 212.914 122.458V123.162H207.199V121.979H211.287V121.849C211.278 121.553 211.218 121.275 211.109 121.015C211.004 120.755 210.842 120.546 210.624 120.386C210.405 120.227 210.113 120.147 209.749 120.147C209.475 120.147 209.231 120.206 209.017 120.325C208.808 120.439 208.632 120.605 208.491 120.824C208.35 121.042 208.24 121.307 208.163 121.617C208.09 121.922 208.053 122.266 208.053 122.649V122.922C208.053 123.246 208.097 123.547 208.183 123.825C208.274 124.098 208.406 124.337 208.58 124.542C208.753 124.748 208.962 124.909 209.209 125.028C209.455 125.142 209.735 125.199 210.049 125.199C210.446 125.199 210.799 125.119 211.109 124.959C211.419 124.8 211.688 124.574 211.916 124.283L212.784 125.124C212.624 125.356 212.417 125.579 212.162 125.793C211.906 126.003 211.594 126.174 211.225 126.306C210.861 126.438 210.437 126.504 209.954 126.504ZM216.049 120.379V126.368H214.402V118.971H215.974L216.049 120.379ZM218.312 118.923L218.298 120.455C218.198 120.436 218.088 120.423 217.97 120.414C217.856 120.404 217.742 120.4 217.628 120.4C217.346 120.4 217.097 120.441 216.883 120.523C216.669 120.6 216.489 120.714 216.343 120.865C216.202 121.011 216.092 121.188 216.015 121.398C215.937 121.608 215.892 121.842 215.878 122.102L215.502 122.129C215.502 121.665 215.548 121.234 215.639 120.837C215.73 120.441 215.867 120.092 216.049 119.792C216.236 119.491 216.468 119.256 216.746 119.087C217.029 118.919 217.355 118.834 217.724 118.834C217.824 118.834 217.931 118.844 218.045 118.862C218.164 118.88 218.253 118.901 218.312 118.923ZM223.464 124.884V121.357C223.464 121.093 223.416 120.865 223.32 120.673C223.225 120.482 223.079 120.334 222.883 120.229C222.691 120.124 222.45 120.072 222.158 120.072C221.889 120.072 221.657 120.117 221.461 120.208C221.265 120.3 221.112 120.423 221.003 120.578C220.894 120.733 220.839 120.908 220.839 121.104H219.198C219.198 120.812 219.269 120.53 219.41 120.256C219.551 119.983 219.756 119.739 220.025 119.525C220.294 119.311 220.616 119.142 220.989 119.019C221.363 118.896 221.782 118.834 222.247 118.834C222.803 118.834 223.295 118.928 223.724 119.115C224.157 119.302 224.496 119.584 224.742 119.962C224.993 120.336 225.118 120.806 225.118 121.371V124.659C225.118 124.996 225.141 125.299 225.187 125.568C225.237 125.832 225.307 126.062 225.398 126.258V126.368H223.71C223.632 126.19 223.571 125.964 223.525 125.691C223.484 125.413 223.464 125.144 223.464 124.884ZM223.703 121.87L223.717 122.888H222.534C222.229 122.888 221.96 122.918 221.728 122.977C221.495 123.032 221.301 123.114 221.146 123.223C220.992 123.333 220.875 123.465 220.798 123.62C220.72 123.775 220.682 123.95 220.682 124.146C220.682 124.342 220.727 124.522 220.818 124.686C220.909 124.846 221.042 124.971 221.215 125.062C221.393 125.153 221.607 125.199 221.857 125.199C222.195 125.199 222.489 125.13 222.739 124.994C222.994 124.852 223.195 124.681 223.341 124.481C223.487 124.276 223.564 124.082 223.573 123.9L224.106 124.631C224.052 124.818 223.958 125.019 223.826 125.233C223.694 125.447 223.521 125.652 223.307 125.848C223.097 126.04 222.844 126.197 222.548 126.32C222.256 126.443 221.919 126.504 221.536 126.504C221.053 126.504 220.622 126.409 220.244 126.217C219.866 126.021 219.57 125.759 219.355 125.431C219.141 125.098 219.034 124.722 219.034 124.303C219.034 123.911 219.107 123.565 219.253 123.264C219.403 122.959 219.622 122.704 219.909 122.499C220.201 122.293 220.556 122.139 220.976 122.034C221.395 121.924 221.873 121.87 222.411 121.87H223.703ZM230.427 118.971V120.174H226.258V118.971H230.427ZM227.461 117.16H229.108V124.324C229.108 124.552 229.14 124.727 229.204 124.85C229.272 124.969 229.366 125.048 229.484 125.089C229.603 125.13 229.742 125.151 229.901 125.151C230.015 125.151 230.124 125.144 230.229 125.13C230.334 125.117 230.418 125.103 230.482 125.089L230.489 126.347C230.352 126.388 230.193 126.425 230.01 126.457C229.833 126.488 229.628 126.504 229.395 126.504C229.017 126.504 228.682 126.438 228.39 126.306C228.099 126.169 227.871 125.948 227.707 125.643C227.543 125.338 227.461 124.932 227.461 124.426V117.16ZM235.156 126.504C234.609 126.504 234.114 126.416 233.672 126.238C233.235 126.056 232.861 125.803 232.551 125.479C232.246 125.155 232.011 124.775 231.847 124.337C231.683 123.9 231.601 123.428 231.601 122.922V122.649C231.601 122.07 231.685 121.546 231.854 121.077C232.023 120.607 232.257 120.206 232.558 119.874C232.859 119.536 233.214 119.279 233.624 119.101C234.035 118.923 234.479 118.834 234.957 118.834C235.486 118.834 235.949 118.923 236.345 119.101C236.742 119.279 237.07 119.529 237.329 119.853C237.594 120.172 237.79 120.553 237.917 120.995C238.05 121.437 238.116 121.924 238.116 122.458V123.162H232.401V121.979H236.489V121.849C236.48 121.553 236.42 121.275 236.311 121.015C236.206 120.755 236.044 120.546 235.826 120.386C235.607 120.227 235.315 120.147 234.951 120.147C234.677 120.147 234.433 120.206 234.219 120.325C234.01 120.439 233.834 120.605 233.693 120.824C233.551 121.042 233.442 121.307 233.365 121.617C233.292 121.922 233.255 122.266 233.255 122.649V122.922C233.255 123.246 233.299 123.547 233.385 123.825C233.476 124.098 233.608 124.337 233.782 124.542C233.955 124.748 234.164 124.909 234.411 125.028C234.657 125.142 234.937 125.199 235.251 125.199C235.648 125.199 236.001 125.119 236.311 124.959C236.621 124.8 236.89 124.574 237.118 124.283L237.986 125.124C237.826 125.356 237.619 125.579 237.364 125.793C237.108 126.003 236.796 126.174 236.427 126.306C236.063 126.438 235.639 126.504 235.156 126.504ZM248.714 125.042L251.332 127.12L250.218 128.097L247.647 126.04L248.714 125.042ZM251.352 121.118V121.665C251.352 122.417 251.254 123.091 251.058 123.688C250.862 124.285 250.582 124.793 250.218 125.212C249.853 125.632 249.418 125.953 248.912 126.176C248.406 126.395 247.846 126.504 247.23 126.504C246.62 126.504 246.061 126.395 245.555 126.176C245.054 125.953 244.619 125.632 244.25 125.212C243.881 124.793 243.594 124.285 243.388 123.688C243.188 123.091 243.088 122.417 243.088 121.665V121.118C243.088 120.366 243.188 119.694 243.388 119.101C243.589 118.504 243.872 117.996 244.236 117.577C244.605 117.153 245.04 116.832 245.542 116.613C246.048 116.389 246.606 116.278 247.217 116.278C247.832 116.278 248.392 116.389 248.898 116.613C249.409 116.832 249.846 117.153 250.211 117.577C250.575 117.996 250.856 118.504 251.052 119.101C251.252 119.694 251.352 120.366 251.352 121.118ZM249.63 121.665V121.104C249.63 120.548 249.575 120.058 249.466 119.634C249.361 119.206 249.204 118.848 248.994 118.561C248.789 118.269 248.536 118.051 248.235 117.905C247.939 117.754 247.599 117.679 247.217 117.679C246.843 117.679 246.508 117.754 246.212 117.905C245.915 118.051 245.663 118.269 245.453 118.561C245.243 118.848 245.084 119.206 244.974 119.634C244.865 120.058 244.81 120.548 244.81 121.104V121.665C244.81 122.221 244.865 122.713 244.974 123.141C245.084 123.569 245.243 123.932 245.453 124.228C245.667 124.52 245.922 124.741 246.219 124.891C246.519 125.037 246.857 125.11 247.23 125.11C247.613 125.11 247.953 125.037 248.249 124.891C248.545 124.741 248.796 124.52 249.001 124.228C249.206 123.932 249.361 123.569 249.466 123.141C249.575 122.713 249.63 122.221 249.63 121.665ZM253.292 116.415H256.812C257.569 116.415 258.213 116.528 258.747 116.756C259.28 116.984 259.688 117.321 259.97 117.768C260.257 118.21 260.401 118.757 260.401 119.409C260.401 119.905 260.31 120.343 260.127 120.721C259.945 121.099 259.688 121.418 259.355 121.678C259.022 121.933 258.626 122.132 258.166 122.273L257.646 122.526H254.481L254.467 121.166H256.839C257.25 121.166 257.591 121.093 257.865 120.947C258.138 120.801 258.343 120.603 258.48 120.352C258.621 120.097 258.692 119.81 258.692 119.491C258.692 119.144 258.624 118.844 258.487 118.588C258.355 118.329 258.15 118.13 257.872 117.994C257.594 117.852 257.24 117.782 256.812 117.782H255.007V126.368H253.292V116.415ZM258.972 126.368L256.634 121.897L258.432 121.89L260.804 126.279V126.368H258.972ZM268.846 125.192C269.114 125.192 269.356 125.139 269.57 125.035C269.789 124.925 269.964 124.775 270.097 124.583C270.233 124.392 270.309 124.171 270.322 123.92H271.874C271.865 124.399 271.724 124.834 271.45 125.226C271.177 125.618 270.814 125.93 270.363 126.163C269.912 126.39 269.413 126.504 268.866 126.504C268.301 126.504 267.809 126.409 267.39 126.217C266.97 126.021 266.622 125.752 266.344 125.411C266.066 125.069 265.856 124.675 265.715 124.228C265.578 123.781 265.51 123.303 265.51 122.792V122.553C265.51 122.043 265.578 121.564 265.715 121.118C265.856 120.667 266.066 120.27 266.344 119.928C266.622 119.586 266.97 119.32 267.39 119.128C267.809 118.932 268.299 118.834 268.859 118.834C269.452 118.834 269.971 118.953 270.418 119.19C270.864 119.422 271.215 119.748 271.471 120.167C271.73 120.582 271.865 121.065 271.874 121.617H270.322C270.309 121.343 270.24 121.097 270.117 120.878C269.999 120.655 269.83 120.477 269.611 120.345C269.397 120.213 269.14 120.147 268.839 120.147C268.506 120.147 268.23 120.215 268.012 120.352C267.793 120.484 267.622 120.667 267.499 120.899C267.376 121.127 267.287 121.384 267.232 121.671C267.182 121.954 267.157 122.248 267.157 122.553V122.792C267.157 123.098 267.182 123.394 267.232 123.681C267.282 123.968 267.369 124.226 267.492 124.454C267.62 124.677 267.793 124.857 268.012 124.994C268.23 125.126 268.508 125.192 268.846 125.192ZM273.02 122.751V122.594C273.02 122.061 273.098 121.567 273.253 121.111C273.408 120.651 273.631 120.252 273.922 119.915C274.219 119.573 274.579 119.308 275.003 119.122C275.431 118.93 275.914 118.834 276.452 118.834C276.994 118.834 277.477 118.93 277.901 119.122C278.329 119.308 278.692 119.573 278.988 119.915C279.284 120.252 279.51 120.651 279.665 121.111C279.82 121.567 279.897 122.061 279.897 122.594V122.751C279.897 123.285 279.82 123.779 279.665 124.235C279.51 124.691 279.284 125.089 278.988 125.431C278.692 125.768 278.332 126.033 277.908 126.224C277.484 126.411 277.003 126.504 276.465 126.504C275.923 126.504 275.438 126.411 275.009 126.224C274.586 126.033 274.226 125.768 273.929 125.431C273.633 125.089 273.408 124.691 273.253 124.235C273.098 123.779 273.02 123.285 273.02 122.751ZM274.668 122.594V122.751C274.668 123.084 274.702 123.399 274.77 123.695C274.838 123.991 274.946 124.251 275.091 124.474C275.237 124.697 275.424 124.873 275.652 125C275.88 125.128 276.151 125.192 276.465 125.192C276.771 125.192 277.035 125.128 277.258 125C277.486 124.873 277.673 124.697 277.819 124.474C277.965 124.251 278.072 123.991 278.14 123.695C278.213 123.399 278.25 123.084 278.25 122.751V122.594C278.25 122.266 278.213 121.956 278.14 121.665C278.072 121.368 277.963 121.106 277.812 120.878C277.666 120.651 277.479 120.473 277.252 120.345C277.028 120.213 276.762 120.147 276.452 120.147C276.142 120.147 275.873 120.213 275.645 120.345C275.422 120.473 275.237 120.651 275.091 120.878C274.946 121.106 274.838 121.368 274.77 121.665C274.702 121.956 274.668 122.266 274.668 122.594ZM285.986 124.836V115.868H287.64V126.368H286.143L285.986 124.836ZM281.173 122.751V122.608C281.173 122.047 281.239 121.537 281.371 121.077C281.504 120.612 281.695 120.213 281.946 119.88C282.196 119.543 282.502 119.286 282.862 119.108C283.222 118.926 283.627 118.834 284.078 118.834C284.525 118.834 284.917 118.921 285.254 119.094C285.591 119.267 285.879 119.516 286.116 119.839C286.353 120.158 286.542 120.541 286.683 120.988C286.824 121.43 286.924 121.922 286.984 122.464V122.922C286.924 123.451 286.824 123.934 286.683 124.372C286.542 124.809 286.353 125.187 286.116 125.506C285.879 125.825 285.589 126.071 285.247 126.245C284.91 126.418 284.516 126.504 284.065 126.504C283.618 126.504 283.215 126.411 282.855 126.224C282.499 126.037 282.196 125.775 281.946 125.438C281.695 125.101 281.504 124.704 281.371 124.249C281.239 123.788 281.173 123.289 281.173 122.751ZM282.821 122.608V122.751C282.821 123.089 282.85 123.403 282.91 123.695C282.973 123.986 283.071 124.244 283.203 124.467C283.336 124.686 283.507 124.859 283.716 124.987C283.93 125.11 284.186 125.171 284.482 125.171C284.855 125.171 285.163 125.089 285.405 124.925C285.646 124.761 285.835 124.54 285.972 124.262C286.113 123.98 286.209 123.665 286.259 123.319V122.082C286.232 121.813 286.175 121.562 286.088 121.33C286.006 121.097 285.895 120.894 285.753 120.721C285.612 120.543 285.437 120.407 285.227 120.311C285.022 120.211 284.778 120.161 284.495 120.161C284.195 120.161 283.939 120.224 283.73 120.352C283.52 120.48 283.347 120.655 283.21 120.878C283.078 121.102 282.98 121.361 282.916 121.658C282.853 121.954 282.821 122.271 282.821 122.608ZM292.819 126.504C292.272 126.504 291.778 126.416 291.336 126.238C290.898 126.056 290.525 125.803 290.215 125.479C289.91 125.155 289.675 124.775 289.511 124.337C289.347 123.9 289.265 123.428 289.265 122.922V122.649C289.265 122.07 289.349 121.546 289.518 121.077C289.686 120.607 289.921 120.206 290.222 119.874C290.522 119.536 290.878 119.279 291.288 119.101C291.698 118.923 292.143 118.834 292.621 118.834C293.15 118.834 293.612 118.923 294.009 119.101C294.405 119.279 294.733 119.529 294.993 119.853C295.258 120.172 295.453 120.553 295.581 120.995C295.713 121.437 295.779 121.924 295.779 122.458V123.162H290.064V121.979H294.152V121.849C294.143 121.553 294.084 121.275 293.975 121.015C293.87 120.755 293.708 120.546 293.489 120.386C293.271 120.227 292.979 120.147 292.614 120.147C292.341 120.147 292.097 120.206 291.883 120.325C291.673 120.439 291.498 120.605 291.356 120.824C291.215 121.042 291.106 121.307 291.028 121.617C290.955 121.922 290.919 122.266 290.919 122.649V122.922C290.919 123.246 290.962 123.547 291.049 123.825C291.14 124.098 291.272 124.337 291.445 124.542C291.619 124.748 291.828 124.909 292.074 125.028C292.32 125.142 292.601 125.199 292.915 125.199C293.312 125.199 293.665 125.119 293.975 124.959C294.285 124.8 294.553 124.574 294.781 124.283L295.649 125.124C295.49 125.356 295.283 125.579 295.027 125.793C294.772 126.003 294.46 126.174 294.091 126.306C293.726 126.438 293.302 126.504 292.819 126.504Z" fill="white"/>
<defs>
<clipPath id="clip0_188_533">
<rect width="165" height="165" fill="white" transform="translate(156 39)"/>
</clipPath>
</defs>
</svg>
