<svg width="14" height="14" viewBox="0 0 14 14" fill="none" xmlns="http://www.w3.org/2000/svg">
<path d="M7 14C10.866 14 14 10.866 14 7C14 3.13401 10.866 0 7 0C3.13401 0 0 3.13401 0 7C0 10.866 3.13401 14 7 14Z" fill="white"/>
<path d="M7 13.5C10.5899 13.5 13.5 10.5899 13.5 7C13.5 3.41015 10.5899 0.5 7 0.5C3.41015 0.5 0.5 3.41015 0.5 7C0.5 10.5899 3.41015 13.5 7 13.5Z" stroke="#0065FF"/>
<path d="M6.62301 8.53191C6.6076 8.12394 6.6697 7.71674 6.80601 7.33191C6.9595 6.99198 7.18826 6.69141 7.47501 6.45291C7.72262 6.25095 7.94073 6.01534 8.12301 5.75291C8.22832 5.58033 8.28402 5.38208 8.28401 5.17991C8.28401 4.57391 8.00435 4.27091 7.44501 4.27091C7.32768 4.26558 7.21051 4.28459 7.10088 4.32676C6.99125 4.36892 6.89154 4.43332 6.80801 4.51591C6.64029 4.69997 6.55065 4.942 6.55801 5.19091H5.00001C4.987 4.89027 5.03967 4.5904 5.15434 4.31218C5.26901 4.03396 5.44294 3.78407 5.66401 3.57991C6.16465 3.17066 6.8004 2.96374 7.44601 2.99991C8.08295 2.95926 8.71259 3.15431 9.21501 3.54791C9.42858 3.74447 9.5958 3.98604 9.70459 4.25514C9.81337 4.52424 9.86099 4.81415 9.84401 5.10391C9.84654 5.40335 9.778 5.69911 9.64401 5.96691C9.45608 6.30371 9.21459 6.60768 8.92901 6.86691L8.49401 7.28091C8.23251 7.52095 8.06635 7.84724 8.02601 8.19991L8.00401 8.52791L6.62301 8.53191ZM6.46701 10.1819C6.46371 10.0712 6.48382 9.9611 6.52604 9.85873C6.56827 9.75637 6.63164 9.66408 6.71201 9.58791C6.79551 9.50977 6.89361 9.44887 7.00069 9.40872C7.10777 9.36856 7.22172 9.34994 7.33601 9.35391C7.45064 9.34967 7.56497 9.36816 7.67241 9.40833C7.77985 9.44849 7.87828 9.50952 7.96201 9.58791C8.04239 9.66408 8.10576 9.75637 8.14798 9.85873C8.19021 9.9611 8.21032 10.0712 8.20701 10.1819C8.21034 10.2909 8.19078 10.3993 8.14962 10.5002C8.10845 10.6012 8.04659 10.6924 7.96801 10.7679C7.88333 10.8466 7.78384 10.9076 7.67534 10.9474C7.56683 10.9873 7.45148 11.0051 7.33601 10.9999C7.22104 11.0047 7.10626 10.9867 6.9983 10.9469C6.89034 10.907 6.79134 10.8462 6.70701 10.7679C6.62826 10.6924 6.56621 10.6013 6.52487 10.5004C6.48353 10.3994 6.46382 10.2909 6.46701 10.1819Z" fill="#0065FF"/>
</svg>
