<svg xmlns="http://www.w3.org/2000/svg" width="16" height="16" viewBox="0 0 16 16"><defs><style>.a{fill:none;}.b{fill:#707070;stroke:#fff;stroke-width:0.2px;}</style></defs><g transform="translate(0.123 0.123)"><g transform="translate(-0.03 -0.03)"><rect class="a" width="16" height="16" transform="translate(-0.093 -0.093)"/></g><g transform="translate(1.969 1.969)"><path class="b" d="M8.255,6.777V9.194a.664.664,0,0,0,.322.565l2.049,1.215A.5.5,0,0,0,11.3,10.8a.492.492,0,0,0-.171-.676L9.247,9V6.771a.505.505,0,0,0-.5-.486A.5.5,0,0,0,8.255,6.777Zm6.568.493V3.8a.325.325,0,0,0-.558-.23L13.1,4.735a5.912,5.912,0,1,0,1.681,4.913.659.659,0,0,0-.657-.736.646.646,0,0,0-.644.565,4.607,4.607,0,0,1-4.63,4.032A4.665,4.665,0,0,1,4.315,8.978a4.6,4.6,0,0,1,7.848-3.317L10.79,7.034a.329.329,0,0,0,.23.565h3.474A.325.325,0,0,0,14.823,7.27Z" transform="translate(-3.003 -3.003)"/></g></g></svg>