<svg width="32" height="32" viewBox="0 0 32 32" fill="none" xmlns="http://www.w3.org/2000/svg">
<path d="M20.9181 15.2724C20.9981 14.9877 21.0781 14.7031 21.1581 14.4184C21.2287 14.1664 21.2988 13.9143 21.3681 13.6623C21.371 13.6478 21.373 13.6331 21.3741 13.6183C21.3473 13.6097 21.3188 13.6075 21.2911 13.6122C18.6684 13.6122 16.0458 13.6122 13.4231 13.6122C13.4001 13.6122 13.3531 13.6432 13.3511 13.5822L13.5641 12.8063L13.7721 12.0493C13.7752 12.0418 13.7792 12.0347 13.7841 12.0283C13.8077 12.0263 13.8315 12.0263 13.8551 12.0283H22.6241C22.6499 12.0244 22.6762 12.0244 22.7021 12.0283C22.8138 12.039 22.921 12.0776 23.0141 12.1403C23.0976 12.1996 23.1621 12.2818 23.1999 12.3769C23.2377 12.472 23.2471 12.5758 23.2271 12.6762C23.1751 12.9922 23.0681 13.2952 22.9851 13.6032C22.8481 14.1162 22.7021 14.6283 22.5591 15.1403C22.4691 15.4643 22.3784 15.7882 22.2871 16.1122C22.2165 16.3412 22.0706 16.5396 21.8731 16.6752C21.7279 16.7864 21.5549 16.8557 21.3731 16.8754C21.3473 16.8796 21.3209 16.8796 21.2951 16.8754H14.1341C14.1063 16.8703 14.0779 16.8703 14.0501 16.8754C14.0095 16.9834 13.976 17.0938 13.9501 17.2062C13.8201 17.6682 13.6918 18.1311 13.5651 18.5944C13.4318 19.0738 13.2984 19.5534 13.1651 20.0334C13.1511 20.0834 13.1331 20.1032 13.0791 20.1032C12.5864 20.1032 12.0938 20.1032 11.6011 20.1032C11.5451 20.1032 11.5331 20.0963 11.5501 20.0373C11.6341 19.7473 11.7141 19.4552 11.7941 19.1642C11.8741 18.8732 11.9531 18.5774 12.0341 18.2834C12.1071 18.0164 12.1821 17.7493 12.2561 17.4833C12.3301 17.2173 12.4021 16.9493 12.4771 16.6833C12.5521 16.4173 12.6301 16.1423 12.7061 15.8713C12.7601 15.6793 12.8121 15.4873 12.8651 15.2953C12.8891 15.2743 12.9191 15.2853 12.9451 15.2853H20.8271C20.8631 15.2943 20.8971 15.3064 20.9181 15.2724Z" fill="#253858"/>
<path d="M9.91348 20.114C9.88948 20.114 9.86556 20.114 9.84256 20.114H1.67251C1.64851 20.114 1.62547 20.114 1.60147 20.114C1.57747 20.114 1.52856 20.1139 1.49356 20.1039C1.38393 20.0965 1.2794 20.0547 1.19485 19.9846C1.11031 19.9144 1.04997 19.8192 1.02249 19.7128C0.984618 19.5531 0.994758 19.3859 1.05154 19.2319C1.13654 18.9319 1.21644 18.632 1.30044 18.332C1.38444 18.032 1.47255 17.7318 1.55655 17.4318C1.65055 17.0938 1.73955 16.7559 1.83255 16.4179C1.90255 16.1639 1.97654 15.91 2.04654 15.656C2.12854 15.356 2.20856 15.0659 2.29056 14.7709C2.35956 14.5219 2.42647 14.2708 2.49747 14.0248C2.58347 13.7262 2.66649 13.4263 2.74649 13.1249C2.81849 12.8559 2.89644 12.588 2.97244 12.32C2.99944 12.22 3.02845 12.1279 3.05545 12.0319C3.13945 12.0249 3.2245 12.0319 3.3085 12.0319H4.60245C4.62345 12.0319 4.65051 12.0179 4.66751 12.0439C4.61983 12.1811 4.57917 12.3206 4.54556 12.4619C4.41623 12.9199 4.28788 13.3782 4.16055 13.8369C4.02055 14.3415 3.88113 14.8464 3.74246 15.351C3.58179 15.9317 3.42088 16.512 3.25955 17.092C3.13222 17.5507 3.00418 18.009 2.87552 18.467C2.86152 18.517 2.85647 18.54 2.92447 18.54C5.02313 18.54 7.12318 18.54 9.22452 18.54C9.27252 18.54 9.29355 18.5309 9.30655 18.4799C9.39988 18.1246 9.49615 17.77 9.59549 17.416C9.70149 17.034 9.81446 16.6539 9.91946 16.2719C10.0435 15.8249 10.1616 15.3719 10.2856 14.9279C10.3916 14.5459 10.5035 14.1659 10.6105 13.7839C10.7445 13.3029 10.8745 12.8198 11.0105 12.3378C11.0375 12.2378 11.0675 12.1378 11.0955 12.0378C11.1095 12.0168 11.1315 12.0268 11.1485 12.0268H12.6585C12.6755 12.0268 12.6935 12.0269 12.7085 12.0339C12.6052 12.4032 12.5018 12.7725 12.3985 13.1418C12.2185 13.7898 12.0389 14.4382 11.8595 15.0869C11.7015 15.6539 11.5405 16.2208 11.3835 16.7868C11.2365 17.3148 11.0924 17.844 10.9464 18.373C10.8391 18.763 10.7308 19.1529 10.6215 19.5429C10.5868 19.6784 10.5159 19.802 10.4164 19.9003C10.3169 19.9986 10.1925 20.068 10.0565 20.101C10.0374 20.1047 10.0179 20.1063 9.99844 20.1059C9.96844 20.1149 9.93948 20.102 9.91348 20.114Z" fill="#253858"/>
<path d="M26.2015 12.009C26.1655 12.138 26.1285 12.2679 26.0935 12.3979C25.9355 12.9699 25.7778 13.5423 25.6205 14.115C25.4705 14.656 25.3205 15.196 25.1675 15.738C25.0145 16.28 24.8675 16.8459 24.7105 17.3989C24.5451 17.9989 24.3785 18.599 24.2105 19.199C24.1335 19.478 24.0545 19.7562 23.9785 20.0352C23.9776 20.0419 23.9754 20.0483 23.9719 20.0542C23.9685 20.0601 23.9638 20.0653 23.9583 20.0693C23.9528 20.0734 23.9465 20.0761 23.9398 20.0776C23.9331 20.0791 23.9262 20.0794 23.9195 20.0781H22.3595C22.3815 19.9461 22.4265 19.822 22.4595 19.696C22.5295 19.428 22.6045 19.161 22.6795 18.896C22.7545 18.631 22.8335 18.355 22.9075 18.084C22.9815 17.813 23.0475 17.561 23.1195 17.3C23.1815 17.076 23.2475 16.852 23.3095 16.627C23.4095 16.283 23.4965 15.939 23.5925 15.595C23.6755 15.295 23.7615 14.9951 23.8445 14.6951C23.9275 14.3951 24.0045 14.1079 24.0845 13.8149C24.1585 13.5459 24.2345 13.277 24.3095 13.009C24.3845 12.741 24.4545 12.478 24.5275 12.209C24.5425 12.155 24.5635 12.1011 24.5745 12.0461C24.5815 12.0111 24.5955 12 24.6305 12H26.1795C26.1871 12.0021 26.1945 12.0052 26.2015 12.009Z" fill="#253858"/>
<path d="M27.2265 18.3047C27.1951 18.318 27.1674 18.3384 27.1455 18.3645L26.5245 18.9565L25.5375 19.8896C25.4655 19.9611 25.389 20.0279 25.3085 20.0896L27.5475 12.0215C27.5865 12.0935 27.6205 12.1557 27.6525 12.2217C27.9098 12.7343 28.1672 13.2472 28.4245 13.7605C28.4355 13.7825 28.4365 13.8185 28.4735 13.8215C28.5915 14.0555 28.7045 14.2925 28.8265 14.5215C29.0775 15.0025 29.3135 15.4906 29.5585 15.9746C29.6035 16.0646 29.6025 16.0635 29.5325 16.1335C29.3325 16.3405 29.1115 16.5336 28.9015 16.7336C28.6655 16.9596 28.4265 17.1837 28.1885 17.4087C27.9505 17.6337 27.7084 17.8606 27.4704 18.0876C27.3994 18.1546 27.3245 18.2176 27.2605 18.2876C27.2573 18.2936 27.2522 18.2985 27.2461 18.3015C27.2401 18.3046 27.2332 18.3057 27.2265 18.3047Z" fill="#253858"/>
<path d="M27.2265 18.3047C27.3525 18.1661 27.486 18.0345 27.6264 17.9106C28.0931 17.4646 28.5625 17.0203 29.0345 16.5776C29.2035 16.4186 29.3705 16.2576 29.5415 16.0996C29.5489 16.0947 29.5552 16.0882 29.56 16.0808C29.5648 16.0734 29.568 16.0651 29.5694 16.0564C29.5708 16.0477 29.5704 16.0386 29.5682 16.03C29.5659 16.0215 29.5619 16.0135 29.5564 16.0066C29.2038 15.3086 28.8521 14.6085 28.5014 13.9065C28.4821 13.8766 28.471 13.8422 28.4695 13.8066C28.4975 13.7156 28.5265 13.6257 28.5525 13.5337C28.6065 13.3337 28.6575 13.1415 28.7115 12.9465C28.7928 12.6492 28.8745 12.3523 28.9565 12.0557C28.9627 12.0422 28.9704 12.0294 28.9795 12.0176C29.0015 12.0596 29.0214 12.0965 29.0404 12.1335C29.3018 12.6569 29.5635 13.1803 29.8255 13.7036C30.2095 14.4683 30.5948 15.2326 30.9815 15.9966C30.9871 16.0042 30.9911 16.0128 30.9933 16.022C30.9956 16.0311 30.9959 16.0407 30.9944 16.05C30.9929 16.0594 30.9896 16.0682 30.9847 16.0762C30.9797 16.0842 30.9731 16.0912 30.9654 16.0967C30.6021 16.438 30.2401 16.7802 29.8794 17.1235L29.2044 17.7615L28.1894 18.7217L27.5094 19.3645L26.7825 20.0515C26.7745 20.0595 26.7705 20.0846 26.7495 20.0696C26.7285 20.0546 26.7495 20.0455 26.7495 20.0315C26.8355 19.6905 26.9405 19.3547 27.0265 19.0127C27.0835 18.7867 27.1555 18.5636 27.2195 18.3396C27.2228 18.3282 27.2251 18.3165 27.2265 18.3047Z" fill="#253858"/>
<path d="M22.7032 12.0276H13.7852C13.8062 12.0116 13.8312 12.0186 13.8542 12.0186H22.6272C22.6532 12.0176 22.6802 12.0086 22.7032 12.0276Z" fill="#253858"/>
<path d="M20.9229 15.2725C20.9238 15.2756 20.9238 15.2788 20.9231 15.282C20.9223 15.2852 20.9208 15.2883 20.9186 15.2908C20.9164 15.2932 20.9137 15.2952 20.9106 15.2964C20.9075 15.2975 20.9042 15.2978 20.9009 15.2974H14.5689H12.9619C12.934 15.2939 12.9056 15.2966 12.8789 15.3054C12.8989 15.2744 12.9299 15.2883 12.9559 15.2883H20.8289C20.8611 15.2924 20.8939 15.287 20.9229 15.2725Z" fill="#253858"/>
<path d="M13.3542 13.5801C13.3542 13.5931 13.3542 13.606 13.3762 13.606H21.2982C21.3242 13.606 21.3542 13.5939 21.3772 13.6169C18.7239 13.6169 16.0709 13.6169 13.4182 13.6169C13.3982 13.6169 13.3382 13.6581 13.3542 13.5801Z" fill="#253858"/>
<path d="M14.0545 16.8854C14.0809 16.8753 14.1096 16.8725 14.1375 16.8773H21.3765C21.3585 16.8943 21.3355 16.8883 21.3145 16.8883H14.0545V16.8854Z" fill="#253858"/>
<path d="M4.66949 12.036C4.64328 12.0251 4.61455 12.0216 4.58649 12.026H3.05646C3.07746 12.009 3.10249 12.0162 3.12549 12.0162H4.59344C4.61944 12.0172 4.65149 12.002 4.66949 12.036Z" fill="#253858"/>
<path d="M12.7029 12.029C12.6769 12.029 12.6508 12.029 12.6258 12.029H11.1729C11.1449 12.0255 11.1166 12.0283 11.0898 12.037C11.1018 12.01 11.1269 12.0189 11.1469 12.0189H12.6469C12.6689 12.0159 12.6899 12.01 12.7029 12.029Z" fill="#253858"/>
<path d="M1.49219 20.1047C1.5285 20.1015 1.56513 20.1049 1.60022 20.1147C1.56422 20.1117 1.52619 20.1267 1.49219 20.1047Z" fill="#253858"/>
<path d="M9.91406 20.1147C9.94038 20.1056 9.9684 20.1025 9.99606 20.1057C9.97006 20.1247 9.94106 20.1127 9.91406 20.1147Z" fill="#253858"/>
</svg>
