<svg width="32" height="32" viewBox="0 0 32 32" fill="none" xmlns="http://www.w3.org/2000/svg">
<path d="M26.5947 16.937H26.126V13.6556C26.126 12.362 25.2176 11.2773 24.0053 11.0039L21.8717 7.30837C21.5591 6.7668 21.0542 6.37936 20.4501 6.2175C20.0236 6.10326 19.5838 6.11165 19.1713 6.23615L17.6199 4.68466C16.707 3.77183 15.2217 3.77173 14.3088 4.68466L8.05679 10.9368H6.71887C5.21969 10.9368 4 12.1564 4 13.6556V25.2811C4 26.7803 5.21969 28 6.71887 28H12.9535C13.2124 28 13.4223 27.7901 13.4223 27.5312C13.4223 27.2724 13.2124 27.0625 12.9535 27.0625H6.71887C5.73665 27.0625 4.93754 26.2633 4.93754 25.2811V13.6556C4.93754 12.6734 5.73665 11.8743 6.71887 11.8743H23.4071C24.3893 11.8743 25.1884 12.6734 25.1884 13.6556V16.937H21.7195C20.3238 16.937 19.1882 18.0726 19.1882 19.4684C19.1882 20.8641 20.3238 21.9997 21.7195 21.9997H25.1884V25.2811C25.1884 26.2633 24.3893 27.0625 23.4071 27.0625H17.1725C16.9136 27.0625 16.7037 27.2724 16.7037 27.5312C16.7037 27.7901 16.9136 28 17.1725 28H23.4071C24.9063 28 26.126 26.7803 26.126 25.2811V21.9997H26.5947C27.3702 21.9997 28.0011 21.3689 28.0011 20.5934V18.3433C28.0011 17.5679 27.3702 16.937 26.5947 16.937ZM20.2075 7.12311C20.5696 7.22015 20.8724 7.45243 21.0598 7.77714L22.884 10.9368H12.7797L19.1423 7.26332C19.4669 7.07591 19.8451 7.02603 20.2075 7.12311ZM14.9718 5.34765C15.2369 5.08251 15.5894 4.93649 15.9643 4.93649C16.3393 4.93649 16.6919 5.08251 16.957 5.34765L18.285 6.67572L10.9047 10.9368H9.3827L14.9718 5.34765ZM27.0635 20.5934C27.0635 20.8519 26.8532 21.0622 26.5947 21.0622H21.7195C20.8407 21.0622 20.1257 20.3472 20.1257 19.4684C20.1257 18.5895 20.8407 17.8746 21.7195 17.8746H26.5947C26.8532 17.8746 27.0635 18.0848 27.0635 18.3433V20.5934Z" fill="#253858"/>
<path d="M21.6406 19C21.5174 19 21.3964 19.0501 21.3092 19.1373C21.222 19.2246 21.1719 19.345 21.1719 19.4688C21.1719 19.5921 21.222 19.713 21.3092 19.8001C21.3964 19.8873 21.5174 19.9375 21.6406 19.9375C21.7644 19.9375 21.8849 19.8874 21.972 19.8001C22.0597 19.713 22.1094 19.5921 22.1094 19.4688C22.1094 19.3455 22.0597 19.2245 21.972 19.1373C21.8849 19.0502 21.7644 19 21.6406 19Z" fill="#253858"/>
<path d="M15.0625 27.0625C14.9392 27.0625 14.8183 27.1126 14.7311 27.1998C14.6439 27.2871 14.5938 27.408 14.5938 27.5313C14.5938 27.6546 14.6439 27.7755 14.7311 27.8626C14.8183 27.9498 14.9392 28 15.0625 28C15.1858 28 15.3068 27.9499 15.3939 27.8626C15.4811 27.7755 15.5313 27.6546 15.5313 27.5313C15.5313 27.408 15.4811 27.287 15.3939 27.1998C15.3068 27.1127 15.1858 27.0625 15.0625 27.0625Z" fill="#253858"/>
</svg>
