<svg width="32" height="32" viewBox="0 0 32 32" fill="none" xmlns="http://www.w3.org/2000/svg">
<path d="M19.7778 22.1111H6.22222C5.63307 22.1104 5.06825 21.8761 4.65165 21.4595C4.23506 21.0429 4.00071 20.478 4 19.8889V9.22222C4.00071 8.63307 4.23506 8.06825 4.65165 7.65165C5.06825 7.23506 5.63307 7.00071 6.22222 7H23.1111C23.7003 7.00071 24.2651 7.23506 24.6817 7.65165C25.0983 8.06825 25.3326 8.63307 25.3333 9.22222V16.8044C25.3333 16.9223 25.2865 17.0354 25.2032 17.1187C25.1198 17.2021 25.0068 17.2489 24.8889 17.2489C24.771 17.2489 24.658 17.2021 24.5746 17.1187C24.4913 17.0354 24.4444 16.9223 24.4444 16.8044V9.22222C24.4444 8.8686 24.304 8.52946 24.0539 8.27941C23.8039 8.02936 23.4647 7.88889 23.1111 7.88889H6.22222C5.8686 7.88889 5.52946 8.02936 5.27941 8.27941C5.02936 8.52946 4.88889 8.8686 4.88889 9.22222V19.8889C4.88889 20.2425 5.02936 20.5816 5.27941 20.8317C5.52946 21.0817 5.8686 21.2222 6.22222 21.2222H19.7778C19.8957 21.2222 20.0087 21.269 20.092 21.3524C20.1754 21.4357 20.2222 21.5488 20.2222 21.6667C20.2222 21.7845 20.1754 21.8976 20.092 21.9809C20.0087 22.0643 19.8957 22.1111 19.7778 22.1111Z" fill="#253858"/>
<path d="M24.8889 14.5556H4.44444C4.32657 14.5556 4.21352 14.5087 4.13017 14.4254C4.04683 14.342 4 14.229 4 14.1111V11.4444C4 11.3266 4.04683 11.2135 4.13017 11.1302C4.21352 11.0468 4.32657 11 4.44444 11H24.8889C25.0068 11 25.1198 11.0468 25.2032 11.1302C25.2865 11.2135 25.3333 11.3266 25.3333 11.4444V14.1111C25.3333 14.229 25.2865 14.342 25.2032 14.4254C25.1198 14.5087 25.0068 14.5556 24.8889 14.5556ZM4.88889 13.6667H24.4444V11.8889H4.88889V13.6667Z" fill="#253858"/>
<path d="M19.5543 17.2229H17.7765C17.6586 17.2229 17.5456 17.176 17.4622 17.0927C17.3789 17.0093 17.332 16.8963 17.332 16.7784C17.332 16.6606 17.3789 16.5475 17.4622 16.4642C17.5456 16.3808 17.6586 16.334 17.7765 16.334H19.5543C19.6721 16.334 19.7852 16.3808 19.8685 16.4642C19.9519 16.5475 19.9987 16.6606 19.9987 16.7784C19.9987 16.8963 19.9519 17.0093 19.8685 17.0927C19.7852 17.176 19.6721 17.2229 19.5543 17.2229Z" fill="#253858"/>
<path d="M15.9996 17.2219H14.2218C14.1039 17.2219 13.9909 17.1751 13.9075 17.0917C13.8242 17.0084 13.7773 16.8953 13.7773 16.7775C13.7773 16.6596 13.8242 16.5465 13.9075 16.4632C13.9909 16.3798 14.1039 16.333 14.2218 16.333H15.9996C16.1174 16.333 16.2305 16.3798 16.3138 16.4632C16.3972 16.5465 16.444 16.6596 16.444 16.7775C16.444 16.8953 16.3972 17.0084 16.3138 17.0917C16.2305 17.1751 16.1174 17.2219 15.9996 17.2219Z" fill="#253858"/>
<path d="M12.4457 19.8895H7.11241C6.99454 19.8895 6.88149 19.8427 6.79814 19.7594C6.71479 19.676 6.66797 19.563 6.66797 19.4451V16.7784C6.66797 16.6606 6.71479 16.5475 6.79814 16.4642C6.88149 16.3808 6.99454 16.334 7.11241 16.334H12.4457C12.5636 16.334 12.6767 16.3808 12.76 16.4642C12.8434 16.5475 12.8902 16.6606 12.8902 16.7784V19.4451C12.8902 19.563 12.8434 19.676 12.76 19.7594C12.6767 19.8427 12.5636 19.8895 12.4457 19.8895ZM7.55686 19.0007H12.0013V17.2229H7.55686V19.0007Z" fill="#253858"/>
<path d="M23.5556 25.6669C23.5205 25.6669 23.4856 25.6629 23.4516 25.6549C22.2242 25.3544 21.1317 24.6544 20.3459 23.6648C19.5601 22.6753 19.1258 21.4526 19.1111 20.1891V17.1905C19.1111 17.0745 19.1564 16.9631 19.2373 16.8801C19.3183 16.797 19.4285 16.7489 19.5444 16.746C20.8589 16.6881 22.1545 16.4111 23.3778 15.9265C23.4339 15.9022 23.4944 15.8896 23.5556 15.8896C23.6167 15.8896 23.6772 15.9022 23.7333 15.9265C24.94 16.4517 26.2396 16.7304 27.5556 16.746C27.6734 16.746 27.7865 16.7929 27.8698 16.8762C27.9532 16.9596 28 17.0726 28 17.1905V20.1891C27.9856 21.4528 27.5513 22.6757 26.7655 23.6654C25.9797 24.6551 24.887 25.3553 23.6596 25.6558C23.6254 25.6635 23.5905 25.6672 23.5556 25.6669ZM20 17.61V20.1878C20.0133 21.2336 20.3678 22.2465 21.0096 23.0724C21.6514 23.8982 22.5454 24.4918 23.5556 24.7629C24.5657 24.4918 25.4597 23.8982 26.1015 23.0724C26.7434 22.2465 27.0979 21.2336 27.1111 20.1878V17.6225C25.8891 17.5554 24.6871 17.283 23.5556 16.8167C22.4158 17.2543 21.2177 17.5216 20 17.61Z" fill="#253858"/>
<path d="M23.1099 22.1111C23.0221 22.1111 22.9362 22.0851 22.8632 22.0364L21.5299 21.1475C21.4318 21.0821 21.3637 20.9804 21.3406 20.8648C21.3176 20.7492 21.3413 20.6291 21.4068 20.5311C21.4722 20.433 21.5739 20.3649 21.6895 20.3418C21.8051 20.3188 21.9251 20.3425 22.0232 20.408L23.0534 21.0946L25.2401 18.908C25.3239 18.827 25.4362 18.7822 25.5527 18.7832C25.6692 18.7842 25.7807 18.831 25.8631 18.9134C25.9455 18.9958 25.9923 19.1073 25.9933 19.2238C25.9943 19.3403 25.9495 19.4526 25.8685 19.5364L23.4241 21.9809C23.3408 22.0642 23.2277 22.111 23.1099 22.1111Z" fill="#253858"/>
</svg>
