<svg width="32" height="32" viewBox="0 0 32 32" fill="none" xmlns="http://www.w3.org/2000/svg">
<g id="Group 24041006">
<path id="Vector" fill-rule="evenodd" clip-rule="evenodd" d="M16.8428 27.0801C12.8028 27.0801 9.52775 23.697 9.52775 19.5239C9.52775 17.812 10.0783 16.2343 11.0067 14.9676C11.1551 14.765 11.1165 14.4765 10.9204 14.3232C10.7244 14.1699 10.4451 14.2098 10.2966 14.4123C9.25519 15.8333 8.63717 17.6047 8.63717 19.5239C8.63717 24.2051 12.311 28 16.8428 28C21.3746 28 25.0484 24.2051 25.0484 19.5239C25.0484 17.6901 24.4842 15.9911 23.5253 14.6038C23.3824 14.3971 23.1043 14.3491 22.9041 14.4968C22.704 14.6444 22.6576 14.9316 22.8005 15.1384C23.6551 16.3748 24.1578 17.888 24.1578 19.5239C24.1578 23.697 20.8828 27.0801 16.8428 27.0801ZM14.2475 23.2656C13.6987 23.2656 13.2538 22.8061 13.2538 22.2392C13.2538 21.6723 13.6987 21.2127 14.2475 21.2127C14.7963 21.2127 15.2412 21.6723 15.2412 22.2392C15.2412 22.8061 14.7963 23.2656 14.2475 23.2656ZM12.3632 22.2392C12.3632 23.3141 13.2068 24.1855 14.2475 24.1855C15.2881 24.1855 16.1317 23.3141 16.1317 22.2392C16.1317 21.1642 15.2881 20.2928 14.2475 20.2928C13.2068 20.2928 12.3632 21.1642 12.3632 22.2392ZM19.8647 24.058C20.0655 23.9112 20.113 23.6242 19.9709 23.4168L14.2703 15.0993C14.1282 14.892 13.8503 14.8429 13.6495 14.9897C13.4488 15.1365 13.4013 15.4235 13.5434 15.6309L19.244 23.9484C19.3861 24.1557 19.664 24.2048 19.8647 24.058ZM19.3609 17.6602C18.8121 17.6602 18.3672 17.2006 18.3672 16.6337C18.3672 16.0668 18.8121 15.6072 19.3609 15.6072C19.9097 15.6072 20.3546 16.0668 20.3546 16.6337C20.3546 17.2006 19.9097 17.6602 19.3609 17.6602ZM17.4766 16.6337C17.4766 17.7087 18.3202 18.5801 19.3609 18.5801C20.4015 18.5801 21.2452 17.7087 21.2452 16.6337C21.2452 15.5587 20.4015 14.6873 19.3609 14.6873C18.3202 14.6873 17.4766 15.5587 17.4766 16.6337ZM26.9311 13.3949C26.6523 13.8007 26.1267 13.932 25.6992 13.7026L21.1161 11.2433C20.8979 11.1262 20.6291 11.214 20.5157 11.4395C20.4023 11.6649 20.4873 11.9426 20.7056 12.0597L25.2886 14.519C26.1104 14.96 27.1212 14.7075 27.6573 13.9273C28.2966 12.9969 28.0122 11.6992 27.0475 11.1437L18.658 6.31235C18.0614 5.96875 17.3896 5.78844 16.7065 5.78844H9.95225C9.35347 5.78844 8.77991 5.53914 8.36107 5.09711L7.4525 4.13831C7.28049 3.95662 6.99855 3.95363 6.8228 4.13118C6.64704 4.30895 6.64402 4.60011 6.81603 4.7818L7.72462 5.74061C8.31098 6.3595 9.11395 6.70838 9.95225 6.70838H16.7065C17.2378 6.70838 17.7603 6.84867 18.2243 7.11592L26.614 11.9472C27.1157 12.2361 27.2635 12.911 26.9311 13.3949ZM10.456 12.298C9.52069 12.4218 8.58125 12.111 7.89699 11.4457L4.75049 8.38663C4.57139 8.21251 4.28959 8.22133 4.12103 8.40631C3.95249 8.59129 3.96101 8.8824 4.14011 9.0565L7.28661 12.1156C8.16719 12.9717 9.37297 13.3688 10.5692 13.2105C12.028 13.0175 13.6602 12.8162 14.1864 12.7961C14.7499 12.7745 16.555 12.7775 18.0845 12.7858C19.1763 12.7917 20.0669 11.8801 20.0669 10.7508C20.0669 9.62827 19.1859 8.71828 18.0992 8.71828H13.691C13.4451 8.71828 13.2457 8.92421 13.2457 9.17825C13.2457 9.43227 13.4451 9.63822 13.691 9.63822H18.0992C18.6941 9.63822 19.1763 10.1363 19.1763 10.7508C19.1763 11.3686 18.6888 11.8691 18.0892 11.8659C16.5706 11.8577 14.7408 11.8543 14.1534 11.8768C13.5763 11.8988 11.8928 12.108 10.456 12.298Z" fill="#0065FF"/>
</g>
</svg>
