<svg xmlns="http://www.w3.org/2000/svg" xmlns:xlink="http://www.w3.org/1999/xlink" width="321.006" height="306.588" viewBox="0 0 321.006 306.588"><defs><style>.a{fill:#f4f7fa;}.b{fill:url(#a);}.c{opacity:0.8;}.ac,.c{mix-blend-mode:soft-light;}.ac,.aj,.au,.av,.ay,.bf,.bh,.c,.f,.l,.p,.v{isolation:isolate;}.d{fill:#fff;}.e{fill:url(#b);}.ab,.f{fill:#d8dee8;}.am,.f{opacity:0.7;}.aj,.au,.av,.ay,.bf,.bh,.f,.l,.p,.v{mix-blend-mode:multiply;}.g{fill:url(#c);}.h{fill:url(#d);}.i{fill:url(#e);}.j{fill:url(#f);}.k{fill:url(#g);}.ac,.bf,.l,.p,.v{opacity:0.3;}.l{fill:url(#h);}.m{fill:url(#i);}.n{fill:url(#j);}.o{fill:url(#k);}.p{fill:url(#l);}.q{fill:url(#m);}.r{fill:url(#n);}.s{fill:url(#o);}.t{fill:url(#p);}.u{fill:url(#q);}.v{fill:url(#r);}.w{fill:url(#s);}.x{fill:url(#t);}.y{fill:url(#u);}.z{fill:url(#v);}.aa{fill:#26264f;}.ad{fill:url(#w);}.ae{fill:url(#x);}.af{fill:url(#y);}.ag{fill:url(#z);}.ah{fill:url(#aa);}.ai{fill:url(#ab);}.aj,.bh{opacity:0.2;}.aj{fill:url(#ac);}.ak{fill:url(#ad);}.al{fill:url(#ae);}.an{fill:url(#af);}.ao{fill:url(#ag);}.ap{fill:url(#ah);}.aq{fill:url(#ai);}.ar{fill:url(#aj);}.as{fill:#fec045;}.at{fill:url(#ak);}.au{opacity:0.15;fill:url(#al);}.av{opacity:0.42;}.aw{fill:url(#am);}.ax{fill:url(#an);}.ay{opacity:0.26;fill:url(#ao);}.az{opacity:0.53;}.ba{fill:url(#ap);}.bb{fill:url(#aq);}.bc{fill:url(#ar);}.bd{fill:url(#as);}.be{fill:url(#at);}.bf{fill:url(#au);}.bg{fill:url(#bb);}.bh{fill:url(#bc);}.bi{fill:url(#bd);}.bj{fill:url(#be);}</style><linearGradient id="a" x1="-0.358" y1="-0.396" x2="-0.863" y2="2.919" gradientUnits="objectBoundingBox"><stop offset="0" stop-color="#ff9085"/><stop offset="1" stop-color="#fb6fbb"/></linearGradient><linearGradient id="b" x1="7.943" y1="-2.469" x2="7.39" y2="0.776" gradientUnits="objectBoundingBox"><stop offset="0" stop-color="#aa80f9"/><stop offset="0.996" stop-color="#6165d7"/></linearGradient><linearGradient id="c" x1="-10.067" y1="0.377" x2="-9.098" y2="0.377" gradientUnits="objectBoundingBox"><stop offset="0" stop-color="#444b8c"/><stop offset="0.996" stop-color="#26264f"/></linearGradient><linearGradient id="d" x1="-16.722" y1="-0.187" x2="-17.573" y2="0.894" gradientUnits="objectBoundingBox"><stop offset="0" stop-color="#ffc444"/><stop offset="0.996" stop-color="#f36f56"/></linearGradient><linearGradient id="e" x1="-3.632" y1="1.033" x2="-3.008" y2="0.112" xlink:href="#b"/><linearGradient id="f" x1="-7.495" y1="0.5" x2="-6.495" y2="0.5" xlink:href="#c"/><linearGradient id="g" x1="-22.222" y1="1.151" x2="-21.078" y2="-0.562" xlink:href="#d"/><linearGradient id="h" x1="-4.723" y1="1.033" x2="-3.951" y2="0.113" xlink:href="#b"/><linearGradient id="i" x1="-4.748" y1="0.613" x2="-3.272" y2="0.054" xlink:href="#b"/><linearGradient id="j" x1="-5.836" y1="-0.163" x2="-5.244" y2="0.897" gradientUnits="objectBoundingBox"><stop offset="0" stop-color="#311944"/><stop offset="1" stop-color="#893976"/></linearGradient><linearGradient id="k" x1="-3.152" y1="-0.15" x2="-2.499" y2="1.079" xlink:href="#j"/><linearGradient id="l" x1="-8.016" y1="0.645" x2="-5.621" y2="0.084" xlink:href="#b"/><linearGradient id="m" x1="-2.912" y1="-0.257" x2="-2.347" y2="0.939" xlink:href="#j"/><linearGradient id="n" x1="-25.409" y1="1.317" x2="-25.318" y2="-0.325" xlink:href="#d"/><linearGradient id="o" x1="-4.535" y1="0.459" x2="-3.841" y2="1.245" xlink:href="#c"/><linearGradient id="p" x1="-20.377" y1="2.932" x2="-20.413" y2="6.094" xlink:href="#d"/><linearGradient id="q" x1="-71.907" y1="29.954" x2="-71.72" y2="34.085" gradientUnits="objectBoundingBox"><stop offset="0" stop-color="#ffc444"/><stop offset="1" stop-color="#f36f56"/></linearGradient><linearGradient id="r" x1="-3.628" y1="-1.04" x2="-2.95" y2="0.886" xlink:href="#j"/><linearGradient id="s" x1="-0.883" y1="-0.866" x2="-0.422" y2="0.307" xlink:href="#j"/><linearGradient id="t" x1="-12.161" y1="1.377" x2="-12.106" y2="-0.408" xlink:href="#d"/><linearGradient id="u" x1="-11.19" y1="1.373" x2="-11.146" y2="-0.41" xlink:href="#d"/><linearGradient id="v" x1="1.354" y1="0.493" x2="2.385" y2="0.493" xlink:href="#c"/><linearGradient id="w" x1="-2.067" y1="-1.492" x2="-1.664" y2="-0.235" xlink:href="#b"/><linearGradient id="x" x1="-16.534" y1="-17.781" x2="-13.256" y2="-4.918" xlink:href="#b"/><linearGradient id="y" x1="-16.289" y1="-24.641" x2="-13.415" y2="-8.38" xlink:href="#b"/><linearGradient id="z" x1="-12.438" y1="-18.317" x2="-9.554" y2="-1.892" xlink:href="#b"/><linearGradient id="aa" x1="-17.684" y1="-16.923" x2="-14.427" y2="-4.117" xlink:href="#b"/><linearGradient id="ab" x1="-8.985" y1="-4.779" x2="-8.676" y2="-3.958" xlink:href="#b"/><linearGradient id="ac" x1="-2.413" y1="-1.735" x2="-1.436" y2="-1.735" xlink:href="#b"/><linearGradient id="ad" x1="-5.012" y1="-1.651" x2="-6.217" y2="-1.746" xlink:href="#j"/><linearGradient id="ae" x1="-6.045" y1="-1.725" x2="-4.355" y2="-1.672" gradientUnits="objectBoundingBox"><stop offset="0.004" stop-color="#e38ddd"/><stop offset="1" stop-color="#9571f6"/></linearGradient><linearGradient id="af" x1="-41.813" y1="-20.537" x2="-38.358" y2="-18.495" gradientUnits="objectBoundingBox"><stop offset="0" stop-color="#f57e53"/><stop offset="0.005" stop-color="#f58152"/><stop offset="0.042" stop-color="#f8994d"/><stop offset="0.084" stop-color="#fbac49"/><stop offset="0.133" stop-color="#fdb946"/><stop offset="0.196" stop-color="#fec144"/><stop offset="0.318" stop-color="#ffc444"/><stop offset="0.455" stop-color="#fdb946"/><stop offset="0.694" stop-color="#f99c4c"/><stop offset="0.996" stop-color="#f36f56"/></linearGradient><linearGradient id="ag" x1="-46.287" y1="-21.969" x2="-45.422" y2="-21.969" xlink:href="#a"/><linearGradient id="ah" x1="-139.894" y1="-29.739" x2="-137.525" y2="-29.739" xlink:href="#a"/><linearGradient id="ai" x1="-140.701" y1="-29.554" x2="-138.328" y2="-29.554" xlink:href="#a"/><linearGradient id="aj" x1="-141.512" y1="-29.37" x2="-139.134" y2="-29.37" xlink:href="#a"/><linearGradient id="ak" x1="-63.644" y1="-35.848" x2="-62.963" y2="-35.848" xlink:href="#a"/><linearGradient id="al" x1="-10.104" y1="-2.052" x2="-7.525" y2="-1.989" gradientUnits="objectBoundingBox"><stop offset="0" stop-color="#fb6fbb"/><stop offset="1" stop-color="#ff9085"/></linearGradient><linearGradient id="am" x1="-50.434" y1="-11.227" x2="-48.647" y2="-11.227" xlink:href="#al"/><linearGradient id="an" x1="-40.457" y1="-7.409" x2="-38.528" y2="-7.409" xlink:href="#al"/><linearGradient id="ao" x1="-34.635" y1="-18.181" x2="-33.595" y2="-18.181" xlink:href="#a"/><linearGradient id="ap" x1="0.329" y1="0.554" x2="-0.255" y2="0.738" gradientUnits="objectBoundingBox"><stop offset="0" stop-color="#fcb148"/><stop offset="0.052" stop-color="#fdb946"/><stop offset="0.142" stop-color="#fec144"/><stop offset="0.318" stop-color="#ffc444"/><stop offset="0.485" stop-color="#fdb946"/><stop offset="0.775" stop-color="#f99c4c"/><stop offset="0.866" stop-color="#f8924f"/><stop offset="1" stop-color="#f8924f"/></linearGradient><linearGradient id="aq" x1="0.727" y1="0.007" x2="0.207" y2="1.135" gradientUnits="objectBoundingBox"><stop offset="0" stop-color="#ffdb44"/><stop offset="1" stop-color="#feef06"/></linearGradient><linearGradient id="ar" x1="0.636" y1="1.231" x2="0.531" y2="0.666" xlink:href="#ap"/><linearGradient id="as" x1="0.409" y1="0.31" x2="0.858" y2="1.247" xlink:href="#ap"/><linearGradient id="at" x1="0.253" y1="0.019" x2="0.711" y2="1.039" xlink:href="#aq"/><linearGradient id="au" x1="0.464" y1="0.369" x2="1.215" y2="1.306" xlink:href="#ap"/><linearGradient id="bb" x1="0.641" y1="-0.993" x2="0.376" y2="1.775" gradientUnits="objectBoundingBox"><stop offset="0" stop-color="#ab316d"/><stop offset="1" stop-color="#792d3d"/></linearGradient><linearGradient id="bc" x1="3.311" y1="-0.817" x2="-0.513" y2="0.923" xlink:href="#bb"/><linearGradient id="bd" x1="4.112" y1="-0.532" x2="-0.545" y2="0.957" xlink:href="#bb"/><linearGradient id="be" x1="3.689" y1="-0.716" x2="-0.501" y2="0.882" xlink:href="#d"/></defs><g transform="translate(-455 -517.877)"><path class="a" d="M588.977,821.477c-79.633-12.06-144.349-87.352-132.592-171.037,10.03-71.37,72.6-126.911,147.639-132.156q8.15-.571,16.476-.338a163.969,163.969,0,0,1,106.56,43.289c27.378,25.215,45.166,58.941,48.4,94.324C784.09,749.7,688.024,836.477,588.977,821.477Z" transform="translate(0 0)"/><g transform="translate(460.118 705.19)"><g transform="translate(0 0)"><path class="b" d="M553.766,2263.7c-18.622-2.393-42.234-8.679-51.717-26.406-2.256-4.218-4.52-12.41,1.174-15.495,5.2-2.82,11.936.159,15.8,3.828,2.844,2.7,5.064,8.72,8.26,10.625,4.677,2.787,7.2-4.818,7.1-7.957-.22-7.017-8.852-9.89-14.588-11.414-9.522-2.529-20.609-4.7-20.012-15.427s11.059-17.167,19.108-12.473c6.631,3.868,5.7,12.124,10.229,17.078,4.026,4.4,5.426-2.742,5.158-6.244-.584-7.607-7.272-13.109-12.193-18.206-5.564-5.763-11.711-17.358-5.78-24.978,3.413-4.385,12.083-5.412,17.207-4.672,25.083,3.622,8.45,36.082,13.011,39.7s8.875-2.718,8.864-12.358,1.464-16.749,11.524-13.664,11.975,28.264.488,37.941.721,20.234,3.8,13.3c2.226-5.007,4.184-18.12,10.618-19.559,10.721-2.392,10.562,19.5,7.477,24.595-4.325,7.142-14.105,8.694-19.567,14.856-1.587,1.79-5.169,6.224-3.777,8.84,1.941,3.649,7.356-.254,9.345-1.946,4.473-3.8,10.663-16.725,16.964-8.143C600.042,2246.121,587.031,2261.829,553.766,2263.7Z" transform="translate(-499.641 -2151.74)"/><g class="c" transform="translate(34.541 24.852)"><path class="d" d="M817.828,2454.046a.948.948,0,0,0,.8-.94c.007-.38.526-38.628-16.145-84.029a.826.826,0,0,0-1.033-.516.784.784,0,0,0-.478,1.014c16.568,45.121,16.054,83.133,16.047,83.51a.933.933,0,0,0,.789.96Z" transform="translate(-800.927 -2368.516)"/></g></g><path class="e" d="M689.913,2577c.624-3.914,8.109-5.031,11.125-5.6,1.749-.33,4.239-.671,5.137-2.478.944-1.9-.492-3.365-2.332-3.7-3.294-.6-6.839,1.491-9.9,2.443-3.289,1.023-6.7,1.5-9.962.092-2.6-1.126-5.263-3.8-5.829-6.618-1.566-7.794,6.242-7.346,11.331-6.251,2.469.531,7.324.932,7.759-2.557.463-3.712-4.26-5.584-7.178-5.695-3.813-.145-7.562.693-11.344.968-3.411.248-7.449-.124-8.4-4.049-.731-3.032.977-6.518,3.442-8.316,5.7-4.159,13.209,2.933,19.293,2.919,2.151-.005,5.7-1.584,6.3-3.893.6-2.353-2.453-3.938-4.128-4.8-4.967-2.544-27.78-5.8-19.608-15.65a13.935,13.935,0,0,1,9.238-4.651c6.051-.166,12.85,3.941,17.512,7.484a63.9,63.9,0,0,1,17.914,21.46c9.206,18.162,4.747,30.34,4.747,30.34-2.669,4.4-6.8,8.978-11.348,11.458-5.347,2.915-13.629,4.2-19.445,1.929C692.357,2581.1,689.526,2579.424,689.913,2577Z" transform="translate(-650.606 -2468.184)"/></g><path class="f" d="M1933.112,1719.4l-7.729.521a60.225,60.225,0,0,0-3.5-9.956l6.412-4.3a3.8,3.8,0,0,0,1-5.307l-7.479-11a3.878,3.878,0,0,0-5.345-1.069l-6.5,4.337a62.125,62.125,0,0,0-8.016-6.924l3.426-7.035a3.868,3.868,0,0,0-1.807-5.147l-12.041-5.925a3.849,3.849,0,0,0-5.175,1.722l-3.45,7.058a61.759,61.759,0,0,0-10.44-2.067l-.6-7.915a3.956,3.956,0,0,0-4.179-3.618l-13.458.794a3.814,3.814,0,0,0-3.613,4.089l.6,7.939a61.15,61.15,0,0,0-10.121,3.329l-4.539-6.618a4,4,0,0,0-5.471-1.094l-11.264,7.4a3.819,3.819,0,0,0-1.041,5.383l4.554,6.619a60.847,60.847,0,0,0-7.068,7.964l-7.287-3.52a3.974,3.974,0,0,0-5.3,1.762l-5.963,12.063a3.884,3.884,0,0,0,1.855,5.217l7.234,3.472a59.606,59.606,0,0,0-2.037,10.494l-8.01.54a3.9,3.9,0,0,0-3.676,4.16l1.02,13.443a3.969,3.969,0,0,0,4.266,3.613l7.944-.559a60.181,60.181,0,0,0,3.565,10.167l-6.536,4.362a3.851,3.851,0,0,0-1.048,5.417l7.722,11.12a4.006,4.006,0,0,0,5.509,1.018l6.484-4.352a62.12,62.12,0,0,0,8.274,7.022l-3.389,6.933a3.852,3.852,0,0,0,1.843,5.184l12.264,5.776a3.968,3.968,0,0,0,5.249-1.833l3.344-6.868a61.818,61.818,0,0,0,10.693,1.949l.576,7.591a3.878,3.878,0,0,0,4.193,3.551l13.438-1.06a3.89,3.89,0,0,0,3.59-4.154l-.574-7.569a61.153,61.153,0,0,0,10.183-3.547l4.29,6.235a3.881,3.881,0,0,0,5.381.994l11.021-7.514a3.836,3.836,0,0,0,1.011-5.341l-4.3-6.273a60.834,60.834,0,0,0,6.945-8.071l6.877,3.3a3.845,3.845,0,0,0,5.128-1.791l5.739-11.914a3.835,3.835,0,0,0-1.8-5.115l-6.89-3.329a59.579,59.579,0,0,0,1.916-10.387l7.666-.54a3.8,3.8,0,0,0,3.529-4.084l-1-13.176A3.865,3.865,0,0,0,1933.112,1719.4Zm-69.667-23.676a39.558,39.558,0,0,1,42.061,36.215,38.9,38.9,0,0,1-36.155,41.607,39.541,39.541,0,0,1-42.49-36.185A38.889,38.889,0,0,1,1863.445,1695.727Z" transform="translate(-1184.68 -1013.632)"/><path class="f" d="M2206.931,896.694l-4.249.287a33.088,33.088,0,0,0-1.923-5.474l3.525-2.366a2.091,2.091,0,0,0,.552-2.918l-4.111-6.049a2.132,2.132,0,0,0-2.939-.588l-3.572,2.384a34.155,34.155,0,0,0-4.407-3.807l1.884-3.868a2.126,2.126,0,0,0-.993-2.829l-6.619-3.257a2.116,2.116,0,0,0-2.845.946l-1.9,3.88a33.966,33.966,0,0,0-5.74-1.136l-.33-4.351a2.175,2.175,0,0,0-2.3-1.989l-7.4.436a2.1,2.1,0,0,0-1.986,2.248l.331,4.364a33.637,33.637,0,0,0-5.564,1.83l-2.5-3.638a2.2,2.2,0,0,0-3.008-.6l-6.193,4.067a2.1,2.1,0,0,0-.572,2.959l2.5,3.639a33.454,33.454,0,0,0-3.886,4.378l-4.007-1.935a2.184,2.184,0,0,0-2.912.969l-3.278,6.632a2.135,2.135,0,0,0,1.02,2.868l3.977,1.909a32.781,32.781,0,0,0-1.12,5.769l-4.4.3a2.146,2.146,0,0,0-2.021,2.287l.561,7.39a2.182,2.182,0,0,0,2.345,1.986l4.368-.307a33.09,33.09,0,0,0,1.96,5.589l-3.593,2.4a2.118,2.118,0,0,0-.576,2.978l4.245,6.114a2.2,2.2,0,0,0,3.028.559l3.565-2.392a34.174,34.174,0,0,0,4.549,3.861l-1.863,3.811a2.118,2.118,0,0,0,1.013,2.85l6.742,3.175a2.182,2.182,0,0,0,2.886-1.008l1.839-3.776a33.971,33.971,0,0,0,5.878,1.072l.317,4.174a2.132,2.132,0,0,0,2.305,1.952l7.388-.583a2.139,2.139,0,0,0,1.973-2.284l-.316-4.161a33.627,33.627,0,0,0,5.6-1.95l2.359,3.428a2.134,2.134,0,0,0,2.959.547l6.059-4.131a2.109,2.109,0,0,0,.556-2.936l-2.365-3.448a33.439,33.439,0,0,0,3.818-4.437l3.781,1.815a2.114,2.114,0,0,0,2.819-.985l3.155-6.55a2.109,2.109,0,0,0-.987-2.812l-3.788-1.83a32.791,32.791,0,0,0,1.053-5.71l4.214-.3a2.09,2.09,0,0,0,1.94-2.245l-.55-7.244A2.126,2.126,0,0,0,2206.931,896.694Zm-38.3-13.016a21.748,21.748,0,0,1,23.124,19.91,21.388,21.388,0,0,1-19.877,22.875,21.739,21.739,0,0,1-23.36-19.893A21.38,21.38,0,0,1,2168.63,883.677Z" transform="translate(-1482.924 -307.819)"/><g transform="translate(698.415 612.072)"><path class="g" d="M2777.175,3050.45c2.323,1.877,2.454,3.212,2.379,3.862-.121,1.048-.911,1.455-2.8,3.433-2.557,2.676-2.166,3.034-3.469,4-2.874,2.136-6.939,1.994-7.184,1.268-.172-.51,1.666-.926,3.759-3.349a13.185,13.185,0,0,0,2.759-5.1,12.249,12.249,0,0,0,.416-2.911Z" transform="translate(-2744.549 -2854.299)"/><path class="h" d="M2794.929,2978.158l4.574,7.971c1.1.488,2.155.241,3.132-1.18l-1.785-9.69Z" transform="translate(-2770.083 -2787.728)"/><path class="i" d="M2643.006,2095.361a95.974,95.974,0,0,0-13.148,41.674,94.632,94.632,0,0,0,5.492,39.654,118.593,118.593,0,0,0,14.384,26.321c2.614-1.093,4.153-2.808,6.767-3.9-.393-1.423-1.6-6.119-2.368-8.917-.591-2.167-1.681-6.178-1.905-7.035-1.877-7.177-.4-12.562-.912-21.439-.6-10.352-2.974-9.149-2.617-15.364.533-9.28,5.791-11.447,11.828-24.879,4.132-9.194,8.472-18.851,4.483-24.131C2659.99,2090.7,2644.711,2094.876,2643.006,2095.361Z" transform="translate(-2623.705 -2007.165)"/><path class="j" d="M2903.109,3110.263c1.394.886,2.235,2.992,1.6,4.319-.624,1.3-2.215.892-6.078,2.079-4.138,1.272-4.957,2.557-8.008,2.554-1.233,0-3.467-.213-3.654-1.042-.131-.583.817-1.163,3.94-3.261,4.434-2.979,4.388-3.062,5.378-3.519C2898.773,3110.246,2901.27,3109.093,2903.109,3110.263Z" transform="translate(-2851.561 -2906.822)"/><path class="k" d="M2970.1,3058.974l1.7,7.759a4.2,4.2,0,0,0,4.35,0l-.625-7.759Z" transform="translate(-2925.176 -2861.846)"/><path class="l" d="M2719.893,2097.344c-5.021-6.646-20.3-2.467-22.005-1.982a96.825,96.825,0,0,0-6.3,12.7c5.415-1.065,7.766-.1,8.861,1.186,4.251,4.985-9.059,15.991-6.322,32.692,1.071,6.532,3.864,9.472,3.353,17.449-.38,5.937-2.224,8.942-3.5,13.288a35.042,35.042,0,0,0-1.386,9.69,121.873,121.873,0,0,0,12.026,20.64c2.614-1.093,4.153-2.808,6.767-3.9-.393-1.423-1.6-6.12-2.368-8.917-.591-2.167-1.681-6.178-1.905-7.035-1.877-7.177-.4-12.562-.912-21.439-.6-10.352-2.974-9.149-2.617-15.364.533-9.28,5.791-11.447,11.828-24.879C2719.542,2112.28,2723.882,2102.623,2719.893,2097.344Z" transform="translate(-2678.587 -2007.165)"/><path class="m" d="M2849.716,2096.191a389.34,389.34,0,0,0,12.477,107.969,6.922,6.922,0,0,0,4.623.786,6.783,6.783,0,0,0,3.214-1.586,62.921,62.921,0,0,1-.48-12.637c.578-9.148,2.732-11.012,3.657-20.479a78.528,78.528,0,0,0-.458-18.229c-1.274-9.68-3-9.879-3.039-15.676-.053-8.927,4.028-12.123,6.272-20.628,1.5-5.674,2.29-14.144-1.474-25.759Z" transform="translate(-2818.482 -2003.918)"/><path class="n" d="M2600.609,1541.887a42.288,42.288,0,0,0-11.18,9.028c-9.062,10.378-14.667,27.455-8.842,33.042,3.963,3.8,13.361,2.65,16.6-1.862,2.381-3.318.667-7.393-.155-13.186C2596.146,1562.677,2596.178,1553.638,2600.609,1541.887Z" transform="translate(-2578.208 -1518.685)"/><path class="o" d="M2772.894,1591.065c-3.355-44.231-14.054-62.337-13.119-67.712-1.347-.968-6.667-2.507-18.718-.921a19.982,19.982,0,0,0-6.5,3.979,19.405,19.405,0,0,0-1.5,1.592c8.466,1.6,17.091,6.42,20.2,13.25,5.378,13.06-4.609,27.657,0,39.181a54.347,54.347,0,0,0,10.924,16.442C2769.462,1595.557,2773.087,1593.614,2772.894,1591.065Z" transform="translate(-2715.301 -1500.855)"/><path class="p" d="M2956.35,2089.953l-7.258,1.826a38.843,38.843,0,0,1,1.019,18.328c-2.017,10.256-7.231,12.506-8,21.754-.69,8.32,3.238,10.017,5.119,21.114,1.927,11.372-.99,16.721-1.6,26.232a59.573,59.573,0,0,0,4.221,25.39,6.906,6.906,0,0,0,2.017-1.237,62.885,62.885,0,0,1-.48-12.637c.578-9.148,2.732-11.012,3.656-20.479a78.532,78.532,0,0,0-.458-18.229c-1.274-9.68-3-9.879-3.039-15.676-.053-8.927,4.028-12.123,6.272-20.628C2959.32,2110.038,2960.114,2101.568,2956.35,2089.953Z" transform="translate(-2900.323 -2003.918)"/><path class="q" d="M2686.113,1526.411a23.583,23.583,0,0,0-5.077,7.2c-2.817,6.458.217,12,1.127,22.549,1,11.569-.414,30.843-3.669,37.747a1.645,1.645,0,0,0-.14.9c.88,6.673,46.775,5.161,46.1-3.746-3.355-44.231-14.054-62.337-13.119-67.712-1.346-.968-6.666-2.507-18.718-.921A19.985,19.985,0,0,0,2686.113,1526.411Z" transform="translate(-2666.861 -1500.855)"/><g transform="translate(22.782 0)"><path class="r" d="M2825.568,1430.837s2.964,9.3,3.924,10.422-3.852,4.046-7.542,2.726c-3.387-1.211,0-6.375,0-6.375Z" transform="translate(-2815.456 -1420.366)"/><path class="s" d="M2779.1,1347.8a5.817,5.817,0,0,1,.654-6.643c1.422-1.537,3.471-1.607,4.7-1.65,3.555-.123,7.88,1.705,9.164,5.071.761,1.995-1.542,5.826-1.91,6.518-.417.783-1.076,1.01-1.714,1.576-.885.785-2.273,2.035-4.542,4.129a14.571,14.571,0,0,0-.608-2.454,12.87,12.87,0,0,0-1.446-2.943C2781.742,1349.021,2780.2,1349.54,2779.1,1347.8Z" transform="translate(-2778.188 -1339.504)"/><path class="t" d="M2787.319,1404.569a7.894,7.894,0,0,1-7.207,2.94c-4.105-.6-3.964-9.9-1.169-11.656a5.226,5.226,0,0,1,4.115-.2c.827.305,1.085.68,2.445,1.152,1.255.436,1.628.323,1.989.68.451.447.725,1.474-.3,4.114a2.252,2.252,0,0,1,2.466-.593,1.414,1.414,0,0,1,.507.58C2790.655,1402.69,2789.581,1403.962,2787.319,1404.569Z" transform="translate(-2776.926 -1388.931)"/><path class="u" d="M2787.1,1462.262a5.044,5.044,0,0,0,2.4.575c.075,0,.156.03.162.07a1.9,1.9,0,0,1-1.907.395c-.632-.234-1.086-.886-.986-1.035C2786.81,1462.2,2786.956,1462.225,2787.1,1462.262Z" transform="translate(-2785.627 -1448.158)"/></g><path class="v" d="M2771.336,1777.894c-5.009,1.758-11.654,6.7-12.1,13.031-.685,9.724,13.8,15.059,11.867,21.873-.526,1.858-2.189,3.533-13.031,7.446-4.387,1.583-8.462,2.875-12.162,3.943,13.266,1.955,38.872-.568,38.366-7.237a256.616,256.616,0,0,0-6.017-40.051A18.623,18.623,0,0,0,2771.336,1777.894Z" transform="translate(-2726.685 -1726.739)"/><path class="w" d="M2830.146,1580.787c8.147,8.271,19.778,10.876,28.719,6.738,12.418-5.746,14.338-22.038,11.443-32.235-4.834-17.023-25.9-26.949-32.537-22.415-4.8,3.279-4.754,15.967.966,22.318,5.142,5.709,13.039,4.267,15.187,10.083,1.609,4.356-1.5,8.745-1.767,9.111-3.458,4.733-10.993,6.34-18.12,3.089Z" transform="translate(-2801.262 -1509.736)"/><path class="x" d="M2687.7,1807.751a5.448,5.448,0,0,1,4.514-3.459c1.66-.231,4.395.146,5.484,2.316a5.156,5.156,0,0,1-2.124,6.408,3.567,3.567,0,0,0-1.96-2.219c-1.913-.6-3.57,1.892-4.983,1.241C2687.506,1811.518,2687.214,1809.315,2687.7,1807.751Z" transform="translate(-2674.948 -1750.954)"/><path class="d" d="M2719.38,1844.349l6.269,1.09a1.739,1.739,0,0,0,2-2.079l-2.281-10.606a1.739,1.739,0,0,0-1.607-1.371l-7.506-.4a1.739,1.739,0,0,0-1.732,2.318l3.518,9.917A1.737,1.737,0,0,0,2719.38,1844.349Z" transform="translate(-2698.804 -1774.634)"/><path class="y" d="M2763.984,1899.378c-.514-3.693-2.071-4.659-2.635-4.934-.945-.46-1.41-.1-4.708-.155-2.946-.047-3.644-.349-4.017.155-.706.955.745,3.463,2.388,4.934a9.573,9.573,0,0,0,6.337,2.241Z" transform="translate(-2732.467 -1830.569)"/></g><g transform="translate(484.996 519.151)"><g transform="translate(0 0)"><g transform="translate(0 0)"><path class="z" d="M870.191,542.411,897.32,815.253a7,7,0,0,1-6.227,7.895l-132.18,11.071c-8.058.283-12.406-4.058-12.843-8.357l-29.393-288.8c-.442-4.338,3.584-8.178,11.724-8.012l133.981,5.649A8.623,8.623,0,0,1,870.191,542.411Z" transform="translate(-716.643 -529.034)"/><path class="aa" d="M917.572,542.02l27.243,274.249a7.04,7.04,0,0,1-6.252,7.937L801.525,834.251a8.154,8.154,0,0,1-8.588-7.287L763.412,536.628A6.736,6.736,0,0,1,770.52,529l139.21,5.265A8.664,8.664,0,0,1,917.572,542.02Z" transform="translate(-758.014 -528.992)"/><path class="ab" d="M965.37,686.819l25.267,254.188a6.565,6.565,0,0,1-5.852,7.4l-128.893,9.162a7.607,7.607,0,0,1-7.986-6.8L820.656,682.6a6.308,6.308,0,0,1,6.6-7.146l130.783,4.162A8.036,8.036,0,0,1,965.37,686.819Z" transform="translate(-808.698 -658.658)"/><path class="d" d="M1438.52,606.752a2.235,2.235,0,0,1-2.314,2.569,3.1,3.1,0,0,1-2.854-2.748,2.235,2.235,0,0,1,2.32-2.57A3.1,3.1,0,0,1,1438.52,606.752Z" transform="translate(-1351.172 -595.402)"/></g><g class="ac" transform="translate(5.357)"><path class="a" d="M832.674,674.209c-13.62-40.241,10.086-60.514-3.339-97.787-7.3-20.28-21.925-35.387-38.01-46.637L770.52,529a6.737,6.737,0,0,0-7.108,7.631l29.525,290.336a8.154,8.154,0,0,0,8.588,7.287l118.313-8.673c-.372-30.315-8.073-51.891-16.639-67.228C879.661,716.2,846.777,715.878,832.674,674.209Z" transform="translate(-763.371 -528.992)"/></g></g><g transform="translate(53.466 48.709)"><path class="ad" d="M1282.156,953.859l61.212,50.708c-52.638,23.67-46.512,96.02-99.15,119.69l-61.212-50.708C1235.644,1049.879,1229.518,977.529,1282.156,953.859Z" transform="translate(-1183.006 -953.859)"/><path class="d" d="M1412.743,1055.323c-44.654,25.162-42.971,88.709-87.625,113.87l-52.1-43.158c44.654-25.162,42.971-88.709,87.625-113.871Z" transform="translate(-1262.7 -1005.481)"/><g transform="translate(0 110.609)"><path class="ae" d="M1202.585,1921.18c.229.19.431.37.639.57l.053.052a9.752,9.752,0,0,1,3.215,7.939,8.813,8.813,0,0,1-4.028,6.429,12.656,12.656,0,0,1-1.163.7,16.569,16.569,0,0,1-5.221,1.694l-13.073-10.83a70.151,70.151,0,0,0,14.935-9.081A13.539,13.539,0,0,1,1202.585,1921.18Z" transform="translate(-1183.006 -1918.655)"/><path class="af" d="M1625.308,2299.052a12.116,12.116,0,0,1,3.185,4.072,70.143,70.143,0,0,1-14.865,9.026l-13.377-11.082a17.294,17.294,0,0,1,3.895-2.792c.411-.221.83-.429,1.256-.625,6.354-2.914,14.144-2.913,19.34.956l.061.045C1624.973,2298.779,1625.149,2298.92,1625.308,2299.052Z" transform="translate(-1552.416 -2252.362)"/></g><g transform="translate(84.216)"><path class="ag" d="M1932.52,953.859l13.073,10.83a17.288,17.288,0,0,1-3.9,2.792c-.411.221-.83.429-1.256.625-6.289,2.884-13.964,2.929-19.16-.822-.243-.174-.441-.324-.67-.514a10.64,10.64,0,0,1-3.026-3.829A70.159,70.159,0,0,1,1932.52,953.859Z" transform="translate(-1917.585 -953.859)"/><path class="ah" d="M2384.583,1299.5l13.377,11.082a70.152,70.152,0,0,0-14.865,9.026,15.478,15.478,0,0,1-4.941-2.659c-.159-.132-.329-.278-.481-.419l-.055-.05a10.03,10.03,0,0,1-3.459-7.476,8.715,8.715,0,0,1,4.059-7.093,12.554,12.554,0,0,1,1.154-.709A16.53,16.53,0,0,1,2384.583,1299.5Z" transform="translate(-2321.813 -1259.876)"/></g><path class="ai" d="M1733.2,1476.249c9.771,8.094,12.658,23.9,7.028,35.788s-18.656,14.511-28.515,6.345c-9.771-8.094-12.658-23.9-7.028-35.788S1723.34,1468.082,1733.2,1476.249Z" transform="translate(-1642.35 -1412.179)"/><g transform="translate(67.343 70.773)"><path class="d" d="M1786.759,1578.666c-1.72.4-3.5,1.572-5.555,3.967l-4.345-3.6.17-.3a14.484,14.484,0,0,1,1.891-2.577,12.158,12.158,0,0,1,1.246-1.165,1.2,1.2,0,0,0,.012-1.716l-1.792-1.8a.868.868,0,0,0-1.266-.031c-.588.591-1.166,1.255-1.7,1.906a26.484,26.484,0,0,0-2.012,2.828l-1.519-1.258a.843.843,0,0,0-1.321.182,1.2,1.2,0,0,0,.288,1.523l1.551,1.285a13.165,13.165,0,0,0-1.521,7.12,7.915,7.915,0,0,0,2.94,5.41,5.645,5.645,0,0,0,5.065,1.452q2.552-.614,5.288-3.9l4.827,4.021a19.388,19.388,0,0,1-2.138,3.028,17.547,17.547,0,0,1-1.631,1.651,1.3,1.3,0,0,0,0,1.823l2.317,2.289a.858.858,0,0,0,1.278-.012,22.046,22.046,0,0,0,1.657-2.042,30.262,30.262,0,0,0,2.037-3.286l.233-.437,1.653,1.369a.781.781,0,0,0,1.278-.212l.008-.016a1.292,1.292,0,0,0-.333-1.544l-1.675-1.388a15.754,15.754,0,0,0,1.3-5.419,11.122,11.122,0,0,0-.106-2.167,8.679,8.679,0,0,0-3.135-5.591A5.579,5.579,0,0,0,1786.759,1578.666Zm-1.281,7.764a4.326,4.326,0,0,1,1.981-1.323,2.086,2.086,0,0,1,1.785.536,3.132,3.132,0,0,1,1.14,1.964,4.143,4.143,0,0,1-.472,2.5Zm-7.339-1.034a1.775,1.775,0,0,1-1.6-.443,2.7,2.7,0,0,1-.974-1.762,4.919,4.919,0,0,1,.365-2.367l3.99,3.305A3.65,3.65,0,0,1,1778.138,1585.4Z" transform="translate(-1770.413 -1571.183)"/></g><path class="aj" d="M1353.163,1383.693l.2.165c-52.638,23.67-46.512,96.02-99.15,119.69l-59.918-49.636a76.733,76.733,0,0,1,9.425-.434,71.751,71.751,0,0,1,12.766,1.368,86.521,86.521,0,0,1,16.983,5.314c30.763,13.054,39.6,2.063,44.935-16.5,1.464-4.921,2.729-10.338,4.262-15.846.676-2.422,1.43-4.863,2.27-7.286a89.512,89.512,0,0,1,6.028-13.773c7.835-14.865,21.588-24.925,38.6-24.476a47.849,47.849,0,0,1,9.48,1.1,24.685,24.685,0,0,0,2.617.414A65.818,65.818,0,0,0,1353.163,1383.693Z" transform="translate(-1193 -1333.15)"/></g><g transform="translate(45.951 80.323)"><path class="ak" d="M1233.812,1276.527a3.378,3.378,0,0,1,2.1,4.3l-42.287,103.981a4.276,4.276,0,0,1-5.142,2.257L1119.6,1358.42c-1.844-.767-2.609-3.44-1.85-5.169l42.642-102.347a3.5,3.5,0,0,1,4.525-1.633Z" transform="translate(-1117.455 -1246.778)"/><path class="al" d="M1236.3,1257.305a3.4,3.4,0,0,1,2.114,4.334l-43.071,105.306a3.609,3.609,0,0,1-4.773,1.8l-69.32-28.808a3.487,3.487,0,0,1-1.984-4.568l43.1-103.834a3.53,3.53,0,0,1,4.558-1.651Z" transform="translate(-1118.815 -1229.616)"/><g class="am" transform="translate(50.884 30.223)"><path class="a" d="M1575.866,2073.634l-7.3,17.09a1.664,1.664,0,0,1-2.019.908l-4.3-1.444a1.369,1.369,0,0,1-.831-1.866l7.35-17.081a1.649,1.649,0,0,1,2-.889l4.266,1.438A1.358,1.358,0,0,1,1575.866,2073.634Z" transform="translate(-1561.296 -2004.118)"/><path class="a" d="M1661.218,1877.734l-7.163,16.777a1.638,1.638,0,0,1-1.994.885l-4.261-1.437a1.352,1.352,0,0,1-.828-1.838l7.215-16.768a1.623,1.623,0,0,1,1.979-.866l4.225,1.431A1.342,1.342,0,0,1,1661.218,1877.734Z" transform="translate(-1637.046 -1830.707)"/><path class="a" d="M1745.01,1685.39l-7.034,16.473a1.613,1.613,0,0,1-1.97.863l-4.219-1.43a1.336,1.336,0,0,1-.825-1.811l7.084-16.464a1.6,1.6,0,0,1,1.955-.844l4.184,1.424A1.327,1.327,0,0,1,1745.01,1685.39Z" transform="translate(-1711.411 -1660.444)"/><path class="a" d="M1827.285,1496.5l-6.907,16.177a1.589,1.589,0,0,1-1.946.841l-4.178-1.423a1.321,1.321,0,0,1-.822-1.784l6.957-16.169a1.575,1.575,0,0,1,1.932-.823l4.144,1.417A1.311,1.311,0,0,1,1827.285,1496.5Z" transform="translate(-1784.428 -1493.242)"/></g><g transform="translate(26.867 93.298)"><path class="an" d="M1369.782,2051.021l-3.441,8.1a3.059,3.059,0,0,1-4.009,1.5l-8.6-3.554a2.963,2.963,0,0,1-1.711-3.854l3.472-8.072a3.057,3.057,0,0,1,3.991-1.481l8.565,3.52A2.965,2.965,0,0,1,1369.782,2051.021Z" transform="translate(-1351.803 -2043.416)"/><path class="ao" d="M1377.1,2059.259l-2.958,6.961a2.819,2.819,0,0,1-3.7,1.38l-7.382-3.051a2.731,2.731,0,0,1-1.58-3.557l2.981-6.935a2.816,2.816,0,0,1,3.685-1.368l7.359,3.025A2.732,2.732,0,0,1,1377.1,2059.259Zm-15.253,1.885a2.352,2.352,0,0,0,1.361,3.062l7.381,3.05a2.427,2.427,0,0,0,3.185-1.188l2.958-6.96a2.352,2.352,0,0,0-1.373-3.052L1368,2053.03a2.425,2.425,0,0,0-3.173,1.178Z" transform="translate(-1360.19 -2051.424)"/><g transform="translate(3.675 1.735)"><path class="a" d="M1385.46,2070.725l4.937-11.521Z" transform="translate(-1385.277 -2059.129)"/><path class="ap" d="M1389.164,2058.7l-4.936,11.521-.367-.152,4.937-11.52Z" transform="translate(-1383.861 -2058.549)"/><g transform="translate(2.775 1.137)"><path class="a" d="M1409.664,2080.656l4.928-11.53Z" transform="translate(-1409.481 -2069.051)"/><path class="aq" d="M1413.357,2068.621l-4.927,11.531-.367-.152,4.928-11.53Z" transform="translate(-1408.063 -2068.47)"/></g><g transform="translate(5.552 2.276)"><path class="a" d="M1433.887,2090.594l4.919-11.54Z" transform="translate(-1433.703 -2078.98)"/><path class="ar" d="M1437.572,2078.55l-4.919,11.54-.368-.152,4.92-11.539Z" transform="translate(-1432.285 -2078.4)"/></g></g><g transform="translate(3.281 3.959)"><path class="as" d="M1393.277,2084.51l-1.373,3.226a1.7,1.7,0,0,1-2.232.832l-6.443-2.659a1.651,1.651,0,0,1-.955-2.145l1.381-3.217a1.7,1.7,0,0,1,2.227-.828l6.432,2.648A1.654,1.654,0,0,1,1393.277,2084.51Z" transform="translate(-1381.954 -2079.395)"/><path class="at" d="M1391.932,2083.141l-1.373,3.227a1.9,1.9,0,0,1-2.489.928l-6.443-2.66a1.837,1.837,0,0,1-1.065-2.392l1.381-3.217a1.9,1.9,0,0,1,2.483-.923l6.432,2.648A1.84,1.84,0,0,1,1391.932,2083.141Zm-11-.746a1.459,1.459,0,0,0,.845,1.9l6.443,2.659a1.506,1.506,0,0,0,1.975-.736l1.373-3.226a1.461,1.461,0,0,0-.852-1.9l-6.432-2.648a1.506,1.506,0,0,0-1.971.732Z" transform="translate(-1380.425 -2077.95)"/></g></g><path class="au" d="M1528.856,1504.708c-2.511,9.138-4.736,14.7-9.5,20.04a43.7,43.7,0,0,1-19.8,12.245l27.948,11.615a3.609,3.609,0,0,0,4.773-1.8l43.071-105.307a3.4,3.4,0,0,0-2.114-4.334l-11.107-4.4c-16.937,11.543-23.329,23.318-25.992,32.145C1532.917,1475.574,1534.822,1483,1528.856,1504.708Z" transform="translate(-1455.75 -1409.474)"/><g class="av" transform="translate(65.448 52.025)"><path class="aw" d="M1703.82,2080.189l-9.727,23.572a.918.918,0,0,1-1.21.455l-3.955-1.635a.915.915,0,0,1-.534-1.175l9.763-23.534a.912.912,0,0,1,1.2-.447l3.927,1.606A.9.9,0,0,1,1703.82,2080.189Z" transform="translate(-1688.332 -2032.187)"/><path class="ax" d="M1842.921,1686.193l-12.943,31.357a.921.921,0,0,1-1.209.457l-3.955-1.609a.907.907,0,0,1-.536-1.166l12.99-31.307a.914.914,0,0,1,1.194-.448l3.921,1.573A.891.891,0,0,1,1842.921,1686.193Z" transform="translate(-1808.638 -1683.406)"/></g><path class="ay" d="M1537.452,1372.948a9.235,9.235,0,0,1,4.917,12.274,9.47,9.47,0,0,1-12.141,5.283,9.239,9.239,0,0,1-4.957-12.114A9.47,9.47,0,0,1,1537.452,1372.948Z" transform="translate(-1477.894 -1355.949)"/><g class="az" transform="translate(36.201 82.157)"><path class="a" d="M1459.475,2011.567a1.515,1.515,0,0,1-.819,1.962,1.476,1.476,0,0,1-1.955-.8,1.515,1.515,0,0,1,.835-1.955A1.477,1.477,0,0,1,1459.475,2011.567Z" transform="translate(-1453.914 -2003.273)"/><path class="a" d="M1446.018,1952.417a.54.54,0,0,1-.294.3.565.565,0,0,1-.735-.3,8.553,8.553,0,0,0-11-4.493.563.563,0,0,1-.732-.3.549.549,0,0,1,.323-.712,9.7,9.7,0,0,1,12.43,5.075A.554.554,0,0,1,1446.018,1952.417Z" transform="translate(-1433.218 -1946.241)"/><path class="a" d="M1450.3,1970.033a.551.551,0,0,1-.3.306.566.566,0,0,1-.739-.3,6.269,6.269,0,0,0-8.117-3.317.564.564,0,0,1-.737-.3.557.557,0,0,1,.323-.722,7.411,7.411,0,0,1,9.564,3.907A.56.56,0,0,1,1450.3,1970.033Z" transform="translate(-1439.553 -1962.994)"/><path class="a" d="M1454.649,1987.91a.566.566,0,0,1-1.048,0,3.987,3.987,0,0,0-5.2-2.125.56.56,0,1,1-.42-1.037,5.154,5.154,0,0,1,3.905,0,5.04,5.04,0,0,1,2.757,2.726A.566.566,0,0,1,1454.649,1987.91Z" transform="translate(-1445.971 -1979.996)"/></g></g><g transform="translate(39.327 121.364)"><path class="ba" d="M1129.205,1639.487c0,18.812-14.71,33.61-33.51,33.033-19.566-.6-36.021-17.5-36.021-37.72s16.455-34.9,36.021-32.863C1114.5,1603.894,1129.205,1620.675,1129.205,1639.487Z" transform="translate(-1059.674 -1600.125)"/><path class="bb" d="M1173.518,1625.339c0,18.812-14.71,33.61-33.51,33.033-19.566-.6-36.021-17.5-36.021-37.72s16.455-34.9,36.021-32.863C1158.809,1589.745,1173.518,1606.527,1173.518,1625.339Z" transform="translate(-1098.907 -1587.599)"/><path class="bc" d="M1185.167,1637.765c0,17.984-14.074,32.106-32.034,31.525-18.657-.6-34.322-16.731-34.322-36s15.665-33.282,34.322-31.37C1171.093,1603.762,1185.167,1619.782,1185.167,1637.765Z" transform="translate(-1112.031 -1600.125)"/><path class="bd" d="M1193.457,1646.638c0,17.39-13.619,31.03-30.977,30.447-18.009-.6-33.112-16.18-33.112-34.768s15.1-32.127,33.112-30.3C1179.838,1613.772,1193.457,1629.248,1193.457,1646.638Z" transform="translate(-1121.378 -1609.069)"/><g transform="translate(25.033 8.853)"><path class="be" d="M1293.92,1664.831h0a1.893,1.893,0,0,1,1.672,1.857v3.2a47.037,47.037,0,0,1,5.549.963q2.049.481,4.07,1.146a1.872,1.872,0,0,1,1.275,1.921l-.393,4.015a1.505,1.505,0,0,1-2.149,1.249,23.163,23.163,0,0,0-2.73-1.017,24.76,24.76,0,0,0-5.15-.962l-.472-.039v9.169c4.819,1.348,8.358,3.162,10.645,5.443a11.508,11.508,0,0,1,3.41,8.5,11.187,11.187,0,0,1-3.771,8.833q-3.8,3.345-10.668,3.756v3.534a1.607,1.607,0,0,1-1.673,1.633h-.03a1.776,1.776,0,0,1-1.679-1.772v-3.486l-.745-.034a48.9,48.9,0,0,1-6.18-.659,40.193,40.193,0,0,1-4.271-.982,1.84,1.84,0,0,1-1.34-1.9l.463-5.161a1.632,1.632,0,0,1,2.282-1.346,33.538,33.538,0,0,0,3.756,1.233,32.919,32.919,0,0,0,6.005,1l.03-10.2q-6.938-1.717-10.364-5.085a11.644,11.644,0,0,1-3.433-8.654,10.117,10.117,0,0,1,3.722-8.405c2.465-1.958,5.97-2.932,10.491-2.93v-3.273A1.512,1.512,0,0,1,1293.92,1664.831Zm-1.677,12.24a5.649,5.649,0,0,0-3.342,1.178,3.436,3.436,0,0,0-1.2,2.753,3.7,3.7,0,0,0,1.109,2.735,7.861,7.861,0,0,0,3.432,1.751Zm2.965,18.47v9.354a5.174,5.174,0,0,0,3.578-1.112,4,4,0,0,0,1.245-3.149,4.3,4.3,0,0,0-1.157-3.078A8.492,8.492,0,0,0,1295.208,1695.54Z" transform="translate(-1278.03 -1664.823)"/></g><path class="bf" d="M1156.874,1652.208c1.047-10.337,10.547-14.713,9.307-24.222-.764-5.86-5.206-10.8-10.161-14.656-15.03,1.576-26.652,14.021-26.652,30.3,0,18.588,15.1,34.163,33.111,34.768a31.254,31.254,0,0,0,5.117-.25C1160.444,1671.03,1155.975,1661.089,1156.874,1652.208Z" transform="translate(-1121.378 -1610.381)"/></g><g transform="translate(44.102 59.229)"><path class="ba" d="M1148.157,1080.566c0,12.67-9.907,22.637-22.57,22.248-13.178-.4-24.261-11.786-24.261-25.405s11.083-23.506,24.261-22.134C1138.25,1056.593,1148.157,1067.9,1148.157,1080.566Z" transform="translate(-1101.327 -1054.055)"/><path class="bb" d="M1178,1071.037c0,12.67-9.907,22.637-22.57,22.248-13.178-.4-24.261-11.786-24.261-25.405s11.083-23.506,24.261-22.134C1168.1,1047.064,1178,1058.367,1178,1071.037Z" transform="translate(-1127.75 -1045.619)"/><path class="bc" d="M1185.848,1079.407c0,12.112-9.479,21.624-21.576,21.232-12.566-.407-23.116-11.268-23.116-24.245s10.55-22.416,23.116-21.128C1176.369,1056.5,1185.848,1067.295,1185.848,1079.407Z" transform="translate(-1136.59 -1054.056)"/><path class="bd" d="M1191.432,1085.383c0,11.713-9.172,20.9-20.864,20.507-12.129-.407-22.3-10.9-22.3-23.417s10.172-21.638,22.3-20.41C1182.26,1063.247,1191.432,1073.671,1191.432,1085.383Z" transform="translate(-1142.885 -1060.08)"/><g transform="translate(16.86 5.963)"><path class="be" d="M1259.1,1097.636h0a1.275,1.275,0,0,1,1.126,1.251v2.156a31.711,31.711,0,0,1,3.737.648q1.38.324,2.741.772a1.261,1.261,0,0,1,.859,1.294l-.265,2.7a1.014,1.014,0,0,1-1.447.841,15.644,15.644,0,0,0-1.839-.685,16.668,16.668,0,0,0-3.468-.648l-.318-.026v6.176a16.223,16.223,0,0,1,7.169,3.666,7.75,7.75,0,0,1,2.3,5.723,7.535,7.535,0,0,1-2.54,5.949,11.589,11.589,0,0,1-7.185,2.53v2.38a1.083,1.083,0,0,1-1.127,1.1h-.02a1.2,1.2,0,0,1-1.131-1.193v-2.348l-.5-.023a32.953,32.953,0,0,1-4.162-.444,27.108,27.108,0,0,1-2.876-.661,1.24,1.24,0,0,1-.9-1.282l.312-3.476a1.1,1.1,0,0,1,1.537-.907,22.538,22.538,0,0,0,2.53.83,22.147,22.147,0,0,0,4.045.676l.02-6.87a14.881,14.881,0,0,1-6.98-3.425,7.843,7.843,0,0,1-2.312-5.828,6.814,6.814,0,0,1,2.507-5.661q2.491-1.978,7.066-1.973v-2.2A1.018,1.018,0,0,1,1259.1,1097.636Zm-1.13,8.244a3.805,3.805,0,0,0-2.251.794,2.315,2.315,0,0,0-.808,1.854,2.489,2.489,0,0,0,.747,1.842,5.3,5.3,0,0,0,2.312,1.179Zm2,12.44v6.3a3.486,3.486,0,0,0,2.409-.749,2.7,2.7,0,0,0,.839-2.121,2.9,2.9,0,0,0-.779-2.073A5.721,5.721,0,0,0,1259.962,1118.319Z" transform="translate(-1248.393 -1097.631)"/></g><path class="bf" d="M1166.792,1089.134c.7-6.962,7.1-9.91,6.268-16.314-.515-3.947-3.506-7.274-6.844-9.871a20.058,20.058,0,0,0-17.95,20.406c0,12.519,10.172,23.009,22.3,23.417a21.052,21.052,0,0,0,3.447-.168C1169.2,1101.81,1166.187,1095.115,1166.792,1089.134Z" transform="translate(-1142.885 -1060.962)"/></g><g transform="translate(37.38 173.204)"><path class="bg" d="M1169.274,2047.189l7.552,88.172a7.592,7.592,0,0,1-1.945,5.941,7.479,7.479,0,0,1-4.851,2.371l-111.241,9.368a8.244,8.244,0,0,1-9.085-7.447l-6.99-93.806a7.948,7.948,0,0,1,7.859-8.41l110.551-3.6A8.1,8.1,0,0,1,1169.274,2047.189Z" transform="translate(-1042.692 -2039.779)"/><path class="bh" d="M1175,2168.776a7.588,7.588,0,0,1-4.9,2.37l-111.281,9.369a8.278,8.278,0,0,1-9.122-7.446l-6.99-93.806a7.948,7.948,0,0,1,7.859-8.41l1.287-.042c.467,2.421,1.093,5.14,1.691,7.748.083.363.168.754.25,1.1.694,3.011,1.289,5.487,1.395,5.806,3.469,10.387,8.373,22.323,18.734,28.129,15.832,8.88,35.878,7.285,52.527,12.146,10.964,3.2,22.221,7.531,30.944,14.774a50.944,50.944,0,0,1,14.9,19.454A53.031,53.031,0,0,1,1175,2168.776Z" transform="translate(-1042.692 -2067.253)"/><g class="am" transform="translate(5.317 5.675)"><path class="d" d="M1202.19,2183.66h0l-3.832.237a.826.826,0,0,1-.857-.76.736.736,0,0,1,.72-.794l3.824-.253h0a6.23,6.23,0,0,0,1.905-.461.769.769,0,0,1,1,.462.845.845,0,0,1-.491,1.051A7.327,7.327,0,0,1,1202.19,2183.66Zm-9.838.651-6.031.494a.794.794,0,1,1-.131-1.583l6.031-.489a.792.792,0,1,1,.132,1.578Zm-12.1.99-6.1.5a.8.8,0,1,1-.13-1.592l6.1-.495a.8.8,0,1,1,.131,1.587Zm-12.244,1-6.177.506a.8.8,0,1,1-.129-1.6l6.176-.5a.8.8,0,1,1,.13,1.6Zm-12.391,1.014-6.251.511a.809.809,0,1,1-.128-1.611l6.251-.507a.806.806,0,1,1,.129,1.607Zm-12.541,1.026-6.328.518a.814.814,0,1,1-.127-1.622l6.327-.513a.811.811,0,1,1,.128,1.617Zm-12.694,1.039-6.405.524a.819.819,0,1,1-.126-1.632l6.4-.519a.816.816,0,1,1,.127,1.627Zm-12.849,1.052-6.484.531a.838.838,0,0,1-.921-.751.848.848,0,0,1,.8-.891l6.483-.525a.834.834,0,0,1,.915.749A.843.843,0,0,1,1117.534,2190.435Zm-13.007.874a.862.862,0,0,1-.175,0,10.829,10.829,0,0,1-6.281-2.92.8.8,0,0,1,.014-1.171.9.9,0,0,1,1.23,0,9.081,9.081,0,0,0,5.261,2.451.822.822,0,0,1,.746.917A.863.863,0,0,1,1104.527,2191.309Zm104.364-11.775a.788.788,0,0,1-.72-1.217,8.019,8.019,0,0,0,1.3-5.144.774.774,0,0,1,.713-.84.79.79,0,0,1,.845.72,9.566,9.566,0,0,1-1.553,6.133A.775.775,0,0,1,1208.891,2179.533Zm-112.9,3.523a.852.852,0,0,1-.942-.712c-.014-.122-.039-.228-.048-.351l-.443-5.916a.8.8,0,0,1,.733-.893.78.78,0,0,1,.856.755l.444,5.91c.008.1.106.194.117.3a.8.8,0,0,1-.73.906C1095.969,2183.054,1096,2183.056,1095.992,2183.057Zm114.161-12.143c-.43.032-.662-.289-.7-.719l-.5-5.911c-.036-.431.136-.806.566-.837s.661.291.7.721l.5,5.906C1210.756,2170.5,1210.583,2170.881,1210.154,2170.914Zm-115.206-.326a.782.782,0,0,1-.857-.757l-.468-6.241a.8.8,0,1,1,1.589-.126l.468,6.235A.791.791,0,0,1,1094.948,2170.588Zm114.2-11.487c-.43.03-.662-.293-.7-.723l-.5-5.9c-.036-.429.136-.8.566-.83s.661.3.7.725l.5,5.894C1209.751,2158.7,1209.579,2159.071,1209.149,2159.1Zm-115.137-.983a.788.788,0,0,1-.856-.762l-.467-6.227a.779.779,0,0,1,.733-.878.79.79,0,0,1,.855.764l.467,6.221A.783.783,0,0,1,1094.012,2158.117Zm114.134-10.805c-.43.027-.662-.3-.7-.727l-.5-5.887c-.036-.429.136-.8.566-.823s.661.3.7.729l.5,5.882C1208.748,2146.914,1208.576,2147.284,1208.147,2147.312Zm-115.068-1.638a.793.793,0,0,1-.856-.766l-.466-6.214a.772.772,0,0,1,.733-.87.8.8,0,0,1,.854.768l.466,6.208A.775.775,0,0,1,1093.079,2145.674Zm114.067-10.126c-.43.025-.661-.3-.7-.731l-.5-5.875c-.036-.428.137-.792.566-.816s.66.305.7.733l.5,5.87C1207.748,2135.156,1207.575,2135.522,1207.146,2135.547Zm-115-2.29a.8.8,0,0,1-.855-.77l-.464-6.2a.764.764,0,0,1,.732-.862.8.8,0,0,1,.854.772l.465,6.194A.768.768,0,0,1,1092.148,2133.257Zm114-9.45c-.429.022-.661-.307-.7-.735l-.5-5.863c-.036-.427.137-.788.566-.809s.66.31.7.737l.5,5.858C1206.749,2123.421,1206.577,2123.784,1206.148,2123.807Zm-114.929-2.94a.8.8,0,0,1-.854-.774l-.464-6.187a.756.756,0,0,1,.732-.854.806.806,0,0,1,.853.776l.464,6.181A.76.76,0,0,1,1091.218,2120.867Zm113.933-8.777c-.429.02-.661-.312-.7-.738l-.5-5.851c-.036-.426.137-.784.566-.8s.66.314.7.74l.5,5.845C1205.753,2111.711,1205.58,2112.07,1205.151,2112.09Zm-114.86-3.586a.809.809,0,0,1-.854-.779l-.348-4.645a9.585,9.585,0,0,1,.035-1.66.84.84,0,0,1,.953-.71.8.8,0,0,1,.7.909,8,8,0,0,0-.1,1.393l.348,4.641A.752.752,0,0,1,1090.291,2108.5Zm113.866-8.106c-.429.018-.661-.316-.7-.742l-.1-1.131a8.424,8.424,0,0,0-1.6-4.044.715.715,0,1,1,1.151-.836,9.793,9.793,0,0,1,1.707,4.824l.1,1.13C1204.758,2100.024,1204.586,2100.38,1204.157,2100.4Zm-111.421-3.494a.919.919,0,0,1-.657-.241.778.778,0,0,1-.031-1.149,10.576,10.576,0,0,1,6.2-2.825.894.894,0,0,1,.975.716.789.789,0,0,1-.727.894,8.86,8.86,0,0,0-5.193,2.371A.859.859,0,0,1,1092.737,2096.9Zm104.876-5.6a.8.8,0,0,1-.285-.042,8.37,8.37,0,0,0-2.961-.428l-2.659.1a.828.828,0,0,1-.85-.746.736.736,0,0,1,.72-.8l2.659-.094a9.976,9.976,0,0,1,3.53.513.807.807,0,0,1,.532.981A.735.735,0,0,1,1197.613,2091.3Zm-11.868-.16-6,.216a.834.834,0,0,1-.859-.75.744.744,0,0,1,.729-.806l6-.211a.83.83,0,0,1,.854.747A.74.74,0,0,1,1185.745,2091.14Zm-12.033.433-6.069.218a.84.84,0,0,1-.868-.754.751.751,0,0,1,.739-.811l6.069-.213a.837.837,0,0,1,.862.752A.748.748,0,0,1,1173.712,2091.573Zm-12.175.438-6.142.221a.846.846,0,0,1-.877-.758.76.76,0,0,1,.749-.816l6.141-.216a.844.844,0,0,1,.871.756A.756.756,0,0,1,1161.537,2092.01Zm-12.32.443-6.215.224a.854.854,0,0,1-.886-.763.767.767,0,0,1,.76-.821l6.215-.219a.85.85,0,0,1,.88.761A.763.763,0,0,1,1149.217,2092.453Zm-12.468.448-6.29.226a.86.86,0,0,1-.9-.767.775.775,0,0,1,.77-.826l6.289-.221a.857.857,0,0,1,.89.765A.772.772,0,0,1,1136.748,2092.9Zm-12.618.454-6.367.229a.867.867,0,0,1-.9-.772.783.783,0,0,1,.781-.832l6.366-.224a.864.864,0,0,1,.9.769A.78.78,0,0,1,1124.13,2093.355Zm-12.772.459-6.444.231a.874.874,0,0,1-.915-.776.792.792,0,0,1,.792-.837l6.444-.227a.871.871,0,0,1,.909.774A.788.788,0,0,1,1111.358,2093.814Z" transform="translate(-1089.068 -2089.279)"/></g><path class="bi" d="M1954.147,2313.412a2.384,2.384,0,0,0-2.2-.173l-22.621,9.678a8.385,8.385,0,0,0-5.166,8.224l.781,9.395a8.972,8.972,0,0,0,7.081,7.726l23.409,5.126a2.433,2.433,0,0,0,2.1-.525,2.388,2.388,0,0,0,.825-1.98l-3.057-35.567A2.461,2.461,0,0,0,1954.147,2313.412Z" transform="translate(-1823.083 -2281.719)"/><path class="bj" d="M1981.969,2468.2a4.607,4.607,0,0,1-4.349,5,4.9,4.9,0,0,1-5.164-4.439,4.606,4.606,0,0,1,4.371-4.994A4.9,4.9,0,0,1,1981.969,2468.2Z" transform="translate(-1865.85 -2415.153)"/></g></g></g></svg>