<svg width="24" height="24" viewBox="0 0 24 24" fill="none" xmlns="http://www.w3.org/2000/svg">
<mask id="mask0_7920_18647" style="mask-type:alpha" maskUnits="userSpaceOnUse" x="0" y="0" width="24" height="24">
<rect width="24" height="24" fill="#D9D9D9"/>
</mask>
<g mask="url(#mask0_7920_18647)">
<mask id="mask1_7920_18647" style="mask-type:alpha" maskUnits="userSpaceOnUse" x="0" y="0" width="24" height="24">
<rect width="24" height="24" fill="#D9D9D9"/>
</mask>
<g mask="url(#mask1_7920_18647)">
<path d="M5.75995 19.9638V18.8968C5.76754 18.8065 5.75534 18.7156 5.72421 18.6305C5.69307 18.5454 5.64374 18.4682 5.57967 18.4041C5.51559 18.34 5.43831 18.2907 5.35321 18.2595C5.26811 18.2284 5.17725 18.2162 5.08695 18.2238C4.96982 18.2196 4.8535 18.2448 4.74867 18.2972C4.64384 18.3497 4.55385 18.4276 4.48695 18.5238C4.42894 18.4269 4.34554 18.3478 4.24578 18.2949C4.14601 18.242 4.03368 18.2174 3.92095 18.2238C3.82337 18.219 3.72618 18.2393 3.63865 18.2827C3.55112 18.3261 3.47617 18.3912 3.42095 18.4718V18.2598H3.04895V19.9598H3.42095V19.0218C3.42095 18.7218 3.57995 18.5798 3.82795 18.5798C4.07595 18.5798 4.19995 18.7388 4.19995 19.0218V19.9598H4.57195V19.0218C4.56458 18.965 4.56975 18.9073 4.58709 18.8527C4.60443 18.7981 4.63353 18.748 4.67233 18.7058C4.71112 18.6637 4.75868 18.6306 4.81166 18.6088C4.86463 18.587 4.92174 18.5771 4.97895 18.5798C5.22695 18.5798 5.35095 18.7388 5.35095 19.0218V19.9598L5.75995 19.9638ZM11.2599 18.2638H10.6599V17.7508H10.2879V18.2638H9.95195V18.5998H10.2879V19.3788C10.2879 19.7678 10.4469 19.9978 10.8719 19.9978C11.0331 19.9945 11.191 19.952 11.332 19.8738L11.2259 19.5548C11.1305 19.6147 11.0197 19.6457 10.9069 19.6438C10.7299 19.6438 10.6589 19.5378 10.6589 19.3608V18.5968H11.259V18.2608L11.2599 18.2638ZM14.4099 18.2288C14.3209 18.227 14.2329 18.249 14.1552 18.2926C14.0775 18.3363 14.0128 18.3998 13.9679 18.4768V18.2648H13.5999V19.9648H13.9719V19.0088C13.9719 18.7258 14.096 18.5658 14.3259 18.5658C14.4037 18.5688 14.4808 18.5805 14.5559 18.6008L14.662 18.2468C14.5802 18.232 14.497 18.226 14.4139 18.2288H14.4099ZM9.64895 18.4058C9.4418 18.2792 9.20147 18.2175 8.95895 18.2288C8.53395 18.2288 8.25095 18.4408 8.25095 18.7778C8.25095 19.0608 8.46295 19.2198 8.83495 19.2778L9.01195 19.2958C9.20695 19.3308 9.31195 19.3838 9.31195 19.4728C9.31195 19.5968 9.16995 19.6848 8.92295 19.6848C8.7205 19.6859 8.52272 19.624 8.35695 19.5078L8.17995 19.7908C8.39431 19.9346 8.64788 20.0087 8.90595 20.0028C9.40595 20.0028 9.68495 19.7728 9.68495 19.4538C9.68495 19.1538 9.45495 18.9938 9.10095 18.9408L8.92395 18.9228C8.76495 18.9048 8.64095 18.8698 8.64095 18.7638C8.64095 18.6398 8.76495 18.5638 8.95995 18.5638C9.14516 18.572 9.32637 18.6204 9.49095 18.7058L9.64895 18.4058ZM19.5249 18.2288C19.4359 18.227 19.3479 18.249 19.2702 18.2926C19.1925 18.3363 19.1278 18.3998 19.083 18.4768V18.2648H18.7109V19.9648H19.083V19.0088C19.083 18.7258 19.207 18.5658 19.437 18.5658C19.5147 18.5688 19.5918 18.5805 19.667 18.6008L19.7729 18.2468C19.6912 18.232 19.608 18.226 19.5249 18.2288ZM14.7819 19.1138C14.7768 19.2327 14.7967 19.3513 14.8404 19.462C14.884 19.5727 14.9504 19.673 15.0352 19.7564C15.12 19.8398 15.2214 19.9045 15.3328 19.9462C15.4443 19.988 15.5632 20.0059 15.682 19.9988C15.8992 20.0101 16.1129 19.9406 16.2819 19.8038L16.1049 19.5038C15.9797 19.6051 15.824 19.6611 15.6629 19.6628C15.5919 19.665 15.5211 19.652 15.4555 19.6247C15.3898 19.5974 15.3307 19.5564 15.2822 19.5044C15.2336 19.4525 15.1967 19.3907 15.1739 19.3234C15.1511 19.256 15.1429 19.1846 15.1499 19.1138C15.1463 19.0438 15.1568 18.9737 15.1809 18.9078C15.2049 18.8419 15.242 18.7816 15.2898 18.7303C15.3377 18.6791 15.3954 18.638 15.4595 18.6096C15.5237 18.5811 15.5928 18.5659 15.6629 18.5648C15.824 18.5665 15.9797 18.6225 16.1049 18.7238L16.2819 18.4238C16.1136 18.2852 15.8998 18.2139 15.682 18.2238C15.5632 18.2167 15.4443 18.2346 15.3328 18.2764C15.2214 18.3181 15.12 18.3828 15.0352 18.4662C14.9504 18.5496 14.884 18.6499 14.8404 18.7606C14.7967 18.8713 14.7768 18.9899 14.7819 19.1088V19.1138ZM18.2159 19.1138V18.2638H17.8439V18.4758C17.7816 18.3951 17.7009 18.3305 17.6086 18.2873C17.5162 18.2442 17.4148 18.2238 17.3129 18.2278C17.0855 18.2386 16.871 18.3366 16.7138 18.5014C16.5567 18.6661 16.469 18.8851 16.469 19.1128C16.469 19.3405 16.5567 19.5594 16.7138 19.7242C16.871 19.889 17.0855 19.987 17.3129 19.9978C17.4153 20.0053 17.5178 19.9865 17.6108 19.943C17.7038 19.8996 17.784 19.8331 17.8439 19.7498V19.9618H18.2159V19.1138ZM16.853 19.1138C16.8579 19.0014 16.8996 18.8938 16.9717 18.8073C17.0437 18.7209 17.1421 18.6605 17.2518 18.6354C17.3614 18.6103 17.4763 18.6219 17.5787 18.6684C17.6812 18.7148 17.7656 18.7936 17.8189 18.8927C17.8723 18.9917 17.8917 19.1055 17.8742 19.2166C17.8566 19.3278 17.8031 19.4301 17.7218 19.5078C17.6405 19.5856 17.536 19.6346 17.4242 19.6472C17.3124 19.6599 17.1995 19.6355 17.103 19.5778C17.0233 19.5302 16.958 19.462 16.9139 19.3803C16.8699 19.2986 16.8489 19.2065 16.853 19.1138ZM12.411 18.2288C12.2947 18.23 12.1799 18.254 12.073 18.2996C11.966 18.3452 11.8691 18.4114 11.7878 18.4944C11.7065 18.5774 11.6423 18.6756 11.5989 18.7834C11.5555 18.8913 11.5338 19.0066 11.5349 19.1228C11.5361 19.239 11.5602 19.3539 11.6058 19.4608C11.6513 19.5677 11.7175 19.6646 11.8005 19.746C11.8835 19.8273 11.9818 19.8915 12.0896 19.9349C12.1974 19.9783 12.3127 20 12.429 19.9988C12.6786 20.004 12.9224 19.9228 13.1189 19.7688L12.9419 19.5038C12.7986 19.6149 12.6233 19.6769 12.4419 19.6808C12.3207 19.691 12.2001 19.6546 12.1048 19.5789C12.0095 19.5033 11.9466 19.3942 11.929 19.2738H13.186V19.1318C13.203 19.0199 13.1956 18.9057 13.1642 18.7969C13.1329 18.6882 13.0782 18.5876 13.0042 18.502C12.9301 18.4164 12.8384 18.3479 12.7352 18.3013C12.6321 18.2547 12.5201 18.2309 12.4069 18.2318L12.411 18.2288ZM12.411 18.5478C12.4657 18.5463 12.5201 18.5557 12.5711 18.5754C12.6222 18.5952 12.6688 18.6248 12.7083 18.6626C12.7479 18.7005 12.7795 18.7458 12.8014 18.7959C12.8233 18.8461 12.835 18.9001 12.8359 18.9548H11.9509C11.9613 18.8411 12.0147 18.7357 12.1002 18.6601C12.1857 18.5844 12.2969 18.5443 12.411 18.5478ZM21.632 19.1138V17.5918H21.2599V18.4768C21.1976 18.3961 21.1169 18.3315 21.0246 18.2883C20.9322 18.2452 20.8308 18.2248 20.729 18.2288C20.5015 18.2396 20.287 18.3376 20.1298 18.5024C19.9727 18.6672 19.885 18.8861 19.885 19.1138C19.885 19.3415 19.9727 19.5605 20.1298 19.7252C20.287 19.89 20.5015 19.988 20.729 19.9988C20.8313 20.0063 20.9338 19.9874 21.0268 19.944C21.1198 19.9006 21.2 19.8341 21.2599 19.7508V19.9628H21.632V19.1138ZM20.269 19.1138C20.2739 19.0014 20.3156 18.8938 20.3877 18.8073C20.4597 18.7209 20.5581 18.6605 20.6678 18.6354C20.7774 18.6103 20.8923 18.6219 20.9947 18.6684C21.0972 18.7148 21.1816 18.7936 21.2349 18.8927C21.2883 18.9917 21.3077 19.1055 21.2902 19.2166C21.2726 19.3278 21.2191 19.4301 21.1378 19.5078C21.0565 19.5856 20.952 19.6346 20.8402 19.6472C20.7284 19.6599 20.6155 19.6355 20.519 19.5778C20.4393 19.5302 20.374 19.462 20.3299 19.3803C20.2859 19.2986 20.2649 19.2065 20.269 19.1138ZM7.84395 19.1138V18.2638H7.47195V18.4758C7.40964 18.3951 7.32893 18.3305 7.23656 18.2873C7.14418 18.2442 7.04282 18.2238 6.94095 18.2278C6.71351 18.2386 6.49897 18.3366 6.34183 18.5014C6.1847 18.6661 6.09703 18.8851 6.09703 19.1128C6.09703 19.3405 6.1847 19.5594 6.34183 19.7242C6.49897 19.889 6.71351 19.987 6.94095 19.9978C7.04328 20.0053 7.14582 19.9865 7.23879 19.943C7.33175 19.8996 7.41203 19.8331 7.47195 19.7498V19.9618H7.84395V19.1138ZM6.46295 19.1138C6.46791 19.0014 6.50961 18.8938 6.58165 18.8073C6.65369 18.7209 6.75209 18.6605 6.86176 18.6354C6.97142 18.6103 7.08629 18.6219 7.18875 18.6684C7.2912 18.7148 7.37559 18.7936 7.42895 18.8927C7.48231 18.9917 7.50171 19.1055 7.48416 19.2166C7.46661 19.3278 7.41309 19.4301 7.33181 19.5078C7.25052 19.5856 7.14597 19.6346 7.03418 19.6472C6.92239 19.6599 6.80954 19.6355 6.71295 19.5778C6.63328 19.5302 6.56797 19.462 6.52395 19.3803C6.47993 19.2986 6.45886 19.2065 6.46295 19.1138Z" fill="black"/>
<path d="M15.1049 5.3623H9.52994V15.3803H15.1049V5.3623Z" fill="#FF5F00"/>
<path d="M9.88395 10.371C9.88407 9.40733 10.1022 8.45617 10.522 7.58873C10.9417 6.7213 11.5523 5.96006 12.3079 5.362C11.3681 4.6233 10.2394 4.16392 9.05076 4.03637C7.86216 3.90882 6.66166 4.11826 5.58646 4.64074C4.51126 5.16321 3.60475 5.97765 2.97054 6.99096C2.33633 8.00428 2 9.17558 2 10.371C2 11.5664 2.33633 12.7377 2.97054 13.751C3.60475 14.7644 4.51126 15.5788 5.58646 16.1013C6.66166 16.6237 7.86216 16.8332 9.05076 16.7056C10.2394 16.5781 11.3681 16.1187 12.3079 15.38C11.5508 14.7833 10.9392 14.0223 10.5193 13.1546C10.0993 12.2868 9.88209 11.335 9.88395 10.371Z" fill="#EB001B"/>
<path d="M22.6279 10.3711C22.6291 11.5661 22.2938 12.7373 21.6605 13.7507C21.0271 14.764 20.1213 15.5786 19.0466 16.1012C17.9719 16.6239 16.7719 16.8334 15.5837 16.7059C14.3955 16.5783 13.2672 16.1189 12.3279 15.3801C13.0839 14.7823 13.6947 14.0211 14.1147 13.1536C14.5346 12.2862 14.7528 11.3349 14.7528 10.3711C14.7528 9.40733 14.5346 8.45605 14.1147 7.58858C13.6947 6.7211 13.0839 5.95993 12.3279 5.36211C13.2672 4.62333 14.3955 4.16388 15.5837 4.03635C16.7719 3.90882 17.9719 4.11836 19.0466 4.64098C20.1213 5.1636 21.0271 5.97819 21.6605 6.99155C22.2938 8.00491 22.6291 9.1761 22.6279 10.3711Z" fill="#F79E1B"/>
</g>
</g>
</svg>
