<svg width="32" height="32" viewBox="0 0 32 32" fill="none" xmlns="http://www.w3.org/2000/svg">
<path d="M4.44223 10.6246C4.43365 10.6721 4.42864 10.7203 4.42723 10.7686V11.7556C4.42775 11.9544 4.48879 12.1483 4.60222 12.3116C4.71565 12.4748 4.8761 12.5997 5.06223 12.6696V14.1226C5.063 14.3567 5.15372 14.5817 5.31564 14.7509C5.47757 14.92 5.69831 15.0205 5.93223 15.0316V23.4246C5.69831 23.4356 5.47757 23.5361 5.31564 23.7053C5.15372 23.8744 5.063 24.0994 5.06223 24.3336V25.7816C4.87571 25.8532 4.71523 25.9796 4.60189 26.1442C4.48856 26.3087 4.42767 26.5037 4.42723 26.7036V27.6696C4.42776 27.7557 4.46234 27.8381 4.52342 27.8988C4.5845 27.9595 4.66712 27.9936 4.75323 27.9936H26.7532C26.796 27.9936 26.8384 27.9851 26.878 27.9687C26.9175 27.9524 26.9535 27.9283 26.9837 27.8981C27.014 27.8678 27.038 27.8319 27.0544 27.7923C27.0708 27.7528 27.0792 27.7104 27.0792 27.6676V26.7016C27.0788 26.5017 27.0179 26.3067 26.9046 26.1422C26.7912 25.9776 26.6308 25.8512 26.4442 25.7796V24.3236C26.4435 24.0894 26.3527 23.8644 26.1908 23.6953C26.0289 23.5261 25.8082 23.4256 25.5742 23.4146V15.0306C25.8082 15.0195 26.0289 14.919 26.1908 14.7499C26.3527 14.5807 26.4435 14.3557 26.4442 14.1216V12.6686C26.6304 12.5987 26.7908 12.4738 26.9042 12.3106C27.0177 12.1473 27.0787 11.9534 27.0792 11.7546V10.7746C27.0779 10.7262 27.0729 10.6781 27.0642 10.6306C27.1424 10.662 27.2297 10.6619 27.3078 10.6302C27.3859 10.5985 27.4486 10.5377 27.4827 10.4606C27.5168 10.3836 27.5197 10.2963 27.4907 10.2172C27.4617 10.138 27.4031 10.0733 27.3272 10.0366L15.9022 4.03656C15.8559 4.01254 15.8044 4 15.7522 4C15.7 4 15.6486 4.01254 15.6022 4.03656L4.17823 10.0366C4.10358 10.0745 4.0464 10.1398 4.01855 10.2187C3.9907 10.2977 3.99432 10.3844 4.02866 10.4608C4.06299 10.5372 4.12541 10.5974 4.20297 10.629C4.28053 10.6606 4.36728 10.6612 4.44523 10.6306L4.44223 10.6246ZM5.71223 13.2336V12.7336H9.47723V13.2336H5.71223ZM14.0892 15.0336V23.4236C13.8553 23.4346 13.6346 23.5351 13.4726 23.7043C13.3107 23.8734 13.22 24.0984 13.2192 24.3326V25.7206H10.1192V24.3326C10.1185 24.0984 10.0277 23.8734 9.86582 23.7043C9.7039 23.5351 9.48315 23.4346 9.24923 23.4236V15.0306C9.48315 15.0195 9.7039 14.919 9.86582 14.7499C10.0277 14.5807 10.1185 14.3557 10.1192 14.1216V12.7316H13.2182V14.1196C13.2187 14.354 13.3093 14.5793 13.4712 14.7489C13.6332 14.9184 13.854 15.0193 14.0882 15.0306L14.0892 15.0336ZM13.8722 13.2336V12.7336H17.6352V13.2336H13.8722ZM22.2502 15.0336V23.4236C22.0164 23.4348 21.7958 23.5354 21.6339 23.7045C21.472 23.8737 21.3812 24.0985 21.3802 24.3326V25.7206H18.2802V24.3326C18.2792 24.0985 18.1884 23.8737 18.0265 23.7045C17.8647 23.5354 17.6441 23.4348 17.4102 23.4236V15.0306C17.6442 15.0195 17.8649 14.919 18.0268 14.7499C18.1887 14.5807 18.2795 14.3557 18.2802 14.1216V12.7316H21.3732V14.1196C21.3735 14.3541 21.464 14.5795 21.626 14.7491C21.7879 14.9187 22.009 15.0195 22.2432 15.0306L22.2502 15.0336ZM22.0332 13.2336V12.7336H25.7952V13.2336H22.0332ZM25.7952 25.2216V25.7216H22.0302V25.2216H25.7952ZM17.6352 25.2216V25.7216H13.8702V25.2216H17.6352ZM14.4122 14.3846H14.1292C14.06 14.3846 13.9936 14.3571 13.9447 14.3081C13.8957 14.2592 13.8682 14.1928 13.8682 14.1236V13.8866H17.6302V14.1236C17.6302 14.1928 17.6027 14.2592 17.5538 14.3081C17.5048 14.3571 17.4385 14.3846 17.3692 14.3846H14.4122ZM16.7632 15.0366V23.4186H14.7402V15.0366H16.7632ZM14.4122 24.0716H17.3722C17.4415 24.0716 17.5078 24.0991 17.5568 24.148C17.6057 24.197 17.6332 24.2633 17.6332 24.3326V24.5696H13.8702V24.3326C13.8702 24.2633 13.8977 24.197 13.9467 24.148C13.9956 24.0991 14.062 24.0716 14.1312 24.0716H14.4122ZM9.47323 25.2216V25.7216H5.71223V25.2216H9.47323ZM5.71223 14.1296V13.8866H9.47323V14.1236C9.47323 14.1928 9.44573 14.2592 9.39679 14.3081C9.34784 14.3571 9.28145 14.3846 9.21223 14.3846H5.96523C5.89688 14.3827 5.83198 14.3541 5.78448 14.305C5.73699 14.2558 5.71068 14.1899 5.71123 14.1216L5.71223 14.1296ZM8.60523 15.0426V23.4176H6.58023V15.0366L8.60523 15.0426ZM5.71223 24.3386C5.71223 24.2693 5.73973 24.2029 5.78868 24.154C5.83762 24.1051 5.90401 24.0776 5.97323 24.0776H9.21223C9.28145 24.0776 9.34784 24.1051 9.39679 24.154C9.44573 24.2029 9.47323 24.2693 9.47323 24.3386V24.5756H5.71223V24.3386ZM26.4302 26.7156V27.3546H5.07523V26.7156C5.07523 26.6262 5.11074 26.5405 5.17394 26.4773C5.23714 26.4141 5.32285 26.3786 5.41223 26.3786H26.0912C26.1796 26.3785 26.2644 26.4132 26.3274 26.4751C26.3905 26.537 26.4267 26.6212 26.4282 26.7096L26.4302 26.7156ZM25.7952 24.3386V24.5756H22.0302V24.3386C22.0302 24.2693 22.0577 24.2029 22.1067 24.154C22.1556 24.1051 22.222 24.0776 22.2912 24.0776H25.5382C25.605 24.0793 25.6686 24.1067 25.7159 24.1539C25.7631 24.2012 25.7905 24.2648 25.7922 24.3316L25.7952 24.3386ZM22.9022 23.4246V15.0366H24.9272V23.4186L22.9022 23.4246ZM25.7952 14.1246C25.7952 14.1938 25.7677 14.2602 25.7188 14.3091C25.6698 14.3581 25.6035 14.3856 25.5342 14.3856H22.2932C22.224 14.3856 22.1576 14.3581 22.1087 14.3091C22.0597 14.2602 22.0322 14.1938 22.0322 14.1246V13.8866H25.7942L25.7952 14.1246ZM15.7522 4.68456L25.4662 9.79356H6.03723L15.7522 4.68456ZM5.07523 10.7746C5.07523 10.6881 5.10958 10.6052 5.17071 10.544C5.23185 10.4829 5.31477 10.4486 5.40123 10.4486H26.1012C26.1877 10.4486 26.2706 10.4829 26.3317 10.544C26.3929 10.6052 26.4272 10.6881 26.4272 10.7746V11.7616C26.4272 11.848 26.3929 11.9309 26.3317 11.9921C26.2706 12.0532 26.1877 12.0876 26.1012 12.0876H5.40123C5.31477 12.0876 5.23185 12.0532 5.17071 11.9921C5.10958 11.9309 5.07523 11.848 5.07523 11.7616V10.7746Z" fill="#253858"/>
</svg>
