<svg width="24" height="24" viewBox="0 0 24 24" fill="none" xmlns="http://www.w3.org/2000/svg">
<rect width="24" height="24" fill="white"/>
<path d="M18.8695 9.68555C19.0945 11.9486 18.1334 14.0094 16.5065 15.3729C15.7679 15.992 15.3201 16.8634 15.3201 17.7975V17.8843H8.28898V17.7983C8.28898 16.8605 7.83531 15.9888 7.09485 15.3664C5.63016 14.1351 4.7072 12.3379 4.7072 10.3373C4.7072 6.4779 8.14034 3.37734 12.2679 3.62687C15.7114 3.83498 18.5459 6.43139 18.8695 9.68555Z" fill="#FFD542"/>
<path d="M18.4847 8.06299C17.3274 6.16975 15.2148 4.85069 12.8047 4.70454C8.67513 4.45745 5.2436 7.55837 5.2436 11.418C5.2436 12.2254 5.39419 13.005 5.67342 13.7219C5.05622 12.7266 4.7072 11.5711 4.7072 10.3391C4.7072 6.47946 8.13869 3.37853 12.2683 3.62563C15.1156 3.79966 17.5479 5.60247 18.4847 8.06299Z" fill="#F2C538"/>
<path d="M14.7744 17.8845V21.3649C14.7744 21.8779 14.3366 22.2895 13.7983 22.2895H9.8063C9.26798 22.2895 8.83017 21.8779 8.83017 21.3649V17.8845H14.7744Z" fill="#2DCEF6"/>
<path d="M10.084 22.2891C10.2393 23.0565 10.9505 23.6361 11.8062 23.6361C12.662 23.6361 13.3731 23.0565 13.5285 22.2891H10.084Z" fill="#0E4A77"/>
<path d="M19.2524 9.65111C18.9124 6.22888 15.9204 3.48294 12.2931 3.26366C11.6239 3.22352 10.9563 3.26595 10.3081 3.39079C10.1004 3.43075 9.9662 3.62286 10.0085 3.81959C10.0505 4.0165 10.2548 4.14309 10.461 4.10352C11.0432 3.9913 11.6445 3.9533 12.2443 3.98952C15.4987 4.18607 18.1828 6.6495 18.4883 9.7193C18.6926 11.777 17.878 13.7383 16.2526 15.1004C15.4931 15.7371 15.0278 16.6068 14.9491 17.5203H14.777H13.1107V14.3275C13.1107 14.1267 12.939 13.9638 12.7268 13.9638C12.5147 13.9638 12.3429 14.1267 12.3429 14.3275V17.5203H11.2663V11.8585H12.3429V13.0817C12.3429 13.2825 12.5147 13.4454 12.7268 13.4454C12.939 13.4454 13.1107 13.2825 13.1107 13.0817V11.8585H13.6959C14.4292 11.8585 15.0256 11.2946 15.0256 10.6016C15.0256 10.2671 14.8888 9.95082 14.6357 9.70704C14.1319 9.23758 13.2704 9.23064 12.7542 9.71148C12.5056 9.95082 12.3688 10.267 12.3688 10.6016V11.1312H11.2419V10.6016C11.2419 10.2671 11.1051 9.95082 10.8521 9.70704C10.3452 9.23475 9.48224 9.23402 8.97092 9.71111C8.72235 9.95046 8.58516 10.2667 8.58516 10.6016C8.58516 11.2946 9.18197 11.8585 9.91522 11.8585H10.4985V17.5202H8.83291H8.66159C8.58212 16.6078 8.11425 15.736 7.35064 15.0941C5.9152 13.8874 5.09198 12.1536 5.09198 10.337C5.09198 7.81761 6.66461 5.53207 9.09832 4.51451C9.29214 4.43338 9.37986 4.21869 9.29437 4.03494C9.20927 3.85152 8.98324 3.76843 8.78792 3.84905C6.07639 4.98313 4.32422 7.52965 4.32422 10.337C4.32422 12.3613 5.24154 14.2935 6.84081 15.6382C7.51786 16.2071 7.90584 16.9942 7.90584 17.798V17.8839C7.90584 18.0847 8.07755 18.2476 8.28972 18.2476H8.44903V19.0911H8.02316C7.81099 19.0911 7.63928 19.254 7.63928 19.4548C7.63928 19.6556 7.81099 19.8184 8.02316 19.8184H8.44903V20.5887H8.02316C7.81099 20.5887 7.63928 20.7515 7.63928 20.9523C7.63928 21.1531 7.81099 21.3159 8.02316 21.3159H8.44903V21.3644C8.44903 22.0699 9.05126 22.6435 9.7941 22.6512C10.0923 23.4471 10.8905 23.9997 11.805 23.9997C12.7191 23.9997 13.5173 23.447 13.8157 22.6512C14.5585 22.6434 15.1609 22.0698 15.1609 21.3644V21.3159H15.5868C15.799 21.3159 15.9707 21.1531 15.9707 20.9523C15.9707 20.7515 15.799 20.5887 15.5868 20.5887H15.1609V19.8184H15.5868C15.799 19.8184 15.9707 19.6556 15.9707 19.4548C15.9707 19.254 15.799 19.0911 15.5868 19.0911H15.1609V18.2476H15.321C15.5332 18.2476 15.7049 18.0847 15.7049 17.8839V17.7973C15.7049 16.9922 16.0899 16.2078 16.7617 15.6451C18.5723 14.1274 19.4803 11.9427 19.2524 9.65111ZM13.1365 10.6016C13.1365 10.4187 13.2261 10.2937 13.297 10.2255C13.5152 10.0226 13.8867 10.0295 14.0929 10.2211C14.1682 10.2937 14.2578 10.4187 14.2578 10.6016C14.2578 10.8937 14.0059 11.1312 13.6958 11.1312H13.1365V10.6016ZM10.4741 11.1312H9.91518C9.60516 11.1312 9.35287 10.8937 9.35287 10.6016C9.35287 10.4187 9.44286 10.2939 9.51406 10.2252C9.62205 10.1245 9.76447 10.0691 9.91518 10.0691C10.064 10.0691 10.2054 10.1246 10.3092 10.2211C10.3845 10.2937 10.4741 10.4187 10.4741 10.6016V11.1312ZM11.805 23.2725C11.3173 23.2725 10.8798 23.0281 10.6365 22.6526H10.7163H11.883H12.9731C12.7298 23.0281 12.2923 23.2725 11.805 23.2725ZM13.8008 21.9253C10.2924 21.9253 13.3183 21.9253 9.80873 21.9253C9.4822 21.9253 9.21679 21.6737 9.21679 21.3644V21.3159H14.3932C14.3932 21.7053 14.1114 21.9253 13.8008 21.9253ZM14.3932 20.5887H9.21679V19.8184H14.3932V20.5887ZM14.3932 19.0912H9.21679V18.2476H14.3932V19.0912Z" fill="#000033"/>
<path d="M2.51634 5.72578L3.85953 6.46051C4.04176 6.56022 4.27723 6.50219 4.38399 6.32735C4.49009 6.15353 4.4271 5.93106 4.24341 5.83055L2.90022 5.09582C2.71653 4.99513 2.48187 5.0548 2.37577 5.22898C2.26966 5.4028 2.33262 5.62531 2.51634 5.72578Z" fill="#000033"/>
<path d="M3.31901 10.3627C3.31901 10.1619 3.1473 9.99902 2.93513 9.99902H1.38388C1.17171 9.99902 1 10.1619 1 10.3627C1 10.5635 1.17171 10.7263 1.38388 10.7263H2.93513C3.1473 10.7263 3.31901 10.5635 3.31901 10.3627Z" fill="#000033"/>
<path d="M3.99663 14.2308L2.65305 14.9655C2.46937 15.066 2.40637 15.2883 2.51248 15.4623C2.61923 15.6372 2.8547 15.6952 3.03693 15.5955L4.38051 14.8608C4.56419 14.7602 4.62719 14.538 4.52108 14.364C4.41463 14.19 4.1792 14.1306 3.99663 14.2308Z" fill="#000033"/>
<path d="M6.91828 3.20525C7.02503 3.38009 7.2605 3.43812 7.44273 3.33841C7.61667 3.24329 7.6772 3.03998 7.59371 2.87085C7.58338 2.72641 6.85133 1.57295 6.77094 1.44106C6.66449 1.26688 6.42944 1.20738 6.24649 1.30789C6.07255 1.40302 6.01202 1.60633 6.09551 1.77546C6.10584 1.91986 6.83789 3.07332 6.91828 3.20525Z" fill="#000033"/>
<path d="M11.6632 2.19797C11.8753 2.19797 12.0471 2.03514 12.0471 1.83434V1.83292V0.364875V0.363638C12.0471 0.162837 11.8753 0 11.6632 0C11.451 0 11.2793 0.162837 11.2793 0.363638V0.364875V1.83292V1.83434C11.2793 2.03517 11.451 2.19797 11.6632 2.19797Z" fill="#000033"/>
<path d="M15.8951 3.33927C16.0774 3.43898 16.3128 3.38095 16.4196 3.20611C16.5012 3.07225 17.2328 1.92076 17.2422 1.7741C17.326 1.6049 17.2654 1.40126 17.0914 1.30606C16.9077 1.20574 16.673 1.26523 16.5669 1.43923C16.4853 1.57308 15.7537 2.72458 15.7443 2.87124C15.6605 3.04044 15.7211 3.24407 15.8951 3.33927Z" fill="#000033"/>
<path d="M19.4744 6.46137L20.818 5.72664C21.0017 5.62613 21.0647 5.40384 20.9586 5.22984C20.8521 5.05584 20.6167 4.99616 20.4341 5.09667L19.0906 5.8314C18.9069 5.93191 18.8439 6.1542 18.95 6.32821C19.0567 6.50304 19.2922 6.56108 19.4744 6.46137Z" fill="#000033"/>
<path d="M21.9547 10.001H20.4034C20.1912 10.001 20.0195 10.1638 20.0195 10.3646C20.0195 10.5654 20.1912 10.7283 20.4034 10.7283H21.9547C22.1668 10.7283 22.3385 10.5654 22.3385 10.3646C22.3385 10.1638 22.1669 10.001 21.9547 10.001Z" fill="#000033"/>
<path d="M20.6787 14.9668L19.3355 14.2322C19.1522 14.1317 18.9172 14.1912 18.8111 14.3654C18.705 14.5394 18.768 14.7617 18.9516 14.8622L20.2948 15.5967C20.4771 15.6964 20.7125 15.6384 20.8193 15.4636C20.9253 15.2896 20.8624 15.0673 20.6787 14.9668Z" fill="#000033"/>
</svg>
