<svg width="86" height="86" viewBox="0 0 86 86" fill="none" xmlns="http://www.w3.org/2000/svg">
<g id="Group 235322">
<path id="Ellipse 4915" d="M43 86C66.7482 86 86 66.7482 86 43C86 19.2518 66.7482 0 43 0C19.2518 0 0 19.2518 0 43C0 66.7482 19.2518 86 43 86Z" fill="#3965FB" fill-opacity="0.16"/>
<path id="Ellipse 4914" d="M43 78C62.33 78 78 62.33 78 43C78 23.67 62.33 8 43 8C23.67 8 8 23.67 8 43C8 62.33 23.67 78 43 78Z" fill="#3965FB"/>
<g id="Group 235320">
<path id="Path 220600" d="M22.875 34.8042C23.491 34.8112 24.108 34.8232 24.725 34.8242C26.165 34.8242 27.6061 34.8312 29.0461 34.8242C29.3031 34.8242 29.38 34.8982 29.376 35.1542C29.362 36.0462 29.37 36.9382 29.37 37.8292V38.1972L29.455 38.2352C29.522 38.1462 29.595 38.0602 29.655 37.9682C30.5533 36.4881 31.932 35.3607 33.561 34.7742C34.3398 34.4762 35.1718 34.3425 36.0048 34.3817C36.8377 34.4208 37.6536 34.6319 38.401 35.0017C39.1484 35.3715 39.8111 35.892 40.3476 36.5304C40.884 37.1688 41.2825 37.9113 41.518 38.7112C42.1862 40.6017 42.4366 42.6146 42.252 44.6112C42.1758 46.5699 41.6433 48.4837 40.6971 50.2002C40.0851 51.3775 39.1265 52.3384 37.9508 52.9533C36.7751 53.5681 35.439 53.8072 34.123 53.6382C32.5149 53.4806 31.012 52.7674 29.873 51.6212C29.7422 51.4819 29.6196 51.335 29.506 51.1812L29.394 51.2442V60.0032H26.11C26.102 59.9132 26.088 59.8272 26.088 59.7402C26.0947 52.8236 26.1 45.9072 26.104 38.9912C26.1062 38.4664 26.065 37.9423 25.981 37.4242C25.9551 37.0474 25.7943 36.6926 25.528 36.4248C25.2616 36.157 24.9077 35.9942 24.531 35.9662C24.1041 35.8911 23.673 35.842 23.2401 35.8192C23.0151 35.8052 22.94 35.7252 22.94 35.5102C22.9286 35.2979 22.9062 35.0863 22.873 34.8762L22.875 34.8042ZM29.375 44.6142C29.375 46.2712 29.368 47.9292 29.385 49.5862C29.3903 49.677 29.4137 49.7658 29.4539 49.8474C29.4941 49.929 29.5503 50.0017 29.619 50.0612C30.8139 51.0102 32.2333 51.6349 33.7401 51.8752C34.3092 51.9826 34.8956 51.9542 35.4516 51.7923C36.0076 51.6303 36.5176 51.3394 36.94 50.9432C37.619 50.2575 38.0961 49.3981 38.319 48.4592C38.9395 46.1468 39.0233 43.7231 38.564 41.3732C38.3749 40.1511 37.9206 38.9852 37.233 37.9572C36.8415 37.3093 36.2413 36.8138 35.5309 36.5521C34.8206 36.2904 34.0423 36.2781 33.324 36.5172C31.7536 36.981 30.3916 37.9733 29.469 39.3262C29.3979 39.4535 29.3652 39.5987 29.375 39.7442C29.369 41.3682 29.371 42.9912 29.371 44.6142H29.375Z" fill="#F4F5F7"/>
<path id="Path 220601" d="M42.3621 27.39V26.376H48.8561V38.189C49.3101 37.643 49.6981 37.11 50.1561 36.643C51.0513 35.6511 52.2136 34.9386 53.5036 34.5908C54.7936 34.2429 56.1566 34.2746 57.4291 34.682C58.2551 34.9453 59.0153 35.3824 59.6584 35.9638C60.3016 36.5453 60.813 37.2576 61.1581 38.053C61.8081 39.3794 62.1762 40.8262 62.2391 42.302C62.4429 44.494 62.1444 46.7036 61.3661 48.763C60.7544 50.456 59.5813 51.8885 58.0421 52.822C56.7188 53.552 55.2038 53.8594 53.7007 53.7028C52.1976 53.5462 50.7784 52.9331 49.6341 51.946C49.4101 51.746 49.2061 51.533 48.9831 51.338C48.9104 51.2728 48.8176 51.2343 48.7201 51.229C48.6821 51.229 48.6301 51.37 48.6131 51.452C48.4931 52.052 48.3871 52.664 48.2591 53.267C48.2391 53.36 48.1311 53.507 48.0591 53.508C47.2161 53.525 46.3721 53.519 45.4841 53.519V53.119C45.4841 45.629 45.4817 38.1393 45.4771 30.65C45.4595 29.933 45.4054 29.2174 45.3151 28.506C45.3028 28.3144 45.2249 28.1328 45.0945 27.9919C44.9641 27.8509 44.7891 27.7591 44.5991 27.732C43.9851 27.614 43.3651 27.525 42.7471 27.432C42.6251 27.407 42.5001 27.403 42.3621 27.39ZM48.8621 44.646C48.8621 46.304 48.8621 47.962 48.8681 49.619C48.8671 49.6881 48.88 49.7567 48.9059 49.8207C48.9318 49.8848 48.9703 49.943 49.0191 49.992C50.1948 50.91 51.5749 51.5303 53.0421 51.8C54.0943 52.0678 55.2096 51.9133 56.1494 51.3694C57.0892 50.8256 57.7789 49.9357 58.0711 48.89C58.4692 47.6968 58.6751 46.4478 58.6811 45.19C58.7779 43.4761 58.6198 41.7574 58.2121 40.09C57.9963 39.0898 57.4905 38.1754 56.7581 37.461C56.2513 37.029 55.6469 36.7269 54.9972 36.5809C54.3475 36.4349 53.6719 36.4493 53.0291 36.623C51.4745 36.9667 50.0885 37.8419 49.1101 39.098C48.9358 39.2914 48.8448 39.5458 48.8571 39.806C48.8711 41.423 48.8651 43.035 48.8651 44.646H48.8621Z" fill="#F4F5F7"/>
</g>
</g>
</svg>
