<svg width="153" height="41" viewBox="0 0 153 41" fill="none" xmlns="http://www.w3.org/2000/svg">
<g id="Group 1261153041">
<path id="Vector" d="M138.725 40.3179H0.494019L3.8313 27.7402H142.062L138.725 40.3179Z" fill="#253858"/>
<path id="Vector_2" d="M9.38071 30.7139H10.7894L10.1943 33.2725H12.793L13.388 30.7139H14.798L13.2936 37.1783H11.8837L12.4877 34.5831H9.88906L9.28499 37.1783H7.87634L9.38071 30.7139Z" fill="white"/>
<path id="Vector_3" d="M18.2772 30.6689H19.5772L20.8073 37.1804H19.3327L19.0844 35.7301H16.3757L15.4522 37.1804H14.0164L18.2772 30.6689ZM18.8735 34.4742L18.5113 32.3777L17.1725 34.4742H18.8735Z" fill="white"/>
<path id="Vector_4" d="M23.0347 30.7139H25.9632C26.7743 30.7139 27.346 30.9319 27.6772 31.3692C27.9566 31.7386 28.0251 32.2308 27.8815 32.8469L27.8777 32.8652C27.7561 33.3887 27.5297 33.8155 27.1998 34.1445C26.87 34.4735 26.4819 34.715 26.0383 34.869L27.0653 37.1783H25.4174L24.5261 35.1092H24.508H23.4189L22.9377 37.1783H21.5291L23.0347 30.7139ZM25.1406 33.8547C25.4885 33.8547 25.7744 33.7712 25.9995 33.6054C26.2245 33.4396 26.3694 33.2177 26.4328 32.9409L26.4367 32.9226C26.5078 32.6146 26.4638 32.3835 26.3047 32.2295C26.1456 32.0754 25.8921 31.9984 25.5441 31.9984H24.1446L23.7125 33.8547H25.1406Z" fill="white"/>
<path id="Vector_5" d="M32.3881 30.7139H37.2659L36.9671 31.9984H33.4992L33.1745 33.3926H36.2311L35.9323 34.6771H32.8757L32.2937 37.1796H30.885L32.3881 30.7139Z" fill="white"/>
<path id="Vector_6" d="M39.8102 30.6689H41.1102L42.3403 37.1804H40.867L40.6186 35.7301H37.91L36.9864 37.1804H35.5493L39.8102 30.6689ZM40.4065 34.4742L40.0443 32.3777L38.7055 34.4742H40.4065Z" fill="white"/>
<path id="Vector_7" d="M44.5691 30.7139H46.0877L47.1354 33.4474L49.456 30.7139H50.9746L49.4702 37.1783H48.0797L49.0628 32.9579L46.6167 35.7201H46.5805L45.4318 32.9866L44.4552 37.1796H43.0647L44.5691 30.7139Z" fill="white"/>
<path id="Vector_8" d="M52.3099 30.7139H53.7198L52.2155 37.1783H50.8055L52.3099 30.7139Z" fill="white"/>
<path id="Vector_9" d="M55.0553 30.7139H56.4639L55.2571 35.8951H58.4508L58.152 37.1783H53.5483L55.0553 30.7139Z" fill="white"/>
<path id="Vector_10" d="M60.0399 34.6301L58.4902 30.7139H60.1382L61.0618 33.309L63.2219 30.7139H64.8233L61.4563 34.6014L60.8561 37.1783H59.4474L60.0399 34.6301Z" fill="white"/>
<path id="Vector_11" d="M68.4381 30.7139H69.8467L69.2517 33.2725H71.8504L72.4454 30.7139H73.8553L72.351 37.1783H70.941L71.5451 34.5831H68.9464L68.3424 37.1783H66.9337L68.4381 30.7139Z" fill="white"/>
<path id="Vector_12" d="M76.7076 37.2912C76.2135 37.2912 75.7789 37.2037 75.405 37.0275C75.0312 36.8526 74.7272 36.615 74.4957 36.316C74.2628 36.0171 74.1102 35.6659 74.0365 35.2626C73.9628 34.8592 73.9796 34.4271 74.0869 33.965L74.0908 33.9467C74.1982 33.4846 74.3844 33.0525 74.6496 32.6491C74.9135 32.2457 75.233 31.892 75.6055 31.5878C75.9781 31.2823 76.3946 31.0421 76.8538 30.8672C77.3117 30.6923 77.789 30.6035 78.2831 30.6035C78.7772 30.6035 79.2119 30.691 79.5857 30.8672C79.9595 31.0421 80.2622 31.2797 80.495 31.5787C80.7279 31.8776 80.8805 32.2288 80.9542 32.6308C81.028 33.0342 81.0112 33.4663 80.9038 33.9284L80.8999 33.9467C80.7925 34.4088 80.6063 34.8409 80.3411 35.2443C80.0759 35.6477 79.7577 36.0014 79.3839 36.3069C79.0114 36.6124 78.5949 36.8513 78.1369 37.0275C77.6777 37.2024 77.2017 37.2912 76.7076 37.2912ZM77.031 35.9792C77.3117 35.9792 77.5833 35.927 77.8459 35.8226C78.1085 35.7181 78.3452 35.5732 78.5547 35.3892C78.7656 35.2038 78.9467 34.991 79.098 34.7469C79.2494 34.5041 79.3567 34.243 79.4214 33.9663L79.4253 33.948C79.49 33.6713 79.5029 33.4089 79.4667 33.1634C79.4292 32.9167 79.3451 32.7013 79.2145 32.5173C79.0838 32.3332 78.9118 32.187 78.6983 32.0786C78.4862 31.9716 78.2391 31.9168 77.9584 31.9168C77.6713 31.9168 77.3983 31.969 77.1396 32.0734C76.8809 32.1779 76.6455 32.3228 76.4347 32.5068C76.2238 32.6909 76.0427 32.9063 75.8914 33.1491C75.7401 33.3919 75.6327 33.653 75.568 33.9297L75.5641 33.948C75.4995 34.2247 75.4852 34.4871 75.5227 34.7326C75.5602 34.978 75.6443 35.1947 75.775 35.3787C75.9056 35.5628 76.0764 35.7103 76.2859 35.8174C76.4955 35.9257 76.7438 35.9792 77.031 35.9792Z" fill="white"/>
<path id="Vector_13" d="M84.1936 37.2912C83.6931 37.2912 83.2571 37.2076 82.8833 37.0418C82.5108 36.8761 82.2107 36.645 81.983 36.3487C81.7554 36.0523 81.6066 35.7025 81.5367 35.2952C81.4669 34.8892 81.4876 34.4454 81.5988 33.965L81.6027 33.9467C81.7101 33.4846 81.8951 33.0525 82.1564 32.6491C82.4176 32.2457 82.7333 31.892 83.1032 31.5878C83.4732 31.2823 83.8832 31.0421 84.3321 30.8672C84.7809 30.6923 85.2505 30.6035 85.7381 30.6035C86.0253 30.6035 86.2814 30.6231 86.5065 30.6636C86.7315 30.704 86.9372 30.7602 87.1209 30.8346C87.3046 30.909 87.4727 31.0004 87.6241 31.1113C87.7754 31.2223 87.9164 31.3489 88.0483 31.4899L86.9087 32.5708C86.8104 32.4663 86.7108 32.3737 86.6074 32.294C86.5039 32.2144 86.3926 32.1465 86.2749 32.0904C86.1572 32.0356 86.0253 31.9925 85.8791 31.9612C85.7342 31.9311 85.5699 31.9155 85.3863 31.9155C85.1302 31.9155 84.8779 31.969 84.6296 32.0773C84.3812 32.1857 84.1523 32.3306 83.9427 32.512C83.7332 32.6935 83.5521 32.9063 83.4007 33.1504C83.2494 33.3945 83.142 33.6556 83.0773 33.9323L83.0735 33.9506C83.0049 34.2469 82.9881 34.5198 83.0243 34.7704C83.0605 35.0197 83.1446 35.2378 83.2752 35.4231C83.4059 35.6085 83.5766 35.7521 83.7888 35.8539C83.9996 35.9557 84.2493 36.0066 84.5351 36.0066C85.0603 36.0066 85.5324 35.8761 85.9528 35.6163L86.1688 34.6869H84.7499L85.0357 33.4585H87.8181L87.1649 36.2664C86.769 36.5497 86.3215 36.7912 85.8196 36.9909C85.3229 37.1907 84.7796 37.2912 84.1936 37.2912Z" fill="white"/>
<path id="Vector_14" d="M89.6139 30.7139H91.0238L89.5194 37.1783H88.1095L89.6139 30.7139Z" fill="white"/>
<path id="Vector_15" d="M95.4527 30.7139H96.8627L95.3583 37.1783H93.9484L95.4527 30.7139Z" fill="white"/>
<path id="Vector_16" d="M98.1982 30.7139H99.4982L101.573 34.6941L102.499 30.7139H103.89L102.385 37.1783H101.186L99.0402 33.0688L98.083 37.1783H96.6925L98.1982 30.7139Z" fill="white"/>
<path id="Vector_17" d="M105.924 37.2712C105.436 37.2712 104.977 37.1864 104.546 37.0167C104.115 36.847 103.749 36.5872 103.447 36.236L104.514 35.2296C104.75 35.4698 105.007 35.6603 105.282 35.8026C105.558 35.9449 105.878 36.0154 106.244 36.0154C106.537 36.0154 106.777 35.9619 106.964 35.8535C107.15 35.7452 107.266 35.5964 107.31 35.4058L107.314 35.3875C107.336 35.2948 107.337 35.2139 107.321 35.1421C107.304 35.0716 107.255 35.005 107.174 34.9437C107.094 34.8823 106.977 34.821 106.823 34.7583C106.669 34.6969 106.466 34.6317 106.212 34.5638C105.907 34.4842 105.634 34.3941 105.393 34.2962C105.153 34.1983 104.959 34.0756 104.809 33.9307C104.659 33.7858 104.559 33.6056 104.507 33.3902C104.457 33.1748 104.468 32.9072 104.543 32.5874L104.547 32.5691C104.616 32.2728 104.732 32.0078 104.897 31.7702C105.061 31.5326 105.261 31.329 105.498 31.1553C105.735 30.983 106.001 30.8512 106.296 30.7585C106.591 30.6658 106.904 30.6201 107.233 30.6201C107.702 30.6201 108.117 30.6906 108.478 30.8329C108.839 30.9752 109.154 31.1775 109.421 31.4425L108.44 32.5143C108.199 32.3172 107.954 32.1618 107.706 32.0482C107.458 31.9347 107.196 31.8772 106.922 31.8772C106.648 31.8772 106.429 31.9308 106.266 32.0391C106.103 32.1462 106.004 32.2806 105.966 32.4412L105.962 32.4595C105.938 32.5639 105.937 32.6553 105.959 32.7323C105.981 32.8093 106.036 32.8785 106.125 32.9398C106.215 33.0012 106.344 33.0599 106.511 33.1148C106.678 33.1696 106.891 33.2349 107.149 33.3093C107.453 33.3954 107.719 33.4933 107.948 33.6004C108.177 33.7087 108.361 33.838 108.5 33.9881C108.639 34.1395 108.729 34.3158 108.771 34.5194C108.812 34.7231 108.8 34.9659 108.734 35.2491L108.731 35.2674C108.656 35.5872 108.533 35.8718 108.359 36.1225C108.186 36.3718 107.976 36.5807 107.731 36.7504C107.485 36.9201 107.209 37.0493 106.903 37.1381C106.599 37.2268 106.272 37.2712 105.924 37.2712Z" fill="white"/>
<path id="Vector_18" d="M111.897 37.2821C111.037 37.2821 110.416 37.0419 110.033 36.5615C109.65 36.0811 109.57 35.3644 109.793 34.4102L110.653 30.7158H112.063L111.212 34.3736C111.089 34.9036 111.117 35.3018 111.3 35.5694C111.482 35.837 111.788 35.9714 112.222 35.9714C112.655 35.9714 113.024 35.8422 113.328 35.5837C113.632 35.3253 113.844 34.9375 113.964 34.4193L114.827 30.7158H116.237L115.388 34.3645C115.273 34.8566 115.108 35.2848 114.893 35.6477C114.677 36.0106 114.418 36.3148 114.118 36.5576C113.817 36.8004 113.479 36.9818 113.104 37.1019C112.725 37.2207 112.324 37.2821 111.897 37.2821Z" fill="white"/>
<path id="Vector_19" d="M117.406 30.7139H120.334C121.145 30.7139 121.717 30.9319 122.048 31.3692C122.327 31.7386 122.396 32.2308 122.252 32.8469L122.249 32.8652C122.127 33.3887 121.901 33.8155 121.571 34.1445C121.241 34.4735 120.853 34.715 120.409 34.869L121.436 37.1783H119.788L118.897 35.1092H118.879H117.79L117.309 37.1783H115.9L117.406 30.7139ZM119.511 33.8547C119.859 33.8547 120.145 33.7712 120.37 33.6054C120.595 33.4396 120.74 33.2177 120.804 32.9409L120.808 32.9226C120.879 32.6146 120.835 32.3835 120.676 32.2295C120.516 32.0754 120.263 31.9984 119.915 31.9984H118.515L118.083 33.8547H119.511Z" fill="white"/>
<path id="Vector_20" d="M123.758 30.7139H128.58L128.285 31.9788H124.854L124.548 33.2908H127.569L127.274 34.5557H124.253L123.938 35.9134H127.415L127.12 37.1783H122.251L123.758 30.7139Z" fill="white"/>
<path id="Vector_21" d="M129.624 30.7139H132.122C132.623 30.7139 133.062 30.7961 133.443 30.958C133.823 31.1212 134.13 31.347 134.365 31.6368C134.6 31.9266 134.754 32.266 134.828 32.6576C134.902 33.0493 134.885 33.4722 134.779 33.9278L134.775 33.9461C134.669 34.4017 134.488 34.8272 134.232 35.2202C133.976 35.6131 133.663 35.9564 133.293 36.2449C132.923 36.5347 132.51 36.7619 132.053 36.929C131.597 37.0948 131.118 37.1783 130.618 37.1783H128.12L129.624 30.7139ZM130.916 35.8951C131.204 35.8951 131.477 35.8494 131.735 35.7567C131.995 35.664 132.228 35.5322 132.436 35.3599C132.643 35.1875 132.823 34.9839 132.972 34.7502C133.121 34.5166 133.229 34.2555 133.297 33.9657L133.3 33.9474C133.366 33.6641 133.379 33.4017 133.341 33.1628C133.302 32.9226 133.219 32.7164 133.091 32.5441C132.963 32.3717 132.792 32.2386 132.576 32.142C132.36 32.0467 132.109 31.9997 131.822 31.9997H130.733L129.826 35.8977H130.916V35.8951Z" fill="white"/>
<path id="Vector_22" d="M0 8.4676C0.369947 8.47152 0.739894 8.47935 1.10984 8.47935C1.97391 8.48066 2.83798 8.48327 3.70206 8.47674C3.85599 8.47544 3.90255 8.52113 3.89997 8.67647C3.8922 9.21561 3.89738 9.75605 3.89738 10.2965C3.89738 10.3709 3.89738 10.4453 3.89738 10.5197C3.91419 10.5276 3.93101 10.5354 3.94912 10.5419C3.98922 10.4884 4.0332 10.4362 4.06942 10.38C4.65667 9.49758 5.39269 8.78352 6.41198 8.44672C8.29147 7.82664 10.3068 8.46108 11.1851 10.8304C11.6132 11.987 11.709 13.188 11.6249 14.4034C11.5434 15.59 11.295 16.7479 10.6922 17.787C9.81265 19.3013 8.49196 20.0245 6.7483 19.8678C5.76134 19.7791 4.91409 19.3378 4.19877 18.6473C4.11598 18.5676 4.05131 18.4697 3.97887 18.381C3.95688 18.394 3.9336 18.4058 3.91161 18.4188C3.91161 20.1811 3.91161 21.9448 3.91161 23.7214C3.24027 23.7214 2.59868 23.7214 1.94157 23.7214C1.9364 23.6666 1.92864 23.6144 1.92864 23.5622C1.93252 19.3757 1.93899 15.1879 1.93769 11.0014C1.93769 10.6855 1.9157 10.3644 1.86396 10.0524C1.776 9.51977 1.51859 9.26652 0.994717 9.16992C0.739894 9.12293 0.479896 9.09682 0.219899 9.08115C0.0840789 9.07332 0.0426862 9.02371 0.0413927 8.89448C0.0400991 8.76655 0.0155222 8.63861 0.00129349 8.51068C-3.20446e-08 8.49632 0 8.48196 0 8.4676ZM3.89608 14.4073C3.89608 15.4111 3.8922 16.4137 3.90255 17.4163C3.90385 17.5142 3.96593 17.646 4.04225 17.7035C4.78215 18.2583 5.58801 18.6773 6.51417 18.8013C7.23207 18.8979 7.89306 18.7622 8.43634 18.2374C8.86579 17.8222 9.10897 17.3001 9.2642 16.7335C9.65096 15.3172 9.67295 13.8838 9.41166 12.4439C9.27713 11.705 9.04688 11.0001 8.61355 10.3761C8.02888 9.53674 7.23337 9.22866 6.2684 9.50411C5.29567 9.78216 4.54414 10.3853 3.95559 11.2038C3.90902 11.269 3.89997 11.3722 3.89997 11.457C3.89479 12.4426 3.89608 13.4243 3.89608 14.4073Z" fill="#0065FF"/>
<path id="Vector_23" d="M57.7407 3.97911C57.7407 3.77155 57.7407 3.57443 57.7407 3.36426C59.0381 3.36426 60.3239 3.36426 61.6355 3.36426C61.6355 5.74143 61.6355 8.11729 61.6355 10.5153C61.9084 10.1851 62.14 9.86263 62.4142 9.57936C63.634 8.31963 65.1034 7.91886 66.7773 8.39273C67.8392 8.69298 68.5235 9.47101 69.0138 10.4331C69.4238 11.2385 69.6049 12.1093 69.6618 13.0048C69.7472 14.3429 69.6411 15.6587 69.1379 16.9158C68.7279 17.9406 68.1096 18.8087 67.1446 19.3726C65.5769 20.2877 63.4852 20.0606 62.1012 18.8426C61.9667 18.7238 61.8451 18.5933 61.7105 18.4745C61.6691 18.438 61.6058 18.4079 61.5527 18.4079C61.5294 18.4079 61.4984 18.4928 61.4881 18.5437C61.4169 18.9092 61.3522 19.2773 61.2759 19.6416C61.2643 19.6977 61.1996 19.7865 61.1569 19.7878C60.6511 19.7982 60.1454 19.7943 59.6124 19.7943C59.6124 19.7003 59.6124 19.6272 59.6124 19.5528C59.6124 15.0191 59.615 10.4853 59.6086 5.9516C59.6073 5.5182 59.5555 5.0848 59.5116 4.65401C59.4857 4.40207 59.3292 4.23367 59.0821 4.18537C58.7134 4.11357 58.3422 4.06005 57.971 4.0013C57.8972 3.98955 57.8222 3.98694 57.7407 3.97911ZM61.6407 14.4251C61.6407 15.429 61.6381 16.4315 61.6446 17.4354C61.6446 17.5124 61.6782 17.6195 61.7351 17.6612C62.4634 18.1965 63.2485 18.6155 64.1488 18.7552C65.6066 18.9836 66.6583 18.4171 67.1653 16.9942C67.4227 16.271 67.5081 15.5164 67.5314 14.7554C67.5624 13.7163 67.5223 12.6823 67.2507 11.6706C67.089 11.0688 66.8484 10.5049 66.3776 10.0793C65.7295 9.49189 64.956 9.41487 64.1411 9.57152C63.1645 9.7582 62.4246 10.3287 61.7907 11.0701C61.6808 11.1994 61.6368 11.3286 61.6381 11.4983C61.6446 12.4735 61.6407 13.4499 61.6407 14.4251Z" fill="#253858"/>
<path id="Vector_24" d="M80.2876 18.9404C80.2941 19.0161 80.2993 19.0905 80.3058 19.1649C80.3471 19.7001 80.351 19.7158 79.8246 19.8216C79.5115 19.8842 79.1856 19.9299 78.8686 19.9116C78.0395 19.8633 77.5661 19.3477 77.297 18.5997C77.2453 18.4574 77.2091 18.3099 77.1586 18.1428C76.94 18.336 76.7369 18.5253 76.5235 18.7015C75.8353 19.2681 75.0838 19.7054 74.1964 19.8725C72.7606 20.1427 71.3093 19.4952 70.66 18.2929C69.9615 16.9992 70.1413 14.9471 71.916 13.9028C72.6585 13.4655 73.4747 13.2579 74.3168 13.1691C75.023 13.096 75.7357 13.0816 76.4472 13.0425C76.5274 13.0386 76.6076 13.0425 76.7136 13.0425C76.6852 12.0974 76.8016 11.1679 76.5131 10.2659C76.2454 9.42778 75.6064 8.95783 74.732 8.99829C74.3892 9.01396 74.0374 9.06879 73.7101 9.17322C72.9534 9.41603 72.5808 9.97997 72.5175 10.7658C72.5071 10.9016 72.4994 11.0387 72.489 11.1875C72.0337 11.1875 71.5926 11.1875 71.1179 11.1875C71.1179 11.1013 71.1179 11.0139 71.1179 10.9277C71.1179 10.3886 71.114 9.84812 71.1231 9.30898C71.1243 9.23849 71.1735 9.12753 71.2291 9.10403C72.6352 8.49049 74.0917 8.11453 75.6387 8.22679C76.2441 8.26987 76.8314 8.40172 77.363 8.71632C78.1365 9.17583 78.5194 9.8912 78.6449 10.7593C78.6953 11.1065 78.7147 11.4603 78.716 11.8128C78.7225 13.4185 78.7083 15.0241 78.7251 16.6285C78.7302 17.1572 78.7755 17.6911 78.8661 18.212C78.9527 18.7185 79.2425 18.9704 79.6862 19.0031C79.8776 19.0174 80.0755 18.9639 80.2876 18.9404ZM76.7085 13.6652C75.7487 13.66 74.8238 13.6926 73.9572 14.1038C72.8771 14.6168 72.3791 15.4471 72.4243 16.652C72.4722 17.93 73.6493 18.9078 74.8988 18.7067C75.5133 18.6088 76.0488 18.3203 76.5701 17.9953C76.6787 17.9274 76.7111 17.8504 76.7098 17.7277C76.7059 16.4966 76.7072 15.2656 76.7072 14.0333C76.7085 13.9237 76.7085 13.8127 76.7085 13.6652Z" fill="#253858"/>
<path id="Vector_25" d="M106.27 11.1948C105.807 11.1948 105.371 11.1948 104.921 11.1948C104.914 11.136 104.905 11.0838 104.905 11.0316C104.904 10.4572 104.901 9.88285 104.909 9.30846C104.91 9.23797 104.958 9.12701 105.015 9.10351C106.421 8.48866 107.878 8.10746 109.425 8.23278C109.836 8.26672 110.255 8.35419 110.646 8.48995C111.718 8.86591 112.27 9.68312 112.431 10.7888C112.471 11.0603 112.479 11.3397 112.48 11.6151C112.484 13.3174 112.472 15.021 112.489 16.7232C112.494 17.2036 112.539 17.6918 112.634 18.1631C112.776 18.8719 113.184 19.1082 113.882 18.962C113.935 18.9503 113.988 18.9411 114.064 18.9268C114.085 19.1539 114.108 19.3706 114.119 19.5873C114.121 19.6252 114.073 19.6891 114.037 19.7022C113.491 19.881 112.936 20.0037 112.361 19.8745C111.736 19.7348 111.358 19.3093 111.127 18.7336C111.053 18.5482 111.001 18.355 110.932 18.1422C110.723 18.3263 110.525 18.5117 110.317 18.684C109.625 19.2584 108.874 19.727 107.973 19.8641C106.583 20.0768 105.404 19.6944 104.566 18.4999C103.723 17.2963 103.763 14.9831 105.76 13.8604C106.484 13.4532 107.275 13.2508 108.09 13.1673C108.81 13.0942 109.537 13.0798 110.261 13.0407C110.322 13.0367 110.382 13.0407 110.432 13.0407C110.45 13.0132 110.465 13.0028 110.465 12.991C110.45 12.2731 110.474 11.5512 110.409 10.8371C110.346 10.1413 110.086 9.50948 109.408 9.17921C108.823 8.89463 108.206 8.91161 107.607 9.12309C106.576 9.4873 106.346 10.0016 106.271 11.0499C106.268 11.0917 106.27 11.1321 106.27 11.1948ZM110.462 13.6646C109.59 13.6581 108.738 13.6842 107.929 14.0184C106.834 14.4714 106.211 15.2507 106.197 16.4974C106.182 17.8407 107.38 18.9242 108.691 18.7049C109.291 18.6043 109.815 18.3237 110.326 18.0117C110.441 17.9412 110.476 17.8589 110.475 17.7258C110.47 16.4465 110.472 15.1672 110.471 13.8866C110.471 13.8213 110.466 13.7547 110.462 13.6646Z" fill="#253858"/>
<path id="Vector_26" d="M99.0674 13.0311C99.0273 12.0912 99.1722 11.1539 98.8656 10.2453C98.5836 9.40987 97.9653 8.98561 97.0922 8.98691C96.6213 8.98822 96.1867 9.08612 95.7702 9.30282C95.2476 9.57435 94.9889 10.0182 94.9061 10.5847C94.8777 10.7819 94.8648 10.9803 94.8428 11.1892C94.403 11.1892 93.967 11.1892 93.5169 11.1892C93.5104 11.1461 93.4975 11.1004 93.4975 11.0547C93.4962 10.466 93.4923 9.87851 93.5027 9.28977C93.504 9.22189 93.5635 9.11876 93.623 9.09396C94.6979 8.62401 95.8103 8.28851 96.9874 8.22324C97.6316 8.18669 98.2732 8.20758 98.9044 8.37859C100.162 8.7193 100.926 9.62787 101.036 10.9385C101.062 11.2479 101.074 11.5599 101.075 11.8693C101.081 13.6551 101.078 15.4409 101.093 17.2267C101.096 17.5413 101.146 17.8611 101.212 18.1692C101.357 18.8376 101.744 19.0869 102.412 18.9747C102.48 18.9629 102.546 18.9473 102.652 18.9251C102.674 19.1757 102.694 19.4185 102.715 19.6718C102.04 19.8937 101.369 20.066 100.682 19.7866C99.9625 19.4955 99.709 18.8467 99.5266 18.151C99.211 18.416 98.9161 18.6823 98.6017 18.9225C97.8838 19.4694 97.0948 19.8506 96.1816 19.9172C94.3603 20.0503 92.9503 18.8768 92.7007 17.3651C92.4497 15.8456 93.0823 14.4462 94.6358 13.7112C95.3899 13.3548 96.1971 13.1943 97.0185 13.1251C97.6381 13.0729 98.2628 13.0677 98.885 13.0415C98.938 13.0402 98.9911 13.0363 99.0674 13.0311ZM99.0635 13.6642C98.1348 13.6642 97.2345 13.6877 96.3885 14.0728C95.3408 14.5506 94.7742 15.343 94.782 16.5375C94.7884 17.8768 95.9642 18.9146 97.2733 18.7044C97.8683 18.6092 98.3857 18.3324 98.8915 18.0217C99.017 17.9447 99.0674 17.8625 99.0661 17.7097C99.0596 16.4356 99.0622 15.1628 99.0622 13.8888C99.0635 13.8222 99.0635 13.7543 99.0635 13.6642Z" fill="#253858"/>
<path id="Vector_27" d="M17.8915 19.8759C15.2747 19.8994 13.2788 18.2546 12.729 15.6229C12.3513 13.8136 12.5518 12.0826 13.5556 10.5056C14.4119 9.15973 15.6666 8.43392 17.2408 8.26813C18.4231 8.14411 19.5537 8.31643 20.5872 8.93389C21.86 9.69365 22.609 10.8529 22.9686 12.2745C23.4213 14.0694 23.2531 15.8043 22.3231 17.4191C21.5108 18.8277 20.2754 19.6305 18.6702 19.8446C18.5952 19.8551 18.5214 19.8733 18.4464 19.8746C18.2614 19.8785 18.0765 19.8759 17.8915 19.8759ZM21.1318 13.8397C21.102 13.5577 21.0723 13.0525 20.9934 12.5564C20.8394 11.5774 20.5303 10.6544 19.9171 9.85943C19.0039 8.67411 17.5099 8.44697 16.3716 9.33204C15.8322 9.75239 15.4739 10.3176 15.223 10.9468C14.5814 12.5512 14.4947 14.2065 14.8271 15.8905C15.0095 16.816 15.3433 17.6776 15.9641 18.406C16.7972 19.3838 18.1502 19.6083 19.1928 18.9334C19.7205 18.5914 20.0892 18.1045 20.3712 17.5497C20.9274 16.4557 21.1046 15.2756 21.1318 13.8397Z" fill="#0065FF"/>
<path id="Vector_28" d="M84.4855 18.9072C86.9315 18.9072 89.3349 18.9072 91.7512 18.9072C91.7512 19.1604 91.7512 19.4059 91.7512 19.6643C88.5251 19.6643 85.3068 19.6643 82.0717 19.6643C82.0653 19.3314 82.0485 19.0351 82.2697 18.7283C84.5333 15.5718 86.7789 12.4023 89.0283 9.23536C89.0542 9.19881 89.0788 9.16094 89.1253 9.09044C89.018 9.09044 88.9468 9.09044 88.8744 9.09044C87.4825 9.09175 86.0907 9.08785 84.6989 9.09568C84.4195 9.09699 84.1401 9.13744 83.8607 9.15833C83.6511 9.17399 83.5334 9.30192 83.5037 9.49774C83.4726 9.70138 83.461 9.90896 83.4545 10.1165C83.4468 10.3711 83.4519 10.6256 83.4519 10.8906C83.0574 10.8906 82.712 10.8906 82.3628 10.8906C82.3628 10.0774 82.3628 9.27844 82.3628 8.46777C85.4013 8.46777 88.4281 8.46777 91.4653 8.46777C91.5015 8.81763 91.4692 9.11133 91.248 9.41941C89.0231 12.5185 86.8177 15.6319 84.6071 18.7414C84.5786 18.7832 84.5463 18.8262 84.4855 18.9072Z" fill="#253858"/>
<path id="Vector_29" d="M114.834 9.03816C114.834 8.86585 114.834 8.67395 114.834 8.469C116.133 8.469 117.424 8.469 118.734 8.469C118.734 9.15043 118.734 9.82403 118.734 10.4976C119.757 8.91937 121.066 7.95858 123.046 8.28233C123.046 9.33449 123.046 10.3423 123.046 11.3631C122.677 11.3631 122.317 11.3631 121.945 11.3631C121.905 11.0563 121.876 10.7417 121.822 10.4324C121.735 9.93499 121.658 9.87102 121.156 9.88016C120.246 9.89713 119.584 10.3645 119.04 11.0576C118.821 11.3357 118.726 11.6216 118.732 11.9845C118.751 13.645 118.736 15.3055 118.743 16.966C118.746 17.3785 118.785 17.7923 118.818 18.2048C118.849 18.5886 119.051 18.8367 119.435 18.8954C119.792 18.9489 120.153 18.9816 120.514 19.0194C120.634 19.0325 120.756 19.0338 120.884 19.0416C120.884 19.2609 120.884 19.458 120.884 19.6643C118.867 19.6643 116.861 19.6643 114.828 19.6643C114.828 19.4828 114.816 19.3053 114.836 19.1304C114.841 19.0873 114.944 19.0338 115.009 19.0246C115.347 18.9737 115.688 18.9424 116.026 18.8902C116.402 18.8314 116.628 18.6147 116.658 18.2192C116.687 17.8328 116.729 17.4477 116.731 17.0613C116.738 15.0614 116.74 13.0615 116.729 11.0616C116.727 10.6347 116.675 10.2078 116.632 9.78225C116.605 9.51464 116.447 9.33319 116.185 9.27967C115.742 9.19351 115.299 9.12171 114.834 9.03816Z" fill="#253858"/>
<path id="Vector_30" d="M23.066 3.9344C23.066 3.75426 23.066 3.57802 23.066 3.38482C23.1437 3.38091 23.2109 3.37438 23.2782 3.37438C24.4087 3.37438 25.5405 3.3796 26.6711 3.36916C26.8716 3.36785 26.9065 3.43965 26.9065 3.6198C26.9091 6.11706 26.9168 8.61433 26.9246 11.1129C26.9324 13.853 26.9401 16.5917 26.9479 19.3318C26.9492 19.6386 26.9479 19.6386 26.6465 19.6386C26.0437 19.6386 25.4422 19.6386 24.8175 19.6386C24.8123 19.5577 24.8058 19.4911 24.8058 19.4245C24.8149 17.9167 24.8201 16.4077 24.8343 14.8999C24.8433 13.8203 24.8653 12.7421 24.8783 11.6625C24.9003 9.643 24.9235 7.62352 24.9365 5.60403C24.9378 5.35078 24.9028 5.09231 24.8511 4.84428C24.7696 4.45135 24.5225 4.18896 24.1332 4.10411C23.7852 4.0297 23.4321 3.99184 23.066 3.9344Z" fill="#0065FF"/>
<path id="Vector_31" d="M55.9948 8.4811C55.7711 8.91188 55.5408 9.31004 55.3507 9.72908C54.246 12.165 53.1504 14.6048 52.0535 17.0434C51.2554 18.8161 50.465 20.5941 49.6605 22.3629C49.3668 23.0091 48.9503 23.5391 48.1884 23.641C47.8974 23.6801 47.5999 23.6893 47.3063 23.6879C46.7242 23.6853 46.1408 23.6671 45.5587 23.6514C45.4358 23.6488 45.3142 23.6318 45.1965 23.6214C45.1202 23.2976 45.1435 23.2598 45.441 23.2689C45.8239 23.2807 46.2068 23.3015 46.5896 23.3277C47.2157 23.3694 47.8159 23.2872 48.3876 23.0078C48.7408 22.8355 49.0253 22.5875 49.1806 22.2285C49.4069 21.7037 49.5958 21.1633 49.8015 20.6307C49.9036 20.367 49.9942 20.098 50.1158 19.8435C50.1805 19.709 50.174 19.6059 50.121 19.4754C48.9671 16.6922 47.8159 13.9091 46.6647 11.1246C46.5146 10.7617 46.3801 10.3909 46.2119 10.0358C45.9584 9.49932 45.5665 9.1325 44.9469 9.06984C44.9042 9.06592 44.868 8.9876 44.8317 8.94191C44.8253 8.93277 44.8304 8.91451 44.8304 8.90145C44.8382 8.38712 44.7684 8.48501 45.2353 8.4824C46.1744 8.47587 47.1148 8.4811 48.0539 8.4811C48.1276 8.4811 48.2014 8.4811 48.3087 8.4811C48.3087 8.73435 48.323 8.96802 48.3061 9.19908C48.2738 9.65336 48.3876 10.0724 48.5597 10.4862C49.4625 12.6558 50.359 14.8294 51.2592 17.0016C51.2851 17.0629 51.3136 17.1217 51.3537 17.2078C51.3925 17.153 51.4209 17.1256 51.4365 17.0917C52.3562 14.9952 53.2888 12.9065 54.1839 10.7995C54.4762 10.1103 54.6729 9.37922 54.9018 8.66255C54.9484 8.51634 55.0169 8.47196 55.1631 8.47848C55.4334 8.48893 55.7064 8.4811 55.9948 8.4811Z" fill="#0065FF"/>
<path id="Vector_32" d="M43.7044 18.4539C43.7044 18.7019 43.7122 18.9225 43.6992 19.1431C43.6967 19.2006 43.6449 19.288 43.5958 19.3076C42.0681 19.8859 40.5055 20.1352 38.9119 19.6509C37.2679 19.1523 36.18 18.0191 35.6018 16.4148C34.8632 14.3666 34.9719 12.3601 36.136 10.4895C36.9768 9.13837 38.2471 8.43997 39.8083 8.26896C41.0915 8.12798 42.3281 8.40995 43.5647 8.68931C43.6734 8.71411 43.7044 8.77416 43.7031 8.87859C43.7005 9.64618 43.6992 10.4151 43.7031 11.1827C43.7044 11.3171 43.6553 11.3654 43.522 11.3615C43.2478 11.3537 42.9736 11.3511 42.6994 11.3628C42.5402 11.3693 42.4924 11.3184 42.4795 11.1539C42.4562 10.8524 42.4212 10.5469 42.3436 10.2558C42.0565 9.17623 41.3412 8.79505 40.2714 8.85509C39.0853 8.92167 38.3221 9.60703 37.8124 10.6305C37.458 11.3432 37.2989 12.1108 37.2291 12.9006C37.1256 14.065 37.2485 15.2047 37.6093 16.3143C38.0634 17.7072 38.9675 18.6118 40.4228 18.8846C41.4602 19.0792 42.4665 18.9212 43.4457 18.5505C43.5246 18.5217 43.6009 18.493 43.7044 18.4539Z" fill="#0065FF"/>
<path id="Vector_33" d="M29.6479 9.06167C29.6479 8.86586 29.6479 8.68832 29.6479 8.49512C30.9285 8.49512 32.1988 8.49512 33.4819 8.49512C33.5143 12.2025 33.5466 15.9034 33.579 19.6212C32.8662 19.6212 32.1716 19.6212 31.4576 19.6212C31.4576 19.4567 31.4563 19.2857 31.4576 19.116C31.4718 17.5312 31.4886 15.9477 31.5029 14.363C31.5132 13.1724 31.5274 11.9832 31.53 10.7927C31.53 10.5459 31.5054 10.2953 31.4602 10.0512C31.3593 9.51204 31.1019 9.26401 30.5676 9.1648C30.4202 9.13738 30.2701 9.11519 30.1214 9.09822C29.9713 9.08256 29.8213 9.07603 29.6479 9.06167Z" fill="#0065FF"/>
<path id="Vector_34" d="M33.4812 4.4248C33.4812 5.06968 33.4812 5.70934 33.4812 6.36466C32.8422 6.36466 32.2032 6.36466 31.5513 6.36466C31.5513 5.71848 31.5513 5.08013 31.5513 4.4248C32.1941 4.4248 32.8319 4.4248 33.4812 4.4248Z" fill="#0065FF"/>
<path id="Vector_35" d="M149.975 13.6826C149.975 20.4329 144.553 25.9065 137.864 25.9065C131.175 25.9065 125.751 20.4342 125.751 13.6826C125.751 6.93228 131.174 1.45996 137.864 1.45996C144.553 1.45866 149.975 6.93097 149.975 13.6826Z" fill="#0065FF"/>
<path id="Vector_36" d="M133.506 16.7925L134.326 16.5706C134.462 17.1476 134.417 17.6619 134.191 18.1136C133.966 18.5653 133.598 18.8968 133.088 19.1096C132.449 19.3746 131.849 19.3785 131.289 19.1175C130.729 18.8577 130.288 18.3342 129.967 17.547C129.76 17.0379 129.662 16.5588 129.672 16.1072C129.684 15.6568 129.821 15.2639 130.085 14.931C130.348 14.5981 130.681 14.3488 131.082 14.1817C131.589 13.9715 132.057 13.9284 132.484 14.0524C132.912 14.1778 133.268 14.4584 133.554 14.897L132.833 15.337C132.63 15.0511 132.404 14.867 132.153 14.7848C131.902 14.7025 131.645 14.7156 131.381 14.8252C130.982 14.991 130.717 15.2704 130.585 15.662C130.453 16.0536 130.515 16.5628 130.77 17.1867C131.029 17.8199 131.337 18.2298 131.694 18.4164C132.051 18.6031 132.423 18.6162 132.81 18.4556C133.12 18.3264 133.34 18.1227 133.471 17.8434C133.603 17.5666 133.613 17.2155 133.506 16.7925Z" fill="white"/>
<path id="Vector_37" d="M134.41 15.6801C134.054 14.8081 134.031 14.0614 134.34 13.4413C134.599 12.9257 135.018 12.5471 135.595 12.3069C136.236 12.0406 136.848 12.0341 137.429 12.29C138.01 12.5458 138.452 13.0471 138.757 13.7951C139.004 14.4008 139.109 14.9164 139.072 15.3381C139.033 15.761 138.881 16.1396 138.615 16.4751C138.349 16.8106 138.012 17.0626 137.605 17.2323C136.952 17.5038 136.337 17.5116 135.761 17.2571C135.185 17.0012 134.734 16.4764 134.41 15.6801ZM135.222 15.342C135.468 15.9451 135.783 16.3433 136.166 16.5352C136.549 16.7271 136.94 16.7401 137.336 16.5756C137.729 16.4125 137.994 16.1253 138.131 15.7154C138.27 15.3055 138.211 14.7911 137.959 14.1724C137.721 13.5901 137.409 13.2024 137.025 13.0119C136.641 12.8213 136.253 12.8056 135.864 12.9675C135.468 13.132 135.2 13.4178 135.062 13.8251C134.923 14.2337 134.976 14.7389 135.222 15.342Z" fill="white"/>
<path id="Vector_38" d="M140.673 15.8319L138.751 11.1194L139.458 10.8257L139.729 11.4875C139.78 11.1964 139.899 10.9288 140.086 10.6873C140.272 10.4458 140.52 10.2604 140.831 10.1312C141.176 9.98759 141.489 9.9419 141.77 9.99542C142.05 10.0489 142.289 10.186 142.486 10.4092C142.631 9.70562 143 9.23044 143.592 8.98502C144.055 8.79313 144.464 8.77355 144.819 8.92889C145.173 9.08424 145.46 9.43148 145.68 9.96931L147 13.2041L146.213 13.5305L145.002 10.562C144.872 10.2421 144.753 10.0228 144.644 9.90404C144.535 9.78525 144.396 9.71084 144.226 9.68081C144.057 9.65079 143.881 9.67429 143.698 9.75C143.37 9.88576 143.142 10.1103 143.015 10.421C142.889 10.7317 142.924 11.1298 143.122 11.6141L144.239 14.3516L143.447 14.6806L142.198 11.6194C142.053 11.2643 141.88 11.0254 141.679 10.9014C141.477 10.7774 141.23 10.7761 140.938 10.8988C140.716 10.9915 140.533 11.1364 140.392 11.3335C140.251 11.5306 140.185 11.7603 140.193 12.024C140.201 12.2864 140.293 12.6337 140.467 13.0618L141.465 15.5069L140.673 15.8319Z" fill="white"/>
<path id="Vector_39" d="M149.684 0.0917969C150.086 0.0917969 150.478 0.19623 150.861 0.403792C151.244 0.612659 151.541 0.908989 151.755 1.2967C151.968 1.68441 152.075 2.08778 152.075 2.50813C152.075 2.92456 151.971 3.32401 151.76 3.70781C151.549 4.0916 151.254 4.39054 150.875 4.60202C150.496 4.8148 150.099 4.92054 149.684 4.92054C149.27 4.92054 148.873 4.8148 148.492 4.60202C148.113 4.39054 147.817 4.0916 147.606 3.70781C147.395 3.32401 147.289 2.92325 147.289 2.50813C147.289 2.08778 147.397 1.68441 147.612 1.2967C147.826 0.908989 148.125 0.611354 148.508 0.403792C148.89 0.19623 149.283 0.0917969 149.684 0.0917969ZM149.684 0.492559C149.347 0.492559 149.02 0.580022 148.702 0.753643C148.384 0.927264 148.134 1.1766 147.956 1.49904C147.776 1.82278 147.687 2.15958 147.687 2.50943C147.687 2.85667 147.774 3.19086 147.952 3.50938C148.128 3.82791 148.375 4.07724 148.693 4.25478C149.01 4.43231 149.341 4.52239 149.685 4.52239C150.03 4.52239 150.36 4.43362 150.678 4.25478C150.995 4.07593 151.242 3.82791 151.417 3.50938C151.593 3.19086 151.681 2.85667 151.681 2.50943C151.681 2.15958 151.592 1.82278 151.413 1.49904C151.235 1.17529 150.985 0.927264 150.667 0.753643C150.349 0.580022 150.019 0.492559 149.684 0.492559ZM148.635 3.84357V1.24448H149.519C149.822 1.24448 150.041 1.26798 150.177 1.31628C150.312 1.36458 150.42 1.44813 150.5 1.56692C150.58 1.68702 150.62 1.81364 150.62 1.9481C150.62 2.13869 150.553 2.30318 150.418 2.44416C150.284 2.58515 150.107 2.66347 149.884 2.68044C149.975 2.7183 150.049 2.76529 150.103 2.81882C150.206 2.92064 150.333 3.09295 150.483 3.33446L150.797 3.84357H150.29L150.061 3.43367C149.882 3.11123 149.737 2.9102 149.627 2.82926C149.55 2.76921 149.439 2.73919 149.293 2.73919H149.049V3.84357H148.635ZM149.05 2.3815H149.554C149.795 2.3815 149.959 2.34495 150.047 2.27315C150.135 2.20005 150.179 2.10475 150.179 1.98465C150.179 1.90763 150.157 1.83845 150.116 1.7784C150.073 1.71704 150.015 1.67266 149.94 1.64263C149.865 1.61261 149.726 1.59825 149.523 1.59825H149.051V2.3815H149.05Z" fill="black"/>
</g>
</svg>
