<svg width="100" height="35" viewBox="0 0 100 35" fill="none" xmlns="http://www.w3.org/2000/svg">
<g clip-path="url(#clip0_2342_893)">
<path d="M15.6491 28.776C23.6062 28.1196 29.5229 21.1569 28.8645 13.2244C28.2061 5.2919 21.222 -0.606593 13.2649 0.0497604C5.30788 0.706114 -0.608854 7.66877 0.0495283 15.6013C0.70791 23.5338 7.69209 29.4323 15.6491 28.776Z" fill="#0065FD"/>
<path d="M5.8306 10.6569C6.10576 10.6569 6.38093 10.6662 6.65609 10.6662H8.57519C8.68808 10.6662 8.721 10.7014 8.721 10.8116C8.7116 11.2055 8.721 11.6017 8.721 11.9956V12.1598C8.721 12.1598 8.74687 12.1691 8.75628 12.1762C8.78215 12.134 8.81743 12.0988 8.8433 12.0566C9.28309 11.4142 9.82401 10.889 10.5813 10.6405C11.9759 10.1856 13.4647 10.6498 14.1185 12.3825C14.436 13.2312 14.5065 14.1081 14.4454 14.999C14.3842 15.8665 14.2031 16.7153 13.7563 17.4796C13.1025 18.5863 12.1288 19.1185 10.8377 19.0083C10.1062 18.9403 9.47829 18.6214 8.95148 18.115C8.89034 18.054 8.8386 17.9861 8.78685 17.9181C8.77039 17.9274 8.75158 17.9345 8.73511 17.9438V21.8218H7.27227C7.27227 21.7796 7.26287 21.7444 7.26287 21.7022C7.26287 18.6378 7.27227 15.5758 7.27227 12.5114C7.27227 12.2793 7.25581 12.0472 7.22053 11.8174C7.15233 11.4306 6.96183 11.243 6.57613 11.1727C6.38563 11.1375 6.19748 11.1211 5.99993 11.1047C5.89645 11.0953 5.87058 11.0625 5.87058 10.9664C5.87058 10.8702 5.85412 10.7764 5.84471 10.6827C5.82825 10.6733 5.82825 10.6662 5.82825 10.6569H5.8306ZM8.72336 14.999C8.72336 15.7376 8.72336 16.4668 8.73276 17.2053C8.73276 17.2733 8.7751 17.3765 8.83624 17.421C9.38657 17.8243 9.98159 18.1338 10.6707 18.2275C11.2045 18.2955 11.6961 18.2018 12.0912 17.8149C12.4087 17.5148 12.5898 17.1279 12.7027 16.7176C12.9872 15.679 13.0037 14.6333 12.8155 13.5759C12.7121 13.0343 12.5498 12.5208 12.2205 12.066C11.7901 11.447 11.1951 11.2243 10.4825 11.4306C9.75816 11.6369 9.20783 12.073 8.77039 12.6756C8.73511 12.7271 8.72806 12.7951 8.72806 12.8655C8.71865 13.5688 8.72806 14.291 8.72806 15.0014L8.72336 14.999Z" fill="white"/>
<path d="M14.2788 7.44901V7.00588H17.1457V12.2085C17.3433 11.9694 17.5126 11.7302 17.7196 11.5262C18.618 10.6142 19.7045 10.3141 20.9369 10.6634C21.7153 10.8862 22.221 11.4489 22.5879 12.1476C22.8866 12.7361 23.0253 13.3667 23.0676 14.0162C23.1264 14.9892 23.0512 15.9434 22.6819 16.8649C22.3833 17.6081 21.92 18.2388 21.2097 18.6561C20.0549 19.322 18.5145 19.1602 17.4962 18.2716C17.3927 18.1872 17.308 18.0934 17.2045 18.0067C17.1692 17.9809 17.1269 17.9551 17.0846 17.9551C17.0681 17.9551 17.0422 18.0137 17.0328 18.0583C16.9811 18.3232 16.9294 18.5952 16.8776 18.8601C16.8682 18.9023 16.8188 18.9633 16.793 18.9633C16.4167 18.9727 16.0474 18.9727 15.6547 18.9727V8.89796C15.6547 8.58144 15.6123 8.26727 15.5865 7.95075C15.57 7.76318 15.4501 7.64361 15.269 7.61078C14.9962 7.5592 14.721 7.517 14.4482 7.4748C14.3964 7.45838 14.3376 7.45838 14.2765 7.44901H14.2788ZM17.1528 15.0478V17.24C17.1528 17.2986 17.1787 17.376 17.221 17.4018C17.7596 17.7933 18.3334 18.0934 19.0013 18.1943C20.0785 18.356 20.8499 17.9481 21.2262 16.9141C21.4143 16.3842 21.4825 15.8403 21.4919 15.2846C21.5178 14.525 21.4825 13.7747 21.2873 13.0408C21.1674 12.6048 20.9886 12.1968 20.6453 11.8803C20.1655 11.4536 19.601 11.3949 18.9943 11.5145C18.2746 11.6505 17.7266 12.0678 17.2657 12.6071C17.181 12.7009 17.1551 12.7947 17.1551 12.9236V15.0478H17.1528Z" fill="white"/>
<path d="M28.5301 0.773713C29.3697 0.783092 30.2093 0.799504 31.0513 0.801849C33.0127 0.806538 34.9765 0.811227 36.9403 0.794815C37.2907 0.79247 37.3965 0.895632 37.3895 1.24263C37.3706 2.45478 37.3824 3.66459 37.3824 4.87674V5.37614C37.4224 5.39255 37.46 5.40896 37.5 5.42772C37.5917 5.30815 37.6905 5.19092 37.7728 5.06431C39.1086 3.08313 40.7784 1.48178 43.095 0.726822C47.3659 -0.665863 51.9426 0.759646 53.937 6.07483C54.9106 8.67028 55.127 11.3666 54.9365 14.091C54.7507 16.7544 54.1886 19.3499 52.8175 21.6827C50.8208 25.0801 47.8198 26.7025 43.8593 26.3532C41.6157 26.1562 39.6942 25.1645 38.0691 23.6123C37.8833 23.4342 37.7352 23.2138 37.5682 23.0145C37.5165 23.0426 37.4671 23.0707 37.4153 23.1012V35H32.9398C32.9304 34.8781 32.9092 34.7608 32.9092 34.6436C32.9186 25.2489 32.9304 15.8541 32.9304 6.45934C32.9304 5.74893 32.881 5.03148 32.7634 4.33045C32.5635 3.13471 31.9802 2.56732 30.7879 2.34928C30.2093 2.24377 29.6166 2.18516 29.0287 2.14999C28.7206 2.13123 28.6265 2.02103 28.6218 1.73031C28.6195 1.44192 28.563 1.15588 28.5301 0.869842V0.776058V0.773713ZM37.38 14.1003C37.38 16.3512 37.3706 18.602 37.3942 20.8528C37.3965 21.0732 37.5376 21.3686 37.7117 21.4975C39.3932 22.7402 41.2229 23.6827 43.3255 23.9617C44.9553 24.1797 46.4581 23.8726 47.6905 22.6956C48.6665 21.7648 49.2192 20.5925 49.5696 19.3217C50.4468 16.1425 50.4962 12.9257 49.9036 9.69721C49.6002 8.03959 49.0757 6.45699 48.0903 5.05727C46.7639 3.17457 44.9553 2.48292 42.7634 3.10189C40.5527 3.72555 38.8452 5.08072 37.5117 6.91653C37.4059 7.0619 37.3847 7.29401 37.3847 7.48392C37.3753 9.68783 37.38 11.8917 37.38 14.098V14.1003Z" fill="#0065FD"/>
<path d="M78.4921 24.3856C78.5062 24.5544 78.518 24.7232 78.5321 24.8897C78.6285 26.0924 78.6332 26.1253 77.4385 26.3621C76.7283 26.5027 75.9874 26.6036 75.2678 26.5637C73.384 26.4559 72.3068 25.2976 71.6953 23.6189C71.5777 23.3 71.4954 22.9694 71.3802 22.592C70.884 23.0257 70.423 23.4501 69.9385 23.844C68.3769 25.1171 66.6695 26.0971 64.6539 26.4723C61.3919 27.0795 58.0947 25.6282 56.6201 22.9272C55.0326 20.0246 55.4418 15.4199 59.4728 13.0776C61.1591 12.0976 63.0124 11.631 64.9268 11.4317C66.5331 11.2676 68.1511 11.2371 69.7645 11.148C69.9479 11.1387 70.129 11.148 70.3689 11.148C70.303 9.02619 70.5688 6.94185 69.915 4.91613C69.3059 3.03342 67.8548 1.98305 65.8698 2.07214C65.0914 2.10731 64.2918 2.22923 63.5509 2.46369C61.8317 3.00763 60.9851 4.27371 60.8416 6.03684C60.8157 6.34164 60.7993 6.64878 60.7781 6.98405H57.6643V6.4026C57.6643 5.19044 57.6549 3.98064 57.676 2.76848C57.6784 2.60905 57.7913 2.36287 57.9183 2.3066C61.1121 0.930328 64.4188 0.0862768 67.9347 0.337148C69.3106 0.43562 70.6417 0.728694 71.8506 1.43676C73.6074 2.46603 74.4776 4.07208 74.7621 6.02277C74.875 6.80118 74.922 7.59599 74.9244 8.38612C74.9409 11.9897 74.9056 15.591 74.9456 19.1947C74.9573 20.381 75.0608 21.5791 75.2654 22.7467C75.463 23.8838 76.1191 24.4489 77.1281 24.5216C77.5655 24.5544 78.0171 24.4348 78.4968 24.3809L78.4921 24.3856ZM70.3618 12.5478C68.1817 12.536 66.0815 12.6111 64.113 13.5325C61.6577 14.6813 60.5288 16.5476 60.6323 19.2486C60.7428 22.116 63.4145 24.3106 66.2532 23.8604C67.6502 23.64 68.8661 22.9952 70.049 22.2637C70.296 22.1113 70.3689 21.9402 70.3665 21.6635C70.3571 18.9016 70.3618 16.1373 70.3618 13.3754C70.3618 13.1292 70.3618 12.8807 70.3618 12.5478Z" fill="#0065FD"/>
<path d="M99.9998 0.555993C99.4918 1.52196 98.9674 2.4176 98.537 3.35543C96.0276 8.82066 93.5393 14.2953 91.0464 19.7699C89.2355 23.7487 87.4387 27.7368 85.6113 31.7085C84.9434 33.1575 83.9979 34.3485 82.2693 34.576C81.6085 34.6627 80.9335 34.6838 80.2656 34.6815C78.9415 34.6744 77.6198 34.6346 76.2957 34.5994C76.0182 34.5924 75.7407 34.5549 75.4725 34.5338C75.2985 33.8069 75.3502 33.7202 76.0276 33.7413C76.8977 33.7694 77.7679 33.814 78.6381 33.8726C80.061 33.9664 81.425 33.7835 82.7232 33.1551C83.5252 32.7659 84.1743 32.2126 84.5247 31.4061C85.0374 30.2291 85.4678 29.0169 85.9359 27.8212C86.1663 27.2304 86.3733 26.6255 86.6485 26.0557C86.7943 25.7533 86.7825 25.5212 86.6602 25.2304C84.0379 18.9868 81.425 12.7385 78.8098 6.49249C78.4688 5.67657 78.163 4.84659 77.782 4.05177C77.2082 2.84666 76.3145 2.0237 74.9104 1.88537C74.814 1.876 74.7317 1.70015 74.6494 1.59699C74.6329 1.57823 74.647 1.53603 74.647 1.50555C74.6635 0.34967 74.5036 0.570061 75.5643 0.563027C77.6974 0.548959 79.8328 0.558338 81.966 0.558338H82.5445C82.5445 1.12573 82.5751 1.65092 82.5375 2.16907C82.4622 3.18896 82.7232 4.1268 83.1136 5.0576C85.1644 9.92731 87.2011 14.8041 89.2449 19.6761C89.3037 19.8121 89.3695 19.9457 89.4589 20.138C89.5483 20.0161 89.6118 19.9528 89.6447 19.8777C91.7331 15.1745 93.8521 10.4853 95.8841 5.75863C96.5497 4.2112 96.9942 2.57234 97.5163 0.963951C97.6221 0.633365 97.7797 0.537236 98.1113 0.551304C98.7275 0.577094 99.346 0.558338 99.9998 0.558338V0.555993Z" fill="#0065FD"/>
</g>
<defs>
<clipPath id="clip0_2342_893">
<rect width="100" height="35" fill="white"/>
</clipPath>
</defs>
</svg>
