<svg width="32" height="32" viewBox="0 0 32 32" fill="none" xmlns="http://www.w3.org/2000/svg">
<rect width="32" height="32" fill="#E5E5E5"/>
<g id="Payment mode selection">
<rect width="1300" height="768" transform="translate(-48 -590)" fill="#EBF3FF"/>
<g id="Rectangle 33769" filter="url(#filter0_d_7846_3061)">
<rect x="-16" y="-434" width="768" height="554" rx="8" fill="none"/>
</g>
<path id="Rectangle 33771" d="M-16 -426C-16 -430.418 -12.4183 -434 -8 -434H242V120H-8C-12.4183 120 -16 116.418 -16 112V-426Z" fill="#F4F5F7"/>
<g id="EMI">
<g id="Rectangle 33777">
<mask id="path-3-inside-1_7846_3061" fill="none">
<path d="M-16 -14H242V46H-16V-14Z"/>
</mask>
<path d="M-16 -14H242V46H-16V-14Z" fill="none"/>
<path d="M242 45H-16V47H242V45Z" fill="#C8DCF0" mask="url(#path-3-inside-1_7846_3061)"/>
</g>
<g id="Group 1261153011">
<g id="Group 24041517">
<g id="Group 1261153089">
<g id="card-machine 1">
<g id="Group">
<g id="Group_2">
<path id="Vector" fill-rule="evenodd" clip-rule="evenodd" d="M16.5003 7.00024H14.5412C14.2773 7.00024 14.2318 7.18294 14.2669 7.39294C14.1083 7.14094 14.0004 7.30894 14.0004 7.50004C14.0004 7.77514 14.224 7.99984 14.4996 7.99984H16.5003C16.7759 7.99984 16.9995 8.22454 16.9995 8.49964V27.5004C16.9995 27.7755 16.7759 28.0002 16.5003 28.0002H5.49971C5.22411 28.0002 5.00051 27.7755 5.00051 27.5004V8.49964C5.00051 8.22454 5.22411 7.99984 5.49971 7.99984H7.50041L7.5264 7.95785C7.6434 7.76465 8.07369 7.00024 7.49779 7.00024H7.10388H7.09999H5.49971C4.67161 7.00024 3.99948 7.67224 3.99948 8.49964V27.5004C3.99948 28.3278 4.67161 28.9998 5.49971 28.9998H16.5003C17.3284 28.9998 18.0005 28.3278 18.0005 27.5004V8.49964C18.0005 7.67224 17.3284 7.00024 16.5003 7.00024Z" fill="#000"/>
</g>
<g id="Group_3">
<path id="Vector_2" d="M8 26.5C8.55228 26.5 9 26.0523 9 25.5C9 24.9477 8.55228 24.5 8 24.5C7.44772 24.5 7 24.9477 7 25.5C7 26.0523 7.44772 26.5 8 26.5Z" fill="#000"/>
</g>
<g id="Group_4">
<path id="Vector_3" d="M11 26.5C11.5523 26.5 12 26.0523 12 25.5C12 24.9477 11.5523 24.5 11 24.5C10.4477 24.5 10 24.9477 10 25.5C10 26.0523 10.4477 26.5 11 26.5Z" fill="#000"/>
</g>
<g id="Group_5">
<path id="Vector_4" d="M14 26.5C14.5523 26.5 15 26.0523 15 25.5C15 24.9477 14.5523 24.5 14 24.5C13.4477 24.5 13 24.9477 13 25.5C13 26.0523 13.4477 26.5 14 26.5Z" fill="#000"/>
</g>
<g id="Group_6">
<path id="Vector_5" d="M8 23.5C8.55228 23.5 9 23.0523 9 22.5C9 21.9477 8.55228 21.5 8 21.5C7.44772 21.5 7 21.9477 7 22.5C7 23.0523 7.44772 23.5 8 23.5Z" fill="#000"/>
</g>
<g id="Group_7">
<path id="Vector_6" d="M11 23.5C11.5523 23.5 12 23.0523 12 22.5C12 21.9477 11.5523 21.5 11 21.5C10.4477 21.5 10 21.9477 10 22.5C10 23.0523 10.4477 23.5 11 23.5Z" fill="#000"/>
</g>
<g id="Group_8">
<path id="Vector_7" d="M14 23.5C14.5523 23.5 15 23.0523 15 22.5C15 21.9477 14.5523 21.5 14 21.5C13.4477 21.5 13 21.9477 13 22.5C13 23.0523 13.4477 23.5 14 23.5Z" fill="#000"/>
</g>
<g id="Group_9">
<path id="Vector_8" d="M8 20.5C8.55228 20.5 9 20.0523 9 19.5C9 18.9477 8.55228 18.5 8 18.5C7.44772 18.5 7 18.9477 7 19.5C7 20.0523 7.44772 20.5 8 20.5Z" fill="#000"/>
</g>
<g id="Group_10">
<path id="Vector_9" d="M11 20.5C11.5523 20.5 12 20.0523 12 19.5C12 18.9477 11.5523 18.5 11 18.5C10.4477 18.5 10 18.9477 10 19.5C10 20.0523 10.4477 20.5 11 20.5Z" fill="#000"/>
</g>
<g id="Group_11">
<path id="Vector_10" d="M14 20.5C14.5523 20.5 15 20.0523 15 19.5C15 18.9477 14.5523 18.5 14 18.5C13.4477 18.5 13 18.9477 13 19.5C13 20.0523 13.4477 20.5 14 20.5Z" fill="#000"/>
</g>
<g id="Group_12">
<path id="Vector_11" fill-rule="evenodd" clip-rule="evenodd" d="M16.001 15.4627V13.4632C16.001 12.6355 15.329 11.9636 14.501 11.9636C12.767 11.9636 9.23302 11.9636 7.49902 11.9636C6.67102 11.9636 5.99902 12.6355 5.99902 13.4632V15.4627C5.99902 16.2905 6.67102 16.9624 7.49902 16.9624H14.501C15.329 16.9624 16.001 16.2905 16.001 15.4627ZM14.999 13.4632V15.4627C14.999 15.7387 14.777 15.9626 14.501 15.9626H7.49902C7.22302 15.9626 7.00098 15.7387 7.00098 15.4627V13.4632C7.00098 13.1873 7.22302 12.9634 7.49902 12.9634H14.501C14.777 12.9634 14.999 13.1873 14.999 13.4632Z" fill="#000"/>
</g>
<g id="Group_13">
<path id="Vector_12" fill-rule="evenodd" clip-rule="evenodd" d="M6.5 10H15.5C15.776 10 16 9.776 16 9.5C16 9.224 15.776 9 15.5 9H6.5C6.224 9 6 9.224 6 9.5C6 9.776 6.224 10 6.5 10Z" fill="#000"/>
</g>
<g id="Group_14">
<path id="Vector_13" fill-rule="evenodd" clip-rule="evenodd" d="M28 12.4995C28 11.1195 26.8812 10.0005 25.5 10.0005C22.5812 10.0005 17.5 10.0005 17.5 10.0005C17.2237 10.0005 17 10.224 17 10.5V22.5C17 22.776 17.2237 22.9995 17.5 22.9995H25.5C26.8812 22.9995 28 21.8805 28 20.5005V12.4995ZM27 12.4995V20.5005C27 21.3285 26.3287 22.0005 25.5 22.0005H18V10.9995H25.5C26.3287 10.9995 27 11.6715 27 12.4995Z" fill="#000"/>
</g>
<g id="Group_15">
<path id="Vector_14" fill-rule="evenodd" clip-rule="evenodd" d="M18.111 14H27.615C27.8915 14 28.1152 13.776 28.1152 13.5C28.1152 13.224 27.8915 13 27.615 13H18.111C17.8345 13 17.6107 13.224 17.6107 13.5C17.6107 13.776 17.8345 14 18.111 14Z" fill="#000"/>
</g>
<g id="Group_16">
<path id="Vector_15" fill-rule="evenodd" clip-rule="evenodd" d="M25.104 15.5503C25.104 15.2737 24.8801 15.0508 24.6035 15.0508H21.6025C21.3259 15.0508 21.102 15.2737 21.102 15.5503V19.5517C21.102 19.8283 21.3259 20.0512 21.6025 20.0512H24.6035C24.8801 20.0512 25.104 19.8283 25.104 19.5517V15.5503ZM24.103 16.0511V19.0508H22.103V16.0511H24.103Z" fill="#000"/>
</g>
<g id="Group_17">
<path id="Vector_16" fill-rule="evenodd" clip-rule="evenodd" d="M7 9.5C7 9.776 7.224 10 7.5 10H14.5C14.776 10 15 9.776 15 9.5V3.5C15 3.327 14.91 3.166 14.763 3.075C14.615 2.984 14.431 2.975 14.276 3.053L12.536 3.923L11.277 3.084C11.109 2.972 10.891 2.972 10.723 3.084L9.464 3.923L7.724 3.053C7.569 2.975 7.385 2.984 7.237 3.075C7.09 3.166 7 3.327 7 3.5V9.5ZM8 9V4.309L9.276 4.947C9.437 5.027 9.62799 5.016 9.77699 4.916L11 4.101L12.223 4.916C12.372 5.016 12.563 5.027 12.724 4.947L14 4.309V9H8Z" fill="#000"/>
</g>
</g>
</g>
</g>
</g>
</g>
</g>
</g>
<defs>
<filter id="filter0_d_7846_3061" x="-32" y="-444" width="800" height="586" filterUnits="userSpaceOnUse" color-interpolation-filters="sRGB">
<feFlood flood-opacity="0" result="BackgroundImageFix"/>
<feColorMatrix in="SourceAlpha" type="matrix" values="0 0 0 0 0 0 0 0 0 0 0 0 0 0 0 0 0 0 127 0" result="hardAlpha"/>
<feOffset dy="6"/>
<feGaussianBlur stdDeviation="8"/>
<feComposite in2="hardAlpha" operator="out"/>
<feColorMatrix type="matrix" values="0 0 0 0 0 0 0 0 0 0.396078 0 0 0 0 1 0 0 0 0.16 0"/>
<feBlend mode="normal" in2="BackgroundImageFix" result="effect1_dropShadow_7846_3061"/>
<feBlend mode="normal" in="SourceGraphic" in2="effect1_dropShadow_7846_3061" result="shape"/>
</filter>
</defs>
</svg>
