<svg width="56" height="56" viewBox="0 0 56 56" fill="none" xmlns="http://www.w3.org/2000/svg">
<g id="Group">
<path id="Vector" d="M56 28C56 30.3893 53.0647 32.3587 52.4767 34.5613C51.87 36.8387 53.4053 40.012 52.2527 42.0047C51.0813 44.03 47.558 44.2727 45.9153 45.9153C44.2727 47.558 44.03 51.0813 42.0047 52.2527C40.012 53.4053 36.8387 51.87 34.5613 52.4767C32.3587 53.0647 30.3893 56 28 56C25.6107 56 23.6413 53.0647 21.4387 52.4767C19.1613 51.87 15.988 53.4053 13.9953 52.2527C11.97 51.0813 11.7273 47.558 10.0847 45.9153C8.442 44.2727 4.91867 44.03 3.74733 42.0047C2.59467 40.012 4.13 36.8387 3.52333 34.5613C2.93533 32.3587 0 30.3893 0 28C0 25.6107 2.93533 23.6413 3.52333 21.4387C4.13 19.1613 2.59467 15.988 3.74733 13.9953C4.91867 11.97 8.442 11.7273 10.0847 10.0847C11.7273 8.442 11.97 4.91867 13.9953 3.74733C15.988 2.59467 19.1613 4.13 21.4387 3.52333C23.6413 2.93533 25.6107 0 28 0C30.3893 0 32.3587 2.93533 34.5613 3.52333C36.8387 4.13 40.012 2.59467 42.0047 3.74733C44.03 4.91867 44.2727 8.442 45.9153 10.0847C47.558 11.7273 51.0813 11.97 52.2527 13.9953C53.4053 15.988 51.87 19.1613 52.4767 21.4387C53.0647 23.6413 56 25.6107 56 28Z" fill="#36B37E"/>
<path id="Vector_2" d="M36.0922 19.6554L25.4336 30.314L19.9082 24.7934C18.7089 23.594 16.7629 23.594 15.5636 24.7934C14.3642 25.9927 14.3642 27.9387 15.5636 29.138L23.3149 36.8894C24.4816 38.056 26.3762 38.056 27.5429 36.8894L40.4322 24C41.6316 22.8007 41.6316 20.8547 40.4322 19.6554C39.2329 18.456 37.2916 18.456 36.0922 19.6554Z" fill="#FFFCEE"/>
</g>
</svg>
