<svg width="26" height="24" viewBox="0 0 26 24" fill="none" xmlns="http://www.w3.org/2000/svg">
<path d="M0.433594 7.55469V16.4425C0.433594 16.914 0.616212 17.3661 0.941275 17.6995C1.26634 18.0328 1.70722 18.2201 2.16693 18.2201H11.9273C11.6808 17.2431 11.64 16.2234 11.8076 15.2289C11.9753 14.2344 12.3475 13.288 12.8996 12.4525C13.4517 11.6171 14.1709 10.9118 15.0095 10.3836C15.848 9.85537 16.7867 9.51638 17.7629 9.38915C18.7392 9.26192 19.7307 9.34937 20.6714 9.64569C21.6122 9.942 22.4806 10.4404 23.2189 11.1077C23.9572 11.775 24.5484 12.5958 24.9533 13.5157C25.3581 14.4356 25.5673 15.4333 25.5669 16.4425V7.55469H0.433594ZM8.66693 15.5538H4.33359C3.98881 15.5538 3.65815 15.4133 3.41435 15.1633C3.17056 14.9133 3.03359 14.5742 3.03359 14.2206C3.03359 13.867 3.17056 13.5279 3.41435 13.2779C3.65815 13.0279 3.98881 12.8874 4.33359 12.8874H8.66693C9.01171 12.8874 9.34237 13.0279 9.58617 13.2779C9.82996 13.5279 9.96693 13.867 9.96693 14.2206C9.96693 14.5742 9.82996 14.9133 9.58617 15.1633C9.34237 15.4133 9.01171 15.5538 8.66693 15.5538Z" fill="#9BC9FF"/>
<path d="M23.8336 0.444336H2.16693C1.70722 0.444336 1.26634 0.631615 0.941275 0.964974C0.616212 1.29833 0.433594 1.75047 0.433594 2.22191V3.99948H25.5669V2.22191C25.5669 1.75047 25.3843 1.29833 25.0592 0.964974C24.7342 0.631615 24.2933 0.444336 23.8336 0.444336Z" fill="#9BC9FF"/>
<path d="M20.0844 14.2487C20.0311 14.2281 19.9743 14.2185 19.9173 14.2205C19.8604 14.2224 19.8043 14.2359 19.7524 14.2601C19.7006 14.2842 19.6538 14.3187 19.6149 14.3614C19.5761 14.4042 19.5458 14.4544 19.5258 14.5091L18.6319 16.9546L17.7379 14.5104C17.6977 14.4 17.6163 14.3105 17.5117 14.2616C17.4071 14.2126 17.2879 14.2083 17.1802 14.2496C17.0725 14.2908 16.9852 14.3743 16.9375 14.4815C16.8898 14.5888 16.8856 14.7111 16.9258 14.8215L18.2258 18.3767C18.2567 18.4616 18.3121 18.5348 18.3847 18.5864C18.4573 18.6381 18.5435 18.6658 18.6319 18.6658C18.7202 18.6658 18.8065 18.6381 18.879 18.5864C18.9516 18.5348 19.007 18.4616 19.0379 18.3767L20.3379 14.8215C20.358 14.7668 20.3674 14.7086 20.3655 14.6502C20.3636 14.5918 20.3505 14.5344 20.327 14.4812C20.3034 14.428 20.2699 14.3801 20.2283 14.3402C20.1866 14.3003 20.1378 14.2692 20.0844 14.2487Z" fill="#1E81CE"/>
<path d="M21.6383 14.5092C21.6184 14.4545 21.5882 14.4044 21.5493 14.3617C21.5105 14.319 21.4639 14.2845 21.4121 14.2603C21.3603 14.2361 21.3044 14.2225 21.2475 14.2205C21.1906 14.2184 21.1339 14.2279 21.0806 14.2483C21.0273 14.2687 20.9784 14.2997 20.9368 14.3395C20.8951 14.3793 20.8615 14.4271 20.8379 14.4803C20.8143 14.5334 20.8011 14.5907 20.7991 14.6491C20.7971 14.7074 20.8063 14.7656 20.8262 14.8202L22.1262 18.3754C22.1571 18.4603 22.2125 18.5335 22.2851 18.5852C22.3577 18.6368 22.4439 18.6645 22.5323 18.6645C22.6206 18.6645 22.7069 18.6368 22.7794 18.5852C22.852 18.5335 22.9074 18.4603 22.9383 18.3754L24.2383 14.8202C24.2582 14.7656 24.2674 14.7074 24.2654 14.6491C24.2634 14.5907 24.2502 14.5334 24.2266 14.4803C24.203 14.4271 24.1694 14.3793 24.1278 14.3395C24.0861 14.2997 24.0373 14.2687 23.9839 14.2483C23.9306 14.2279 23.8739 14.2184 23.817 14.2205C23.7601 14.2225 23.7042 14.2361 23.6524 14.2603C23.6006 14.2845 23.554 14.319 23.5152 14.3617C23.4764 14.4044 23.4461 14.4545 23.4262 14.5092L22.5323 16.9547L21.6383 14.5092Z" fill="#1E81CE"/>
<path d="M23.8333 0H2.16667C1.59203 0 1.04093 0.234099 0.634602 0.650798C0.228273 1.0675 0 1.63266 0 2.22196V16.4425C0 17.0318 0.228273 17.597 0.634602 18.0137C1.04093 18.4304 1.59203 18.6645 2.16667 18.6645H11.5917C12.11 20.3941 13.2164 21.8755 14.7097 22.8392C16.203 23.803 17.984 24.1851 19.7288 23.916C21.4736 23.6469 23.0662 22.7446 24.2171 21.3731C25.368 20.0015 26.0007 18.252 26 16.4425V2.22196C26 1.63266 25.7717 1.0675 25.3654 0.650798C24.9591 0.234099 24.408 0 23.8333 0ZM18.6333 23.1084C17.3478 23.1084 16.091 22.7175 15.0221 21.985C13.9532 21.2526 13.1201 20.2115 12.6281 18.9935C12.1361 17.7754 12.0074 16.4351 12.2582 15.1421C12.509 13.849 13.1281 12.6613 14.0371 11.729C14.9462 10.7968 16.1044 10.1619 17.3652 9.90472C18.6261 9.64752 19.9331 9.77952 21.1208 10.284C22.3085 10.7886 23.3237 11.643 24.0379 12.7392C24.7521 13.8354 25.1333 15.1241 25.1333 16.4425C25.1313 18.2098 24.4458 19.904 23.2272 21.1537C22.0087 22.4033 20.3566 23.1063 18.6333 23.1084ZM25.1333 12.8963C24.3623 11.4078 23.1278 10.2266 21.6265 9.54078C20.1252 8.85496 18.4433 8.70395 16.8486 9.11178C15.2539 9.51961 13.838 10.4628 12.8265 11.7913C11.815 13.1197 11.2659 14.757 11.2667 16.4425C11.2695 16.8897 11.3101 17.3357 11.388 17.7757H2.16667C1.8222 17.7747 1.49214 17.6339 1.24856 17.3841C1.00499 17.1343 0.867695 16.7958 0.866667 16.4425V7.99907H25.1333V12.8963ZM25.1333 7.11028H0.866667V4.44393H25.1333V7.11028ZM25.1333 3.55514H0.866667V2.22196C0.867695 1.86871 1.00499 1.53022 1.24856 1.28043C1.49214 1.03064 1.8222 0.88984 2.16667 0.888785H23.8333C24.1778 0.88984 24.5079 1.03064 24.7514 1.28043C24.995 1.53022 25.1323 1.86871 25.1333 2.22196V3.55514Z" fill="#1E81CE"/>
<path d="M8.66823 12.4429H4.3349C3.87519 12.4429 3.43431 12.6302 3.10924 12.9635C2.78418 13.2969 2.60156 13.749 2.60156 14.2204C2.60156 14.6919 2.78418 15.144 3.10924 15.4774C3.43431 15.8107 3.87519 15.998 4.3349 15.998H8.66823C9.12794 15.998 9.56882 15.8107 9.89388 15.4774C10.2189 15.144 10.4016 14.6919 10.4016 14.2204C10.4016 13.749 10.2189 13.2969 9.89388 12.9635C9.56882 12.6302 9.12794 12.4429 8.66823 12.4429ZM8.66823 15.1092H4.3349C4.10504 15.1092 3.8846 15.0156 3.72207 14.8489C3.55954 14.6822 3.46823 14.4562 3.46823 14.2204C3.46823 13.9847 3.55954 13.7587 3.72207 13.592C3.8846 13.4253 4.10504 13.3317 4.3349 13.3317H8.66823C8.89808 13.3317 9.11852 13.4253 9.28105 13.592C9.44359 13.7587 9.5349 13.9847 9.5349 14.2204C9.5349 14.4562 9.44359 14.6822 9.28105 14.8489C9.11852 15.0156 8.89808 15.1092 8.66823 15.1092Z" fill="#1E81CE"/>
<path d="M15.1669 15.1095C15.38 15.1095 15.5857 15.19 15.7446 15.3357C15.7866 15.3766 15.8362 15.4085 15.8905 15.4294C15.9447 15.4503 16.0025 15.4598 16.0604 15.4574C16.1183 15.455 16.1752 15.4407 16.2276 15.4154C16.28 15.39 16.327 15.3542 16.3656 15.3099C16.4043 15.2656 16.4339 15.2139 16.4528 15.1576C16.4716 15.1014 16.4792 15.0419 16.4752 14.9826C16.4712 14.9233 16.4556 14.8655 16.4294 14.8124C16.4032 14.7594 16.3669 14.7123 16.3226 14.674C16.0733 14.4452 15.7647 14.2953 15.4341 14.2424C15.1035 14.1895 14.7651 14.2359 14.4596 14.3759C14.1542 14.5159 13.8947 14.7436 13.7127 15.0315C13.5306 15.3194 13.4337 15.6551 13.4336 15.9983V16.887C13.4337 17.2302 13.5306 17.5659 13.7127 17.8538C13.8947 18.1417 14.1542 18.3694 14.4596 18.5094C14.7651 18.6494 15.1035 18.6958 15.4341 18.6429C15.7647 18.59 16.0733 18.4401 16.3226 18.2113C16.3669 18.173 16.4032 18.1259 16.4294 18.0729C16.4556 18.0199 16.4712 17.962 16.4752 17.9027C16.4792 17.8434 16.4716 17.7839 16.4528 17.7277C16.4339 17.6715 16.4043 17.6197 16.3656 17.5754C16.327 17.5311 16.28 17.4953 16.2276 17.4699C16.1752 17.4446 16.1183 17.4303 16.0604 17.4279C16.0025 17.4255 15.9447 17.435 15.8905 17.456C15.8362 17.4769 15.7866 17.5087 15.7446 17.5496C15.6198 17.664 15.4655 17.7389 15.3002 17.7653C15.1349 17.7916 14.9657 17.7684 14.813 17.6983C14.6603 17.6283 14.5307 17.5144 14.4397 17.3705C14.3487 17.2265 14.3003 17.0586 14.3003 16.887V15.9983C14.3003 15.7625 14.3916 15.5365 14.5541 15.3698C14.7166 15.2031 14.9371 15.1095 15.1669 15.1095Z" fill="#1E81CE"/>
</svg>
